<svg width="310" height="550" viewBox="0 0 310 550" fill="none" xmlns="http://www.w3.org/2000/svg">
<g clip-path="url(#clip0_137_3154)">
<path d="M240.767 516.117H76.2672C70.2728 516.117 64.337 514.939 58.7989 512.65C53.2608 510.361 48.2287 507.006 43.99 502.777C39.7513 498.548 36.3889 493.526 34.095 488.001C31.801 482.475 30.6203 476.552 30.6204 470.571V45.5466C30.6341 33.4711 35.4477 21.8941 44.0052 13.3554C52.5626 4.81671 64.1651 0.0136701 76.2672 0H240.766C252.868 0.0136326 264.471 4.81665 273.028 13.3553C281.586 21.894 286.399 33.4711 286.413 45.5466V122.313H289.247V178.874H286.413V470.571C286.413 482.65 281.604 494.235 273.043 502.777C264.483 511.318 252.873 516.117 240.767 516.117ZM76.2672 1.41445C64.541 1.42766 53.2987 6.08153 45.007 14.3551C36.7153 22.6286 32.0512 33.8461 32.0379 45.5466V470.571C32.0379 476.366 33.1818 482.105 35.4045 487.459C37.6272 492.814 40.8851 497.679 44.9922 501.777C49.0992 505.875 53.975 509.126 59.3412 511.343C64.7073 513.561 70.4588 514.703 76.267 514.703H240.766C252.496 514.703 263.746 510.053 272.041 501.777C280.335 493.501 284.995 482.275 284.995 470.571V177.459H287.83V123.727H284.995V45.5466C284.982 33.8461 280.318 22.6286 272.026 14.3551C263.735 6.08153 252.492 1.42766 240.766 1.41445H76.2672Z" fill="#3F3D56"/>
<path d="M242.579 504.452H77.2907C68.2051 504.442 59.4945 500.836 53.07 494.426C46.6455 488.015 43.0315 479.324 43.021 470.258V45.8594C43.0315 36.7937 46.6454 28.1023 53.07 21.6919C59.4945 15.2815 68.205 11.6755 77.2907 11.665H98.3958L97.9987 12.6389C97.0572 14.9474 96.6987 17.4514 96.9546 19.9306C97.2106 22.4098 98.0732 24.7883 99.4666 26.8568C100.86 28.9253 102.741 30.6205 104.946 31.7932C107.15 32.9659 109.609 33.5802 112.106 33.5821H206.346C208.843 33.5801 211.302 32.9658 213.506 31.793C215.71 30.6203 217.592 28.9251 218.985 26.8566C220.378 24.7881 221.241 22.4097 221.497 19.9305C221.753 17.4513 221.395 14.9473 220.453 12.6389L220.056 11.665H242.579C251.664 11.6756 260.375 15.2816 266.799 21.692C273.224 28.1024 276.838 36.7938 276.848 45.8594V470.258C276.838 479.324 273.224 488.015 266.799 494.426C260.375 500.836 251.664 504.442 242.579 504.452ZM77.2907 13.0795C68.5809 13.0895 60.2306 16.5463 54.0718 22.6916C47.913 28.8368 44.4486 37.1687 44.4386 45.8594V470.258C44.4487 478.949 47.9131 487.281 54.0719 493.426C60.2307 499.571 68.5809 503.028 77.2907 503.038H242.579C251.288 503.028 259.639 499.571 265.797 493.426C271.956 487.281 275.42 478.949 275.431 470.258V45.8594C275.42 37.1688 271.956 28.8369 265.797 22.6916C259.639 16.5464 251.288 13.0896 242.579 13.0795H222.129C222.97 15.5787 223.203 18.2416 222.809 20.8485C222.415 23.4553 221.406 25.9314 219.865 28.0724C218.323 30.2133 216.293 31.9577 213.942 33.1617C211.592 34.3656 208.988 34.9945 206.346 34.9966H112.106C109.464 34.9946 106.86 34.3657 104.509 33.1618C102.159 31.9579 100.129 30.2135 98.5872 28.0725C97.0455 25.9316 96.036 23.4555 95.6423 20.8486C95.2486 18.2417 95.4818 15.5787 96.3228 13.0795H77.2907Z" fill="#CCCCCC"/>
<path d="M295.028 276.36H14.9716C11.0022 276.355 7.19675 274.78 4.39 271.979C1.58325 269.179 0.00446673 265.382 0 261.421V171.789C0.00446673 167.828 1.58325 164.031 4.39 161.23C7.19675 158.43 11.0022 156.855 14.9716 156.85H295.028C298.998 156.855 302.803 158.43 305.61 161.23C308.417 164.031 309.996 167.828 310 171.789V261.421C309.996 265.382 308.417 269.179 305.61 271.979C302.803 274.78 298.998 276.355 295.028 276.36Z" fill="white"/>
<path d="M295.028 276.36H14.9716C11.0022 276.355 7.19675 274.78 4.39 271.979C1.58325 269.179 0.00446673 265.382 0 261.421V171.789C0.00446673 167.828 1.58325 164.031 4.39 161.23C7.19675 158.43 11.0022 156.855 14.9716 156.85H295.028C298.998 156.855 302.803 158.43 305.61 161.23C308.417 164.031 309.996 167.828 310 171.789V261.421C309.996 265.382 308.417 269.179 305.61 271.979C302.803 274.78 298.998 276.355 295.028 276.36ZM14.9716 158.608C11.4692 158.612 8.11147 160.002 5.63493 162.473C3.15839 164.944 1.76533 168.294 1.76136 171.789V261.421C1.76533 264.916 3.15839 268.266 5.63493 270.737C8.11147 273.208 11.4692 274.598 14.9716 274.602H295.028C298.531 274.598 301.889 273.208 304.365 270.737C306.842 268.266 308.235 264.916 308.239 261.421V171.789C308.235 168.294 306.842 164.944 304.365 162.473C301.889 160.002 298.531 158.612 295.028 158.608H14.9716Z" fill="#3F3D56"/>
<path d="M191.725 211.772H93.9695C92.101 211.772 90.3089 211.031 88.9876 209.713C87.6664 208.394 86.9241 206.606 86.9241 204.742C86.9241 202.877 87.6664 201.089 88.9876 199.771C90.3089 198.452 92.101 197.712 93.9695 197.712H191.725C193.594 197.712 195.386 198.452 196.707 199.771C198.028 201.089 198.771 202.877 198.771 204.742C198.771 206.606 198.028 208.394 196.707 209.713C195.386 211.031 193.594 211.772 191.725 211.772Z" fill="#FFCE1E"/>
<path d="M282.435 235.498H93.9695C92.101 235.498 90.3089 234.757 88.9876 233.439C87.6664 232.121 86.9241 230.332 86.9241 228.468C86.9241 226.603 87.6664 224.815 88.9876 223.497C90.3089 222.179 92.101 221.438 93.9695 221.438H282.435C284.304 221.438 286.096 222.179 287.417 223.497C288.739 224.815 289.481 226.603 289.481 228.468C289.481 230.332 288.739 232.121 287.417 233.439C286.096 234.757 284.304 235.498 282.435 235.498Z" fill="#FFCE1E"/>
<path d="M46.9397 242.967C61.5314 242.967 73.3602 231.164 73.3602 216.605C73.3602 202.045 61.5314 190.242 46.9397 190.242C32.3481 190.242 20.5193 202.045 20.5193 216.605C20.5193 231.164 32.3481 242.967 46.9397 242.967Z" fill="#FFCE1E"/>
<path d="M282.425 264.057H257.766C255.897 264.057 254.105 263.317 252.784 261.998C251.463 260.68 250.72 258.892 250.72 257.027C250.72 255.163 251.463 253.375 252.784 252.056C254.105 250.738 255.897 249.997 257.766 249.997H282.425C283.35 249.997 284.266 250.179 285.121 250.532C285.976 250.886 286.753 251.404 287.407 252.056C288.061 252.709 288.58 253.484 288.934 254.337C289.288 255.19 289.47 256.104 289.47 257.027C289.47 257.95 289.288 258.865 288.934 259.718C288.58 260.57 288.061 261.345 287.407 261.998C286.753 262.651 285.976 263.169 285.121 263.522C284.266 263.875 283.35 264.057 282.425 264.057Z" fill="white"/>
<path d="M282.425 264.057H257.766C255.897 264.057 254.105 263.317 252.784 261.998C251.463 260.68 250.72 258.892 250.72 257.027C250.72 255.163 251.463 253.375 252.784 252.056C254.105 250.738 255.897 249.997 257.766 249.997H282.425C283.35 249.997 284.266 250.179 285.121 250.532C285.976 250.886 286.753 251.404 287.407 252.056C288.061 252.709 288.58 253.484 288.934 254.337C289.288 255.19 289.47 256.104 289.47 257.027C289.47 257.95 289.288 258.865 288.934 259.718C288.58 260.57 288.061 261.345 287.407 261.998C286.753 262.651 285.976 263.169 285.121 263.522C284.266 263.875 283.35 264.057 282.425 264.057Z" fill="#CCCCCC"/>
<path d="M240.005 133.87H84.1704C81.9617 133.867 79.8442 132.991 78.2824 131.432C76.7206 129.874 75.8421 127.761 75.8396 125.557V75.6825C75.8421 73.4786 76.7206 71.3658 78.2824 69.8074C79.8442 68.249 81.9617 67.3725 84.1704 67.37H240.005C242.214 67.3725 244.331 68.249 245.893 69.8074C247.455 71.3658 248.333 73.4786 248.336 75.6825V125.557C248.333 127.761 247.455 129.874 245.893 131.432C244.331 132.991 242.214 133.867 240.005 133.87ZM84.1704 68.3479C82.2216 68.3501 80.3532 69.1236 78.9751 70.4986C77.5971 71.8736 76.8219 73.7379 76.8197 75.6825V125.557C76.8219 127.502 77.5971 129.366 78.9751 130.741C80.3532 132.116 82.2216 132.89 84.1704 132.892H240.005C241.954 132.89 243.822 132.116 245.2 130.741C246.578 129.366 247.354 127.502 247.356 125.557V75.6825C247.354 73.7379 246.578 71.8736 245.2 70.4986C243.822 69.1236 241.954 68.3501 240.005 68.3479H84.1704Z" fill="#CCCCCC"/>
<path d="M182.523 97.9306H128.128C127.089 97.9292 126.093 97.5164 125.359 96.783C124.625 96.0495 124.213 95.0554 124.213 94.0188C124.213 92.9823 124.625 91.9881 125.359 91.2546C126.093 90.5212 127.089 90.1084 128.128 90.1071H182.523C183.562 90.1084 184.558 90.5212 185.292 91.2546C186.026 91.9881 186.438 92.9823 186.438 94.0188C186.438 95.0554 186.026 96.0495 185.292 96.783C184.558 97.5164 183.562 97.9292 182.523 97.9306Z" fill="#E6E6E6"/>
<path d="M232.998 111.133H128.128C127.089 111.131 126.093 110.719 125.359 109.985C124.625 109.252 124.213 108.258 124.213 107.221C124.213 106.185 124.625 105.19 125.359 104.457C126.093 103.723 127.089 103.311 128.128 103.309H232.998C233.513 103.309 234.024 103.409 234.5 103.606C234.976 103.802 235.409 104.09 235.773 104.453C236.138 104.817 236.427 105.248 236.625 105.723C236.822 106.198 236.924 106.707 236.924 107.221C236.924 107.735 236.822 108.244 236.625 108.719C236.427 109.194 236.138 109.626 235.773 109.989C235.409 110.352 234.976 110.64 234.5 110.837C234.024 111.033 233.513 111.134 232.998 111.133Z" fill="#E6E6E6"/>
<path d="M101.959 115.289C110.078 115.289 116.66 108.722 116.66 100.62C116.66 92.5185 110.078 85.9509 101.959 85.9509C93.8394 85.9509 87.2573 92.5185 87.2573 100.62C87.2573 108.722 93.8394 115.289 101.959 115.289Z" fill="#E6E6E6"/>
<path d="M232.992 127.024H219.271C218.756 127.025 218.245 126.924 217.769 126.728C217.293 126.532 216.86 126.244 216.495 125.88C216.131 125.517 215.841 125.086 215.644 124.611C215.447 124.136 215.345 123.627 215.345 123.113C215.345 122.598 215.447 122.089 215.644 121.614C215.841 121.139 216.131 120.708 216.495 120.345C216.86 119.981 217.293 119.693 217.769 119.497C218.245 119.301 218.756 119.2 219.271 119.201H232.992C234.031 119.202 235.027 119.615 235.761 120.348C236.495 121.082 236.907 122.076 236.907 123.113C236.907 124.149 236.495 125.143 235.761 125.877C235.027 126.61 234.031 127.023 232.992 127.024Z" fill="white"/>
<path d="M232.992 127.024H219.271C218.756 127.025 218.245 126.924 217.769 126.728C217.293 126.532 216.86 126.244 216.495 125.88C216.131 125.517 215.841 125.086 215.644 124.611C215.447 124.136 215.345 123.627 215.345 123.113C215.345 122.598 215.447 122.089 215.644 121.614C215.841 121.139 216.131 120.708 216.495 120.345C216.86 119.981 217.293 119.693 217.769 119.497C218.245 119.301 218.756 119.2 219.271 119.201H232.992C234.031 119.202 235.027 119.615 235.761 120.348C236.495 121.082 236.907 122.076 236.907 123.113C236.907 124.149 236.495 125.143 235.761 125.877C235.027 126.61 234.031 127.023 232.992 127.024Z" fill="#CCCCCC"/>
<path d="M240.005 364.425H84.1704C81.9617 364.423 79.8442 363.546 78.2824 361.988C76.7206 360.43 75.8421 358.317 75.8396 356.113V306.238C75.8421 304.034 76.7206 301.921 78.2824 300.363C79.8442 298.804 81.9617 297.928 84.1704 297.925H240.005C242.214 297.928 244.331 298.804 245.893 300.363C247.455 301.921 248.333 304.034 248.336 306.238V356.113C248.333 358.317 247.455 360.43 245.893 361.988C244.331 363.546 242.214 364.423 240.005 364.425ZM84.1704 298.903C82.2216 298.906 80.3532 299.679 78.9751 301.054C77.5971 302.429 76.8219 304.293 76.8197 306.238V356.113C76.8219 358.057 77.5971 359.922 78.9751 361.297C80.3532 362.672 82.2216 363.445 84.1704 363.447H240.005C241.954 363.445 243.822 362.672 245.2 361.297C246.578 359.922 247.354 358.057 247.356 356.113V306.238C247.354 304.293 246.578 302.429 245.2 301.054C243.822 299.679 241.954 298.906 240.005 298.903H84.1704Z" fill="#CCCCCC"/>
<path d="M182.523 328.486H128.128C127.088 328.486 126.091 328.074 125.356 327.34C124.621 326.607 124.208 325.612 124.208 324.574C124.208 323.537 124.621 322.542 125.356 321.808C126.091 321.075 127.088 320.662 128.128 320.662H182.523C183.562 320.664 184.558 321.077 185.292 321.81C186.026 322.543 186.438 323.538 186.438 324.574C186.438 325.611 186.026 326.605 185.292 327.338C184.558 328.072 183.562 328.485 182.523 328.486Z" fill="#E6E6E6"/>
<path d="M232.998 341.688H128.128C127.089 341.687 126.093 341.274 125.359 340.541C124.625 339.807 124.213 338.813 124.213 337.776C124.213 336.74 124.625 335.746 125.359 335.012C126.093 334.279 127.089 333.866 128.128 333.865H232.998C234.038 333.865 235.035 334.277 235.77 335.01C236.505 335.744 236.918 336.739 236.918 337.776C236.918 338.814 236.505 339.809 235.77 340.542C235.035 341.276 234.038 341.688 232.998 341.688Z" fill="#E6E6E6"/>
<path d="M101.959 345.844C110.078 345.844 116.66 339.277 116.66 331.175C116.66 323.074 110.078 316.506 101.959 316.506C93.8394 316.506 87.2573 323.074 87.2573 331.175C87.2573 339.277 93.8394 345.844 101.959 345.844Z" fill="#E6E6E6"/>
<path d="M232.992 357.58H219.271C218.231 357.58 217.234 357.168 216.499 356.434C215.764 355.7 215.351 354.705 215.351 353.668C215.351 352.63 215.764 351.635 216.499 350.902C217.234 350.168 218.231 349.756 219.271 349.756H232.992C234.031 349.757 235.027 350.17 235.761 350.904C236.495 351.637 236.907 352.631 236.907 353.668C236.907 354.704 236.495 355.699 235.761 356.432C235.027 357.165 234.031 357.578 232.992 357.58Z" fill="white"/>
<path d="M232.992 357.58H219.271C218.231 357.58 217.234 357.168 216.499 356.434C215.764 355.7 215.351 354.705 215.351 353.668C215.351 352.63 215.764 351.635 216.499 350.902C217.234 350.168 218.231 349.756 219.271 349.756H232.992C234.031 349.757 235.027 350.17 235.761 350.904C236.495 351.637 236.907 352.631 236.907 353.668C236.907 354.704 236.495 355.699 235.761 356.432C235.027 357.165 234.031 357.578 232.992 357.58Z" fill="#CCCCCC"/>
<path d="M240.005 457.072H84.1704C81.9617 457.069 79.8442 456.193 78.2824 454.634C76.7206 453.076 75.8421 450.963 75.8396 448.759V398.884C75.8421 396.681 76.7206 394.568 78.2824 393.009C79.8442 391.451 81.9617 390.574 84.1704 390.572H240.005C242.214 390.574 244.331 391.451 245.893 393.009C247.455 394.568 248.333 396.681 248.336 398.884V448.759C248.333 450.963 247.455 453.076 245.893 454.634C244.331 456.193 242.214 457.069 240.005 457.072ZM84.1704 391.55C82.2216 391.552 80.3532 392.325 78.9751 393.7C77.5971 395.076 76.8219 396.94 76.8197 398.884V448.759C76.8219 450.704 77.5971 452.568 78.9751 453.943C80.3532 455.318 82.2216 456.092 84.1704 456.094H240.005C241.954 456.092 243.822 455.318 245.2 453.943C246.578 452.568 247.354 450.704 247.356 448.759V398.884C247.354 396.94 246.578 395.075 245.2 393.7C243.822 392.325 241.954 391.552 240.005 391.55H84.1704Z" fill="#CCCCCC"/>
<path d="M182.523 421.132H128.128C127.088 421.132 126.091 420.72 125.356 419.987C124.621 419.253 124.208 418.258 124.208 417.221C124.208 416.183 124.621 415.188 125.356 414.455C126.091 413.721 127.088 413.309 128.128 413.309H182.523C183.562 413.31 184.558 413.723 185.292 414.457C186.026 415.19 186.438 416.184 186.438 417.221C186.438 418.257 186.026 419.251 185.292 419.985C184.558 420.718 183.562 421.131 182.523 421.132Z" fill="#E6E6E6"/>
<path d="M232.998 434.335H128.128C127.089 434.333 126.093 433.921 125.359 433.187C124.625 432.454 124.213 431.459 124.213 430.423C124.213 429.386 124.625 428.392 125.359 427.659C126.093 426.925 127.089 426.513 128.128 426.511H232.998C234.038 426.511 235.035 426.923 235.77 427.657C236.505 428.39 236.918 429.385 236.918 430.423C236.918 431.46 236.505 432.455 235.77 433.189C235.035 433.923 234.038 434.335 232.998 434.335Z" fill="#E6E6E6"/>
<path d="M101.959 438.491C110.078 438.491 116.66 431.923 116.66 423.822C116.66 415.72 110.078 409.153 101.959 409.153C93.8394 409.153 87.2573 415.72 87.2573 423.822C87.2573 431.923 93.8394 438.491 101.959 438.491Z" fill="#E6E6E6"/>
<path d="M232.992 450.226H219.271C218.231 450.226 217.234 449.814 216.499 449.08C215.764 448.347 215.351 447.352 215.351 446.314C215.351 445.277 215.764 444.282 216.499 443.548C217.234 442.815 218.231 442.403 219.271 442.403H232.992C234.031 442.404 235.027 442.817 235.761 443.55C236.495 444.284 236.907 445.278 236.907 446.314C236.907 447.351 236.495 448.345 235.761 449.079C235.027 449.812 234.031 450.225 232.992 450.226Z" fill="white"/>
<path d="M232.992 450.226H219.271C218.231 450.226 217.234 449.814 216.499 449.08C215.764 448.347 215.351 447.352 215.351 446.314C215.351 445.277 215.764 444.282 216.499 443.548C217.234 442.815 218.231 442.403 219.271 442.403H232.992C234.031 442.404 235.027 442.817 235.761 443.55C236.495 444.284 236.907 445.278 236.907 446.314C236.907 447.351 236.495 448.345 235.761 449.079C235.027 449.812 234.031 450.225 232.992 450.226Z" fill="#CCCCCC"/>
<path d="M142.931 541.595H151.621L155.754 508.152L142.929 508.153L142.931 541.595Z" fill="#FFB8B8"/>
<path d="M140.714 538.764L157.827 538.764H157.828C159.26 538.764 160.678 539.045 162.001 539.592C163.324 540.139 164.526 540.94 165.539 541.951C166.552 542.961 167.355 544.161 167.903 545.481C168.451 546.801 168.733 548.216 168.733 549.645V549.999L140.715 550L140.714 538.764Z" fill="#2F2E41"/>
<path d="M108.201 541.595H116.89L121.024 508.152L108.199 508.153L108.201 541.595Z" fill="#FFB8B8"/>
<path d="M105.984 538.764L123.097 538.764H123.097C124.529 538.764 125.948 539.045 127.271 539.592C128.594 540.139 129.796 540.94 130.809 541.951C131.821 542.961 132.625 544.161 133.173 545.481C133.721 546.801 134.003 548.216 134.003 549.645V549.999L105.984 550L105.984 538.764Z" fill="#2F2E41"/>
<path d="M144.665 310.063C154.28 310.063 162.074 302.286 162.074 292.693C162.074 283.1 154.28 275.323 144.665 275.323C135.051 275.323 127.257 283.1 127.257 292.693C127.257 302.286 135.051 310.063 144.665 310.063Z" fill="#FFB8B8"/>
<path d="M156.372 534.377H140.246C139.824 534.377 139.406 534.293 139.017 534.131C138.627 533.969 138.274 533.731 137.977 533.431C137.681 533.132 137.447 532.776 137.289 532.386C137.131 531.995 137.052 531.577 137.057 531.156L137.994 454.754C137.998 454.482 137.897 454.22 137.712 454.02C137.528 453.821 137.273 453.7 137.002 453.682C136.731 453.664 136.463 453.75 136.253 453.923C136.044 454.096 135.909 454.343 135.876 454.612L126.491 531.579C126.396 532.351 126.022 533.061 125.439 533.576C124.856 534.092 124.104 534.377 123.325 534.377H107.045C106.605 534.377 106.17 534.286 105.767 534.111C105.364 533.935 105.002 533.678 104.703 533.356C104.404 533.033 104.176 532.653 104.031 532.239C103.887 531.824 103.83 531.384 103.865 530.947L114.615 393.692L114.907 393.66L166.385 388.113L159.558 531.346C159.52 532.163 159.167 532.934 158.574 533.499C157.98 534.063 157.192 534.378 156.372 534.377Z" fill="#2F2E41"/>
<path d="M115.242 402.118C114.415 402.116 113.621 401.793 113.028 401.218C112.435 400.643 112.089 399.86 112.064 399.035C111.783 390.357 111.301 360.327 116.899 338.281C118.427 332.259 121.856 326.886 126.68 322.959C131.504 319.031 137.466 316.756 143.686 316.471C149.807 316.138 155.879 317.736 161.039 321.039C166.199 324.343 170.186 329.184 172.433 334.876C181.842 358.711 190.732 388.091 179.649 392.699C165.123 398.738 126.828 401.431 115.437 402.112C115.372 402.116 115.307 402.118 115.242 402.118Z" fill="#FFCE1E"/>
<path d="M181.776 275.137C182.05 275.417 182.345 275.676 182.659 275.91L180.832 310.936L173.231 314.819L177.604 327.031L191.73 321.462C192.871 321.012 193.836 320.205 194.478 319.162C195.12 318.119 195.406 316.896 195.292 315.677L191.592 275.945C192.803 275.044 193.71 273.795 194.193 272.367C194.675 270.938 194.711 269.397 194.294 267.948C193.878 266.499 193.029 265.211 191.861 264.255C190.692 263.299 189.26 262.72 187.754 262.596C186.249 262.472 184.741 262.809 183.431 263.561C182.122 264.313 181.073 265.445 180.424 266.806C179.775 268.167 179.557 269.694 179.798 271.182C180.04 272.67 180.73 274.05 181.776 275.137H181.776Z" fill="#FFB8B8"/>
<path d="M180.976 312.24L186.323 327.402C186.475 327.833 186.532 328.292 186.491 328.748C186.449 329.203 186.309 329.644 186.082 330.041C185.854 330.438 185.543 330.781 185.17 331.047C184.797 331.313 184.371 331.496 183.921 331.583L168.154 334.629C165.937 335.394 163.507 335.25 161.397 334.229C159.287 333.209 157.668 331.395 156.896 329.185C156.124 326.976 156.262 324.551 157.279 322.442C158.296 320.334 160.11 318.714 162.322 317.938L176.479 310.481C176.885 310.268 177.331 310.144 177.789 310.119C178.247 310.093 178.704 310.166 179.131 310.333C179.558 310.5 179.944 310.757 180.262 311.086C180.58 311.415 180.824 311.808 180.976 312.24V312.24Z" fill="#FFCE1E"/>
<path d="M106.371 275.137C106.098 275.417 105.802 275.676 105.488 275.91L107.316 310.936L114.917 314.819L110.543 327.031L96.4171 321.462C95.2759 321.012 94.3118 320.205 93.6695 319.162C93.0272 318.119 92.7414 316.896 92.8549 315.677L96.5556 275.945C95.3446 275.044 94.4374 273.795 93.9547 272.367C93.4719 270.938 93.4364 269.397 93.853 267.948C94.2696 266.499 95.1184 265.211 96.2867 264.255C97.4549 263.299 98.8872 262.72 100.393 262.596C101.899 262.472 103.407 262.809 104.716 263.561C106.026 264.313 107.075 265.445 107.724 266.806C108.373 268.167 108.591 269.694 108.349 271.182C108.108 272.67 107.418 274.05 106.371 275.137Z" fill="#FFB8B8"/>
<path d="M109.016 310.333C109.443 310.166 109.9 310.093 110.358 310.119C110.816 310.144 111.262 310.268 111.668 310.481L125.825 317.938C128.037 318.714 129.851 320.334 130.868 322.442C131.885 324.551 132.023 326.976 131.251 329.185C130.479 331.395 128.86 333.209 126.75 334.229C124.64 335.25 122.21 335.394 119.993 334.629L104.226 331.583C103.776 331.496 103.35 331.313 102.977 331.047C102.604 330.781 102.294 330.438 102.066 330.041C101.838 329.645 101.698 329.203 101.656 328.748C101.615 328.293 101.672 327.833 101.824 327.402L107.171 312.24C107.323 311.808 107.567 311.415 107.885 311.086C108.203 310.757 108.589 310.5 109.016 310.333Z" fill="#FFCE1E"/>
<path d="M151.426 295.654C151.335 293.438 151.892 291.244 153.03 289.339C154.168 287.434 155.837 285.901 157.834 284.927C163.126 282.201 166.45 276.387 164.994 271.078C163.129 264.282 153.86 259.875 146.349 262.213C144.316 262.933 142.356 263.842 140.494 264.928L135.587 267.553C133.491 268.6 131.47 269.79 129.538 271.116C126.645 273.243 124.377 276.106 122.972 279.407C121.567 282.707 121.076 286.324 121.55 289.878C122.516 296.787 127.051 303.123 133.257 307.461C135.631 309.231 138.373 310.447 141.28 311.019C144.255 311.508 147.567 310.952 149.742 309.106C153.142 306.221 152.791 301.39 151.691 297.354C151.546 296.798 151.457 296.228 151.426 295.654Z" fill="#2F2E41"/>
</g>
<defs>
<clipPath id="clip0_137_3154">
<rect width="310" height="550" fill="white"/>
</clipPath>
</defs>
</svg>
