<svg width="520" height="375" viewBox="0 0 520 375" fill="none" xmlns="http://www.w3.org/2000/svg">
<g clip-path="url(#clip0_137_3336)">
<path d="M104.883 230.226C103.985 230.267 103.095 230.032 102.335 229.551C101.575 229.071 100.982 228.368 100.635 227.54C100.288 226.711 100.204 225.796 100.396 224.918C100.587 224.04 101.044 223.242 101.704 222.632C101.815 222.193 101.894 221.878 102.005 221.439C101.965 221.343 101.925 221.248 101.885 221.152C97.8467 211.535 84.1597 211.601 80.1555 221.233C76.6015 229.782 72.0766 238.346 70.9625 247.385C70.4718 251.38 70.6788 255.43 71.5743 259.355C63.2268 241.169 58.8923 221.403 58.8644 201.398C58.8626 196.378 59.1419 191.361 59.7009 186.372C60.1629 182.282 60.8038 178.221 61.6237 174.19C66.0977 152.314 75.7036 131.81 89.6526 114.362C96.4039 110.683 101.864 105.025 105.296 98.1518C106.54 95.681 107.419 93.0434 107.906 90.321C107.144 90.4208 106.37 90.4832 105.609 90.533C105.371 90.5454 105.122 90.5579 104.884 90.5704L104.795 90.5744C103.958 90.6119 103.128 90.407 102.405 89.9843C101.682 89.5617 101.096 88.9392 100.719 88.192C100.342 87.4448 100.189 86.6047 100.279 85.7727C100.369 84.9407 100.698 84.1524 101.226 83.5027C101.554 83.0985 101.883 82.6946 102.213 82.2908C102.712 81.6673 103.224 81.0563 103.723 80.4329C103.781 80.3737 103.835 80.3112 103.886 80.2458C104.46 79.535 105.034 78.8368 105.609 78.126C104.56 76.5009 103.15 75.1396 101.489 74.1483C95.7329 70.7816 87.7924 73.1134 83.6348 78.3131C79.4648 83.5127 78.6783 90.8074 80.1265 97.3038C81.3626 102.865 84.0593 107.965 87.0932 112.816C86.781 113.215 86.4564 113.601 86.1443 114C80.4386 121.328 75.4656 129.196 71.2967 137.493C72.4762 128.291 70.7348 117.206 67.7662 110.06C64.3869 101.918 58.053 95.0611 52.4752 88.0224C45.7753 79.568 32.0367 83.2577 30.8563 93.975C30.8449 94.0788 30.8337 94.1825 30.8228 94.2862C31.6513 94.753 32.4623 95.2485 33.2558 95.7726C34.2527 96.4378 35.0251 97.3882 35.4718 98.4993C35.9186 99.6104 36.0189 100.83 35.7596 101.999C35.5002 103.168 34.8934 104.232 34.0186 105.05C33.1437 105.869 32.0417 106.405 30.8568 106.587L30.7355 106.606C31.0306 109.588 31.5523 112.544 32.2961 115.447C34.4512 123.551 38.2596 131.124 43.4824 137.69C48.7052 144.256 55.2299 149.673 62.6473 153.603C63.1342 153.852 63.6087 154.102 64.0957 154.338C59.9072 166.193 57.2799 178.542 56.28 191.073C55.7139 198.466 55.7473 205.893 56.3799 213.281C56.3674 213.194 56.3549 213.106 56.3424 213.019C54.7442 204.804 50.3563 197.391 43.9197 192.033C34.3597 184.19 20.8533 181.302 10.5398 174.997C5.5752 171.963 -0.786599 175.884 0.0798625 181.633C0.0937036 181.725 0.10776 181.816 0.122039 181.908C1.65947 182.534 3.15641 183.254 4.60415 184.065C5.43263 184.532 6.24363 185.028 7.03711 185.552C8.03394 186.217 8.80634 187.167 9.2531 188.278C9.69986 189.389 9.80015 190.609 9.54084 191.778C9.28152 192.947 8.67469 194.011 7.79985 194.83C6.92501 195.648 5.82296 196.184 4.63811 196.366L4.51668 196.385C4.42931 196.397 4.35436 196.41 4.2671 196.422C6.89402 202.687 10.581 208.453 15.1665 213.468C20.8312 219.539 27.6777 224.39 35.2863 227.724C42.8949 231.058 51.1051 232.805 59.4137 232.858H59.4262C61.6817 242.646 64.9495 252.174 69.1771 261.288H104.01C104.135 260.901 104.248 260.502 104.36 260.116C101.136 260.318 97.899 260.125 94.7216 259.542C97.306 256.375 99.8904 253.183 102.475 250.015C102.532 249.956 102.587 249.894 102.637 249.828C103.948 248.207 105.272 246.599 106.582 244.978L106.583 244.976C106.653 240.007 106.082 235.05 104.884 230.227L104.883 230.226Z" fill="#F2F2F2"/>
<path d="M519.176 262.611L0.998574 262.823C0.780031 262.823 0.570442 262.736 0.415908 262.582C0.261375 262.428 0.174561 262.218 0.174561 262C0.174561 261.782 0.261375 261.572 0.415908 261.418C0.570442 261.264 0.780031 261.177 0.998574 261.177L519.176 260.965C519.395 260.965 519.604 261.051 519.759 261.206C519.913 261.36 520 261.569 520 261.788C520 262.006 519.913 262.215 519.759 262.37C519.604 262.524 519.395 262.611 519.176 262.611Z" fill="#CACACA"/>
<path d="M439.325 262.089C415.73 263.086 402.389 262.361 385.19 247.45C373.48 247.139 364.171 238.681 364.44 228.596C364.708 218.512 374.454 210.56 386.164 210.871L428.682 212.884C440.392 213.195 462.169 212.476 461.901 222.561C461.769 227.512 461.767 233.933 461.307 240.66C460.928 246.308 458.476 251.619 454.419 255.573C450.363 259.528 444.988 261.848 439.325 262.089Z" fill="#2F2E41"/>
<path d="M363.54 356.493L351.358 358.481L337.884 312.498L355.863 309.564L363.54 356.493Z" fill="#FFB6B6"/>
<path d="M358.7 260.61C381.413 266.188 398.184 259.906 411.998 260.721C419.85 247.488 444.915 230.679 431.239 223.604C423.623 219.664 346.199 210.581 336.035 221.064C309.899 248.02 342.349 333.15 342.349 333.15L360.398 332.917L366.164 324.697L361.519 315.738L365.913 308.414L360.885 300.869L358.7 260.61Z" fill="#2F2E41"/>
<path d="M371.919 365.68L363.938 367.815L360.496 360.67L358.865 369.171L337.697 374.832C336.682 375.103 335.608 375.044 334.629 374.662C333.651 374.28 332.821 373.596 332.259 372.709C331.698 371.822 331.435 370.779 331.509 369.733C331.583 368.686 331.99 367.691 332.671 366.892L346.449 350.712L344.409 343.104L362.473 339.409L371.919 365.68Z" fill="#2F2E41"/>
<path d="M463.373 341.506L454.482 350.058L417.222 319.88L430.344 307.257L463.373 341.506Z" fill="#FFB6B6"/>
<path d="M391.702 246.425C412.523 254.434 430.732 245.527 448.723 235.202C447.65 219.857 447.051 197.731 431.773 199.675C423.264 200.758 352.941 212.364 350.546 226.759C344.389 263.775 432.652 334.333 432.652 334.333L447.368 323.895L447.433 313.858L438.512 309.125L437.957 300.605L429.526 297.252L391.702 246.425Z" fill="#2F2E41"/>
<path d="M475.496 344.307L470.145 350.594L463.246 346.671L466.743 354.591L452.551 371.266C451.871 372.066 450.953 372.627 449.93 372.868C448.908 373.109 447.835 373.018 446.869 372.607C445.902 372.196 445.093 371.488 444.558 370.585C444.023 369.682 443.791 368.632 443.896 367.588L446.021 346.454L440.013 341.353L452.771 328.057L475.496 344.307Z" fill="#2F2E41"/>
<path d="M380.725 215.895C379.258 215.895 378.425 215.608 378.103 214.992C377.629 214.088 374.607 212.907 375.558 211.539C376.221 210.585 377.822 209.309 377.206 208.574C374.831 205.742 368.904 124.524 367.507 113.444C367.164 110.014 367.629 106.552 368.866 103.335C372.779 92.2618 378.12 88.8587 388.761 82.0802C389.625 81.5298 390.524 80.955 391.459 80.3558C392.669 79.5794 392.601 81.3925 392.53 78.6666C392.451 75.6371 392.369 72.504 393.855 70.5458L393.952 70.4182L394.108 70.3819C397.702 69.5521 409.791 68.0114 416.951 70.3931L417.05 70.4268L417.123 70.5001C418.824 72.1986 418.979 75.4887 419.129 78.6701C419.252 81.2822 419.368 79.3612 420.33 80.4325C424.008 84.527 429.55 86.8928 434.172 88.235C437.069 89.0661 439.606 90.839 441.381 93.2728C443.155 95.7065 444.066 98.6621 443.969 101.671C443.468 116.829 443.862 140.797 441.272 157.688C436.96 185.799 476.322 226.397 453.777 227.231C453.834 227.319 453.866 227.421 453.869 227.527C453.872 227.632 453.847 227.736 453.795 227.828C452.186 230.83 386.253 215.895 380.725 215.895Z" fill="#E6E6E6"/>
<path d="M403.542 68.1254C418.384 68.1254 430.416 56.1087 430.416 41.2854C430.416 26.4621 418.384 14.4454 403.542 14.4454C388.7 14.4454 376.668 26.4621 376.668 41.2854C376.668 56.1087 388.7 68.1254 403.542 68.1254Z" fill="#2F2E41"/>
<path d="M405.705 70.3408C416.367 70.0391 424.766 61.1622 424.464 50.5137C424.162 39.8652 415.273 31.4774 404.611 31.7791C393.949 32.0808 385.551 40.9578 385.853 51.6063C386.155 62.2548 395.043 70.6425 405.705 70.3408Z" fill="#FFB6B6"/>
<path d="M405.345 21.6438L397.516 21.8653C392.582 22.0089 387.907 24.1016 384.516 27.6841C381.126 31.2666 379.297 36.0462 379.431 40.974L379.436 41.1472L379.578 41.2365C383.834 44.0485 388.856 45.4757 393.957 45.3222L394.397 45.3097L398.723 45.114C399.45 43.2427 399.693 41.2184 399.43 39.2283C400.083 41.1148 400.593 43.0478 400.955 45.0108L420.365 44.1283C421.494 44.0724 422.557 43.578 423.327 42.7505C424.096 41.9231 424.512 40.828 424.484 39.6991C424.339 34.7716 422.242 30.1031 418.653 26.7181C415.065 23.3331 410.279 21.5081 405.345 21.6438Z" fill="#2F2E41"/>
<path d="M389.744 16.8037C387.977 18.9801 385.14 19.8869 382.59 21.0656C378.092 23.1901 374.181 26.3784 371.195 30.354C368.21 34.3295 366.24 38.9724 365.458 43.88C364.857 47.8764 365.067 51.9897 364.05 55.8979C363.04 59.8058 360.374 63.6873 356.411 64.4727C353.73 65.0085 351 64.0459 348.437 63.0919C347.027 62.5719 345.618 62.0497 344.208 61.5252C345.558 57.8409 346.906 54.1567 348.252 50.4725C346.021 53.9766 343.402 57.219 340.444 60.1386C335.392 58.2686 330.336 56.3987 325.275 54.5289C337.587 54.2271 335.148 42.3515 337.562 30.2985C338.889 23.6753 351.653 18.8549 354.003 12.5227C355.273 9.08836 357.501 6.08908 360.423 3.87984C363.346 1.67061 366.842 0.343919 370.496 0.0567782C374.15 -0.230363 377.81 0.534078 381.043 2.25961C384.276 3.98515 386.946 6.59954 388.737 9.79339C391.293 10.7276 391.478 14.655 389.744 16.8037Z" fill="#2F2E41"/>
<path d="M390.975 24.786C396.501 24.786 400.982 20.3114 400.982 14.7916C400.982 9.27192 396.501 4.7973 390.975 4.7973C385.448 4.7973 380.968 9.27192 380.968 14.7916C380.968 20.3114 385.448 24.786 390.975 24.786Z" fill="#2F2E41"/>
<path d="M426.521 168.994H380.322C378.74 168.992 377.224 168.364 376.105 167.246C374.986 166.129 374.357 164.614 374.355 163.035V113.438C374.357 111.858 374.986 110.343 376.105 109.226C377.224 108.109 378.74 107.481 380.322 107.479H426.521C428.103 107.481 429.62 108.109 430.739 109.226C431.857 110.343 432.486 111.858 432.488 113.438V163.035C432.486 164.614 431.857 166.129 430.739 167.246C429.62 168.364 428.103 168.992 426.521 168.994Z" fill="#3F3D56"/>
<path d="M381.622 118.192C383.533 118.192 385.083 116.645 385.083 114.736C385.083 112.828 383.533 111.28 381.622 111.28C379.711 111.28 378.162 112.828 378.162 114.736C378.162 116.645 379.711 118.192 381.622 118.192Z" fill="#E6E6E6"/>
<path d="M381.622 116.81C382.769 116.81 383.698 115.881 383.698 114.736C383.698 113.591 382.769 112.663 381.622 112.663C380.475 112.663 379.546 113.591 379.546 114.736C379.546 115.881 380.475 116.81 381.622 116.81Z" fill="#3F3D56"/>
<path d="M396.133 166.586L364.4 158.549L359.468 174.856C359.468 174.856 393.607 177.381 394.884 177.392C395.838 178.741 397.179 179.769 398.731 180.339C400.283 180.91 401.971 180.997 403.573 180.588C405.176 180.179 406.616 179.294 407.703 178.051C408.791 176.807 409.475 175.262 409.665 173.622C409.854 171.981 409.541 170.322 408.766 168.863C407.991 167.404 406.79 166.215 405.324 165.452C403.857 164.69 402.193 164.39 400.552 164.592C398.911 164.794 397.37 165.49 396.133 166.586V166.586Z" fill="#FFB6B6"/>
<path d="M374.957 92.6377C352.331 104.713 342.415 131.632 328.534 155.289C328.247 157.874 328.503 160.49 329.287 162.97C330.07 165.45 331.363 167.74 333.082 169.693C334.802 171.645 336.911 173.218 339.274 174.31C341.637 175.403 344.202 175.991 346.805 176.037L373.962 176.662L370.558 159.926L361.475 154.772L372.211 128.833L374.957 92.6377Z" fill="#E6E6E6"/>
<path d="M408.496 118.782L430.154 145.03L421.21 159.185C421.21 159.185 399.433 125.183 398.942 124.006C397.332 123.631 395.873 122.777 394.76 121.556C393.646 120.335 392.93 118.805 392.706 117.169C392.482 115.533 392.761 113.867 393.505 112.393C394.25 110.918 395.425 109.704 396.875 108.911C398.325 108.118 399.983 107.783 401.628 107.951C403.273 108.119 404.828 108.782 406.087 109.852C407.347 110.922 408.252 112.348 408.682 113.943C409.112 115.538 409.047 117.225 408.496 118.782V118.782Z" fill="#FFB6B6"/>
<path d="M441.139 93.3095C447.676 89.7017 466.744 145.343 446.679 176.989C444.39 178.228 441.867 178.975 439.271 179.184C436.676 179.393 434.065 179.059 431.606 178.203C429.148 177.347 426.895 175.988 424.992 174.212C423.089 172.437 421.578 170.285 420.556 167.894L410.169 142.506L426.811 137.207L434.758 146.315L433.652 128.194L443.111 102.44L441.139 93.3095Z" fill="#E6E6E6"/>
<path d="M224.507 65.6163C241.694 65.6163 255.626 51.7012 255.626 34.5361C255.626 17.371 241.694 3.45593 224.507 3.45593C207.32 3.45593 193.387 17.371 193.387 34.5361C193.387 51.7012 207.32 65.6163 224.507 65.6163Z" fill="#FFCE1E"/>
<path d="M238.417 29.0356H210.596C209.428 29.0356 208.308 29.4989 207.483 30.3236C206.657 31.1482 206.193 32.2667 206.193 33.4329V61.2189C206.193 62.3851 206.657 63.5036 207.483 64.3283C208.308 65.1529 209.428 65.6162 210.596 65.6162H238.417C239.585 65.6162 240.705 65.1529 241.53 64.3283C242.356 63.5036 242.82 62.3851 242.82 61.2189V33.433C242.82 32.2667 242.356 31.1482 241.53 30.3236C240.705 29.4989 239.585 29.0356 238.417 29.0356ZM224.507 57.0808C222.575 57.0808 220.686 56.5087 219.08 55.4368C217.474 54.3649 216.222 52.8414 215.483 51.059C214.744 49.2765 214.55 47.3151 214.927 45.4229C215.304 43.5306 216.234 41.7925 217.6 40.4282C218.966 39.064 220.706 38.1349 222.601 37.7585C224.496 37.3822 226.46 37.5753 228.244 38.3137C230.029 39.052 231.554 40.3023 232.628 41.9065C233.701 43.5106 234.274 45.3966 234.274 47.3259C234.274 49.9131 233.245 52.3943 231.413 54.2236C229.581 56.053 227.097 57.0808 224.507 57.0808ZM235.495 37.5711C235.012 37.5711 234.54 37.4281 234.138 37.1601C233.737 36.8921 233.424 36.5113 233.239 36.0657C233.054 35.62 233.006 35.1297 233.1 34.6566C233.194 34.1836 233.427 33.749 233.768 33.408C234.11 33.0669 234.545 32.8347 235.018 32.7406C235.492 32.6465 235.983 32.6948 236.429 32.8793C236.875 33.0639 237.257 33.3765 237.525 33.7775C237.793 34.1786 237.936 34.6501 237.936 35.1324C237.936 35.7792 237.679 36.3995 237.221 36.8568C236.763 37.3142 236.142 37.5711 235.495 37.5711Z" fill="white"/>
<path d="M234.237 243.628C251.424 243.628 265.357 229.713 265.357 212.548C265.357 195.383 251.424 181.468 234.237 181.468C217.05 181.468 203.118 195.383 203.118 212.548C203.118 229.713 217.05 243.628 234.237 243.628Z" fill="#FFCE1E"/>
<path d="M226.23 243.628C221.113 243.632 216.106 242.15 211.817 239.362L209.659 237.961L212.217 238.244C212.887 238.319 213.609 238.362 214.362 238.373C217.81 238.376 221.186 237.385 224.085 235.519C222.362 235.147 220.767 234.331 219.457 233.154C218.147 231.976 217.168 230.478 216.616 228.806L216.295 227.82L217.314 228.02C217.776 228.111 218.246 228.164 218.717 228.178C217.103 227.348 215.749 226.092 214.801 224.545C213.854 222.999 213.351 221.223 213.347 219.41V218.366L214.257 218.767C214.797 219.071 215.369 219.314 215.962 219.491C214.559 217.919 213.687 215.944 213.471 213.849C213.255 211.753 213.706 209.643 214.759 207.818L215.204 207.051L215.762 207.739C219.826 212.762 225.65 216.054 232.053 216.949C232.229 216.974 232.408 216.961 232.578 216.91C232.748 216.86 232.905 216.773 233.038 216.656C233.174 216.537 233.283 216.391 233.358 216.228C233.433 216.064 233.471 215.886 233.471 215.705C233.456 213.756 234.023 211.847 235.099 210.221C236.174 208.594 237.71 207.325 239.511 206.574C241.312 205.823 243.296 205.624 245.211 206.004C247.125 206.383 248.883 207.323 250.26 208.704C252.145 208.293 253.951 207.585 255.612 206.605L257.014 205.776L256.503 207.321C256.03 208.753 255.236 210.06 254.181 211.14C255.117 210.897 256.031 210.58 256.916 210.191L258.815 209.358L257.671 211.086C256.459 212.919 254.945 214.534 253.193 215.862V216.743C253.193 229.959 243.128 243.628 226.284 243.628H226.23Z" fill="white"/>
<path d="M161.525 154.622C178.712 154.622 192.645 140.707 192.645 123.542C192.645 106.377 178.712 92.462 161.525 92.462C144.338 92.462 130.406 106.377 130.406 123.542C130.406 140.707 144.338 154.622 161.525 154.622Z" fill="#FFCE1E"/>
<path d="M175.436 118.042H147.615C146.447 118.042 145.327 118.505 144.501 119.33C143.676 120.154 143.212 121.273 143.212 122.439V150.225C143.212 151.391 143.676 152.51 144.501 153.334C145.327 154.159 146.447 154.622 147.615 154.622H175.436C176.603 154.622 177.723 154.159 178.549 153.334C179.375 152.51 179.839 151.391 179.839 150.225V122.439C179.839 121.273 179.375 120.154 178.549 119.33C177.723 118.505 176.603 118.042 175.436 118.042ZM170.212 127.423H167.021C164.843 127.423 164.419 128.453 164.419 129.974V133.199H169.614L168.939 138.262H164.409V151.466C162.472 151.829 160.484 151.824 158.549 151.452V138.262H154.394V133.199H158.626V129.454C158.626 124.977 161.739 122.532 165.749 122.532C167.677 122.532 169.739 122.677 170.212 122.744L170.212 127.423Z" fill="white"/>
</g>
<defs>
<clipPath id="clip0_137_3336">
<rect width="520" height="375" fill="white"/>
</clipPath>
</defs>
</svg>
