<svg width="530" height="440" viewBox="0 0 530 440" fill="none" xmlns="http://www.w3.org/2000/svg">
<g clip-path="url(#clip0_137_2866)">
<path fill-rule="evenodd" clip-rule="evenodd" d="M44.9602 48.6685C34.1177 56.7666 13.1013 85.9598 11.2761 187.856C9.45095 289.752 44.2193 404.048 159.71 419.069C283.785 435.193 415.593 316.197 438.923 229.431C472.751 103.62 435.309 89.4485 271.207 38.6181C181.684 10.8891 111.569 7.88843 103.239 11.7748C94.908 15.6612 55.7846 40.5342 44.9602 48.6685Z" fill="#FFCE1E"/>
<path fill-rule="evenodd" clip-rule="evenodd" d="M258.774 54.7602C257.166 47.6382 255.395 41.673 254.004 33.6291C253.678 31.8214 253.209 27.7362 252.016 27.0312C249.902 25.7659 244.264 28.0797 242.438 28.6762C233.115 31.7639 223.57 34.1387 213.886 35.7801C220.555 40.1546 227.602 45.5955 235.336 49.4819C236.575 48.0493 237.477 46.3568 237.975 44.5291C239.365 41.0659 241.186 37.7923 243.396 34.786C244.39 33.3579 245.366 31.0622 247.516 31.3153C251.817 31.8214 247.173 37.0636 246.36 38.2566C245.255 39.9478 244.265 41.7112 243.396 43.5349C241.824 46.644 240.396 53.2599 236.457 53.9468C233.24 54.5071 230.313 52.2295 227.873 50.6388L213.706 41.438C211.682 40.1365 208.104 38.1481 208.284 35.1656C208.465 31.8034 213.236 31.2972 217.193 30.5561C224.522 29.1784 231.763 27.3676 238.878 25.1332C242.493 23.9763 249.721 20.7588 254.239 22.9821C258.178 24.9525 258.648 33.8279 259.66 38.835C260.292 41.9261 260.762 44.5833 261.648 47.5839C262.172 49.3916 264.033 53.278 263.129 56.3509C261.756 60.9965 249.396 63.3826 244.806 64.5937C237.884 66.4013 230.638 69.4562 223.337 69.5466C214.013 69.6731 213.236 61.9907 211.447 54.3625C211.013 52.5549 210.236 49.8073 209.64 46.9332C209.116 44.3844 208.266 40.5703 211.122 40.498C213.417 40.498 213.651 43.5529 214.103 45.6136C215.169 50.5484 215.91 53.8564 217.23 58.6647C217.772 60.6169 218.314 63.4549 219.543 64.2683C221.82 65.7867 227.62 64.5937 230.385 63.943C234.18 63.0572 237.415 61.9365 240.125 61.1411C246.504 59.1708 253.986 57.9778 258.774 54.7602Z" fill="#FFE380"/>
<path fill-rule="evenodd" clip-rule="evenodd" d="M146.03 69.7996C144.639 68.5343 143.41 67.4316 141.729 66.0036C140.79 65.1902 138.115 63.961 138.115 61.7015C138.224 57.8512 145 60.165 148.199 60.5446C149.626 60.7254 151.162 60.8157 152.644 61.0507C154.047 61.437 155.491 61.6555 156.945 61.7015C158.3 61.4484 160.433 58.4477 162.222 57.0739C165.456 54.6156 171.257 52.103 176.425 54.4348C181.919 58.0435 186.588 62.7747 190.123 68.3174C192.075 71.4626 194.225 76.994 192.111 81.1877C190.177 85.0018 185.425 88.2012 181.702 90.6054C175.937 94.3291 170.064 99.2278 164.535 103.476C160.704 106.422 155.337 111.99 148.687 109.585C147.116 108.881 145.665 107.936 144.386 106.784C141.954 104.392 139.796 101.736 137.952 98.8662C135.152 94.7991 130.977 89.7197 132.838 83.5014C134.7 77.2832 140.88 73.4149 146.03 69.7996ZM152.138 69.7996C152.337 71.9326 150.15 72.728 148.524 73.7583C144.169 76.4698 138.549 80.1935 137.139 85.1464C136.236 88.2916 138.585 91.4369 139.778 93.2445C140.772 94.7629 141.874 96.2633 142.904 97.7094C144.711 100.33 147.349 104.416 150.512 105.301C154.704 106.458 159.891 101.234 162.059 99.517C168.059 94.7629 173.895 90.1173 180.383 85.8152C182.913 84.1341 187.882 81.2961 188.479 77.8797C189.111 74.156 185.696 70.1431 183.365 67.1605C181.237 64.0442 178.547 61.3529 175.431 59.225C174.329 58.5951 173.086 58.2532 171.817 58.2308C167.209 58.032 165.023 61.3218 161.589 63.8525C161.589 69.4923 151.433 64.7564 148.036 65.1721C148.777 66.8894 151.921 67.3774 152.138 69.7996Z" fill="#FFE380"/>
<path fill-rule="evenodd" clip-rule="evenodd" d="M308.469 68.3174C309.734 68.3174 311.487 68.7512 311.451 70.7938C311.451 73.3968 308.216 73.2341 305.831 73.5956C293.452 75.4033 282.447 77.0302 271.822 81.3504C268.858 82.5615 262.642 84.9656 261.919 88.2917C261.322 91.0392 262.569 93.7145 262.913 95.5222C263.31 97.7998 263.889 100.168 264.232 102.463C264.901 106.982 265.443 112.731 268.515 114.502C271.045 115.966 277.333 116.183 281.164 116.165C286.107 115.894 291.019 115.229 295.856 114.177C300.578 113.431 305.259 112.442 309.879 111.212C314.125 109.965 320.414 107.597 321.77 103.277C322.565 100.782 321.516 96.6248 320.938 94.2388C319.817 88.8753 318.214 83.6239 316.149 78.5486C315.21 76.2348 313.583 72.258 317.143 72.1134C319.24 72.023 320.089 74.8791 320.938 77.0663C323.581 83.6082 325.52 90.4131 326.721 97.3659C327.643 104.47 325.402 108.537 321.444 111.411C315.68 115.605 306.463 117.666 296.85 119.166C287.236 120.666 276.05 122.673 267.936 119.672C260.708 116.961 259.859 107.254 258.359 97.8721C257.799 94.2568 256.136 91.2381 257.202 87.0263C258.269 82.8146 263.708 79.3981 267.864 77.5905C273.971 75.0084 280.33 73.0698 286.839 71.8061C293.86 70.2036 300.976 69.0504 308.144 68.3535L308.469 68.3174Z" fill="#FFE380"/>
<path fill-rule="evenodd" clip-rule="evenodd" d="M63.6451 79.0367C63.6451 79.0367 63.7897 78.874 63.9704 78.874C68.3747 79.2019 72.741 79.9217 77.0176 81.0251C88.8721 83.375 103.184 86.7372 110.864 92.5939C112.273 93.5045 113.462 94.716 114.346 96.1413C115.23 97.5665 115.788 99.1701 115.978 100.837C115.816 103.141 115.373 105.418 114.659 107.615C112.852 116.003 112.455 126.758 106.238 130.409C99.2809 134.477 83.9206 131.892 75.861 130.229C66.0124 128.204 56.1819 126.161 50.2727 121.191C48.602 119.806 47.3156 118.014 46.537 115.988C45.7585 113.962 45.5141 111.77 45.8273 109.622C46.514 102.12 49.4414 94.3473 52.2605 87.9302C53.3086 85.4357 54.0676 82.5073 56.3807 82.6339C60.1575 82.9412 57.6637 87.5506 56.8866 89.4125C54.666 94.4599 52.9529 99.7159 51.7726 105.103C51.1763 107.615 50.1281 111.393 50.9413 114.014C52.0437 117.629 57.0131 119.925 60.6815 121.245C64.9895 122.775 69.4048 123.983 73.8913 124.86C80.704 126.27 87.7517 128.186 96.498 127.662C98.9267 127.668 101.335 127.22 103.6 126.342C107.919 124.029 108.497 113.4 109.708 107.688C110.141 105.627 111.334 103.096 111.027 100.746C110.557 97.0226 104.467 94.5281 101.449 93.1543C91.1851 88.4725 80.4691 86.3395 67.6207 84.2426C65.5245 83.8992 62.0188 83.7727 61.8381 81.5855C61.7825 81.0143 61.9346 80.4421 62.2665 79.974C62.5984 79.5059 63.0879 79.1731 63.6451 79.0367Z" fill="#FFE380"/>
<path fill-rule="evenodd" clip-rule="evenodd" d="M361.634 81.8565C364.274 81.4469 366.972 81.6513 369.52 82.4539C372.068 83.2564 374.397 84.6355 376.325 86.4841C377.681 87.8217 381.439 92.4854 377.645 92.9192C375.946 93.1 375.006 91.1116 374.175 90.2801C373.245 89.1745 372.197 88.1743 371.049 87.2975C365.627 83.9534 356.14 85.9056 352.544 90.2801C347.792 96.0645 350.737 105.374 354.351 108.772C361.833 115.894 381.096 111.7 378.277 99.1917C377.807 97.0587 375.711 93.4254 378.62 93.0819C381.837 92.7023 382.867 100.005 382.578 102.825C381.747 110.905 373.543 116.31 364.742 116.364C353.9 116.364 346.183 109.007 346.093 98.2878C346.021 88.6532 352.327 83.0134 361.634 81.8565Z" fill="#FFE380"/>
<path fill-rule="evenodd" clip-rule="evenodd" d="M284.2 85.8153C285.176 81.8385 288.935 84.1342 291.428 85.3092C294.699 86.8457 301.187 88.9244 303.156 91.437C306.427 95.6126 301.349 99.7702 298.53 102.156C296.343 104.206 293.916 105.985 291.302 107.453C282.664 111.574 281.363 99.011 280.911 91.7624C280.694 88.7256 280.279 84.6403 284.2 85.8153ZM288.158 103.15C292.387 101.092 296.094 98.1004 299 94.4015C294.808 92.0516 290.127 90.1717 285.646 88.1291C285.698 93.2363 286.545 98.3043 288.158 103.15Z" fill="#FFE380"/>
<path fill-rule="evenodd" clip-rule="evenodd" d="M366.422 96.2092C368.229 95.45 369.35 94.0942 372.205 94.4015C375.819 96.0826 373.416 101.433 371.211 103.657C368.396 106.208 364.762 107.669 360.965 107.778C360.477 107.272 359.736 107.037 359.808 105.97C357.748 104.813 356.538 102.03 355.688 98.7398C355.014 96.8104 355.072 94.7003 355.851 92.8108C358.399 88.7798 365.465 92.2685 366.422 96.2092ZM361.796 103.819C365.049 103.169 368.41 101.722 369.223 99.1917C367.832 99.8063 366.982 101.56 365.266 101.343C362.645 100.999 363.079 94.6004 359.32 95.0523C359.284 98.8483 361.164 100.71 361.796 103.819Z" fill="#FFE380"/>
<path fill-rule="evenodd" clip-rule="evenodd" d="M88.5833 97.2033C94.0046 95.1426 91.6915 104.434 91.2216 107.453C90.3542 112.713 88.6194 122.275 81.3188 118.678C78.7151 117.203 76.3256 115.379 74.217 113.255C72.4099 111.7 69.1391 109.188 68.5969 106.495C68.4238 105.712 68.4384 104.899 68.6394 104.123C68.8404 103.347 69.2222 102.63 69.7535 102.03C72.3738 99.2279 80.7044 97.0406 84.7884 95.0884C85.1655 94.8577 85.5971 94.7314 86.039 94.7224C86.4809 94.7135 86.9172 94.8221 87.3033 95.0373C87.6894 95.2525 88.0114 95.5665 88.2363 95.9471C88.4612 96.3277 88.581 96.7612 88.5833 97.2033ZM73.5484 105.464C76.5649 109.053 80.2005 112.071 84.2824 114.376C86.1304 109.526 87.0855 104.382 87.1015 99.1917C82.8548 101.56 77.4878 102.897 73.5484 105.464Z" fill="#FFE380"/>
<path fill-rule="evenodd" clip-rule="evenodd" d="M184.323 102.5C193.358 101.397 200.948 105.464 203.64 111.411C204.894 114.218 205.422 117.295 205.177 120.359C204.932 123.423 203.921 126.377 202.237 128.949C200.553 131.52 198.251 133.627 195.54 135.077C192.83 136.526 189.799 137.27 186.726 137.242C182.435 137.299 178.252 135.904 174.853 133.284C171.474 130.807 168.258 127.391 168.565 121.552C168.709 118.949 169.559 113.635 172.36 113.797C175.974 114.014 172.36 119.636 172.54 122.546C172.92 132.163 188.804 136.682 196.629 129.65C200.388 126.252 203.062 116.798 198.617 111.158C195.454 107.127 186.31 104.343 180.293 108.013C179.092 108.824 177.983 109.763 176.986 110.815C175.938 111.954 175.396 113.725 173.697 113.635C173.32 113.553 172.965 113.393 172.654 113.166C172.343 112.939 172.083 112.649 171.89 112.315C171.402 110.507 173.787 108.411 175.034 107.181C177.484 104.578 180.773 102.92 184.323 102.5Z" fill="#FFE380"/>
<path fill-rule="evenodd" clip-rule="evenodd" d="M412.304 116.69C418.629 112.839 434.586 112.55 431.965 123.143C435.001 125.475 437.043 130.952 433.772 134.856C435.11 137.405 437.965 139.05 436.917 142.629C435.11 148.504 424.267 151.486 417.436 153.348C414.401 154.18 407.967 156.62 407.859 152.86C407.859 150.582 411.274 150.149 413.642 149.552C418.339 148.585 422.928 147.15 427.339 145.268C428.893 144.563 432.291 142.9 432.453 141.472C432.761 138.815 428.496 138.2 428.333 135.688C428.171 133.175 431.188 132.072 430.971 129.578C430.755 127.083 427.357 126.505 426.996 124.625C426.634 122.745 428.008 122.203 427.827 121.01C427.538 118.967 424.213 118.497 421.557 118.696C419.328 118.941 417.154 119.552 415.123 120.504C412.955 121.444 410.262 123.631 408.509 122.492C407.497 121.823 407.805 119.781 407.859 118.19C407.985 113.147 407.064 111.158 403.233 109.278C404.797 114.665 404.267 120.444 401.751 125.456C400.703 127.589 399.113 131.855 396.456 131.584C396.047 131.522 395.663 131.35 395.344 131.085C395.026 130.821 394.786 130.475 394.649 130.084C394.107 127.752 396.583 125.963 397.45 124.3C399.077 121.506 399.827 118.288 399.6 115.063C399.293 110.779 396.727 103.91 403.395 104.651C408.473 105.193 412.16 110.128 412.304 116.69Z" fill="#FFE380"/>
<path fill-rule="evenodd" clip-rule="evenodd" d="M190.34 128.421C186.542 128.326 182.908 126.855 180.112 124.282C177.962 122.149 175.377 116.943 179.118 115.045C181.151 114.93 183.153 115.574 184.738 116.852C185.949 112.116 195.852 108.79 196.123 115.876C195.883 119.176 194.927 122.383 193.322 125.276C192.862 125.848 192.227 126.255 191.515 126.433C191.569 127.626 190.81 127.897 190.34 128.421ZM185.877 121.986C184.07 122.094 183.491 120.305 181.919 119.835C183.292 122.546 186.148 123.739 189.527 124.462C190.159 121.353 192.039 119.491 191.985 115.695C188.063 115.334 188.623 121.787 185.804 121.986H185.877Z" fill="#FFE380"/>
<path fill-rule="evenodd" clip-rule="evenodd" d="M404.877 156.493C404.281 157.18 403.702 157.976 402.745 157.976C400.576 157.976 400.197 154.794 399.438 152.553C398.035 148.242 396.382 144.017 394.486 139.899C393.727 138.291 392.227 135.163 390.872 134.946C389.951 134.922 389.048 135.201 388.3 135.74C387.553 136.278 387.002 137.047 386.734 137.929C386.762 139.944 387.277 141.922 388.234 143.695C390.041 148.395 391.848 155.065 394.504 158.735C396.312 157.921 399.926 155.897 400.45 159.06C400.974 162.224 395.498 163.742 393.023 163.019C389.408 161.989 387.854 156.06 386.571 152.3C385.812 150.04 385.216 147.871 384.439 145.846C383.391 143.207 381.62 140.713 382.289 136.935C382.957 133.157 388.776 128.638 393.51 130.988C396.89 132.669 398.932 139.05 400.45 142.557C402.565 146.974 404.056 151.665 404.877 156.493Z" fill="#FFE380"/>
<path fill-rule="evenodd" clip-rule="evenodd" d="M84.4447 170.521C87.1011 168.225 93.1006 169.111 95.1788 171.858C98.2327 168.767 103.744 169.563 107.232 171.858C108.533 172.708 110.846 174.027 110.702 175.98C110.485 178.456 103.13 180.011 100.961 180.77C97.0581 182.126 93.8415 183.246 90.2274 184.385C91.7967 188.213 93.5578 191.96 95.5041 195.61C98.2689 191.616 101.088 188.199 106.238 186.572C110.684 185.126 116.737 185.56 119.773 182.107C122.375 179.161 123.622 174.985 126.225 171.876C129.748 167.628 133.959 165.785 139.416 163.778C136.76 156.801 133.995 149.914 131.339 142.972C116.123 148.865 100.058 154.903 84.1194 161.049C82.475 161.663 78.4452 163.399 78.1741 160.38C77.9573 157.994 81.6799 157.216 83.7941 156.421C99.5519 150.474 116.322 143.352 131.826 138.092C134.917 137.043 135.82 142.195 136.778 144.69C141.531 156.927 146.211 168.839 151.144 181.186C152.481 184.53 154.108 187.404 152.138 190.766C150.331 193.857 145.904 196.189 141.892 198.195C134.447 201.811 124.797 205.589 117.135 208.77C113.376 210.324 108.714 212.62 103.925 213.054C97.4376 213.669 96.6967 210.361 95.0161 205.823C91.2574 196.008 86.0891 187.53 82.1316 177.263C81.3546 175.238 80.9209 173.738 79.9993 171.153C79.3487 169.346 76.7104 164.176 80.6498 164.212C83.5412 164.122 83.1436 168.225 84.4447 170.521ZM130.507 173.829C126.73 177.679 125.086 185.397 119.123 188.199C115.31 190.007 110.087 189.446 106.238 191.164C103.792 192.475 101.739 194.416 100.293 196.785C99.6423 197.707 97.9978 199.533 97.9798 200.744C98.3019 202.073 98.8067 203.35 99.4796 204.54C99.8243 205.884 100.379 207.165 101.124 208.336C105.985 208.589 110.376 206.528 114.497 204.884C122.683 201.503 130.399 198.466 138.603 194.634C141.332 193.369 148.163 190.603 148.506 187.404C148.669 185.867 147.476 183.969 146.861 182.451C144.783 177.426 143.03 172.654 141.079 167.99C137.128 169.035 133.496 171.041 130.507 173.829ZM95.0161 177.444C93.0283 177.444 92.0164 174.208 89.9021 173.648C89.2029 173.497 88.4737 173.575 87.8226 173.871C87.1715 174.168 86.6333 174.666 86.2879 175.293C86.9565 176.938 87.6794 178.528 88.2576 180.246C93.5524 178.655 98.558 176.793 103.618 174.967C99.7868 171.696 97.6545 177.534 95.0161 177.462V177.444Z" fill="#FFE380"/>
<path fill-rule="evenodd" clip-rule="evenodd" d="M107.901 158.807C110.413 155.987 113.069 152.752 117.804 152.535C119.055 152.434 120.313 152.587 121.504 152.984C122.695 153.382 123.793 154.015 124.733 154.848C125.673 155.68 126.435 156.693 126.974 157.827C127.513 158.961 127.817 160.192 127.869 161.446C127.869 170.159 115.762 174.769 110.539 168.388C108.496 165.635 107.554 162.218 107.901 158.807ZM114.497 166.038C118.021 168.84 124.092 164.845 123.243 160.615C122.807 159.437 121.976 158.447 120.892 157.815C119.807 157.182 118.537 156.945 117.298 157.144C115.165 157.488 113.431 159.512 112.184 160.615C113.069 162.965 112.87 164.772 114.443 166.164L114.497 166.038Z" fill="#FFE380"/>
<path fill-rule="evenodd" clip-rule="evenodd" d="M404.714 208.011C401.733 214.663 399.293 221.875 396.456 228.654C401.57 230.769 405.925 232.613 409.503 236.752C412.575 240.367 414.455 247.254 418.43 249.134C422.695 251.159 428.279 250.327 432.453 252.605C436.067 254.575 437.694 257.052 440.206 260.685C442.271 257.13 444.082 253.433 445.627 249.622C440.513 247.562 435.218 246.007 429.363 244.019C427.664 243.422 425.279 242.717 425.062 241.199C424.647 238.252 430.718 235.107 433.646 234.764C434.862 234.645 436.09 234.775 437.255 235.144C438.419 235.514 439.497 236.116 440.422 236.915C442.88 234.601 448.139 232.775 451.265 235.758C452.349 233.842 452.15 229.323 454.879 229.16C458.855 228.907 456.397 234.348 455.71 236.246C452.331 245.718 447.434 255.859 443.169 265.168C442.41 266.813 441.362 268.693 440.531 270.79C438.724 275.291 438.724 278.617 431.947 278.02C427.014 277.604 422.605 275.399 418.575 273.718C411.346 270.735 400.92 266.596 393.8 263.161C389.426 261.028 382.957 258.01 382.578 252.749C382.744 250.373 383.423 248.061 384.565 245.971C389.408 233.968 394.559 220.827 399.257 208.661C399.908 206.98 401.064 202.57 403.052 202.877C405.501 203.518 407.88 204.402 410.154 205.516C423.906 210.758 437.549 215.928 451.717 221.369C453.397 222.02 457.572 222.725 457.499 225.165C457.499 228.328 453.361 226.684 451.554 225.997C436.103 220.05 419.84 213.994 404.714 208.011ZM389.119 247.652C388.469 249.243 387.312 251.086 387.475 252.605C387.637 254.123 390.077 255.696 391.758 256.726C393.578 257.817 395.454 258.812 397.378 259.709C405.69 263.577 413.407 266.614 421.484 269.94C425.604 271.639 430.014 273.555 434.857 273.411C436.047 270.872 437.068 268.258 437.911 265.584C435.525 261.589 433.7 258.01 429.67 256.166C425.64 254.322 420.328 255.154 416.298 253.021C411.057 250.273 409.684 243.187 405.455 238.831C402.51 235.812 399.329 234.547 395.047 233.046C393.239 236.246 390.926 243.097 389.119 247.652ZM447.235 238.614C444.669 238.397 443.061 242.627 440.802 242.591C438.995 242.591 437.441 239.463 435.381 239.283C434.844 239.23 434.303 239.291 433.792 239.462C433.281 239.633 432.813 239.911 432.417 240.277C437.712 241.795 442.446 243.892 447.777 245.392C448.337 243.585 449.169 242.048 449.747 240.277C448.753 239.427 447.994 238.632 447.145 238.56L447.235 238.614Z" fill="#FFE380"/>
<path fill-rule="evenodd" clip-rule="evenodd" d="M427.99 223.864C428.331 227.274 427.39 230.689 425.351 233.444C420.111 239.825 408.166 235.252 408.021 226.684C408.094 224.309 409.069 222.052 410.748 220.373C412.427 218.693 414.684 217.718 417.057 217.645C422.532 217.302 425.261 220.99 427.99 223.864ZM418.756 222.201C417.491 221.96 416.183 222.177 415.064 222.812C413.945 223.448 413.088 224.462 412.648 225.671C411.798 229.919 417.87 233.932 421.394 231.094C423.056 229.775 422.858 227.931 423.707 225.49C422.334 224.659 420.78 222.58 418.756 222.201Z" fill="#FFE380"/>
<path fill-rule="evenodd" clip-rule="evenodd" d="M47.7972 260.36C50.4684 260.422 53.1263 260.755 55.7303 261.354C63.1209 262.361 70.4506 263.773 77.6864 265.584C82.1825 266.647 86.5509 268.192 90.7154 270.193C95.197 272.579 100.835 275.616 100.13 283.244C99.9497 285.214 99.3353 287.257 98.9738 289.354C97.474 298.211 96.9318 308.786 89.2337 311.642C80.6861 314.823 66.7354 312.618 58.0434 310.829C47.6707 308.677 37.7859 306.725 32.9429 300.905C30.9009 298.446 29.8348 294.596 30.4672 289.517C31.6505 282.501 33.5894 275.634 36.2499 269.036C36.9727 267.229 37.7498 264.101 39.8641 264.083C44.942 264.083 39.9544 272.941 39.1955 274.929C37.6381 279.163 36.4766 283.532 35.7259 287.98C35.2238 290.314 35.1139 292.715 35.4006 295.084C36.015 297.561 38.6895 299.549 40.8218 300.688C45.3757 303.128 50.7789 304.014 57.4832 305.478C63.5445 306.962 69.7358 307.852 75.9696 308.135C80.2163 308.135 85.4749 308.045 88.3663 306.472C91.8539 304.556 92.125 299.007 92.8117 294.415C93.155 292.156 93.7694 289.517 94.1308 287.492C94.4922 285.468 95.5765 282.756 95.1247 280.388C94.5103 277.134 88.4385 274.531 85.3845 273.284C74.542 268.874 64.1694 267.482 51.5379 265.529C49.5681 265.222 45.972 265.294 45.5925 263.216C45.5364 262.882 45.5499 262.539 45.6322 262.211C45.7146 261.882 45.8639 261.574 46.0709 261.306C46.278 261.038 46.5382 260.815 46.8352 260.652C47.1323 260.489 47.4598 260.39 47.7972 260.36Z" fill="#FFE380"/>
<path fill-rule="evenodd" clip-rule="evenodd" d="M72.7348 277.876C78.3548 276.61 76.1141 285.992 75.5358 289.914C74.7407 295.337 72.5902 302.73 65.7956 299.495C63.1857 298.028 60.7593 296.256 58.5673 294.216C55.8205 291.921 50.598 287.763 53.9411 283.479C55.2242 281.834 58.4769 280.623 61.3682 279.358C64.2596 278.092 66.7895 276.755 69.1387 275.743C69.5116 275.563 69.9229 275.479 70.3361 275.497C70.7494 275.515 71.1518 275.635 71.5076 275.846C71.8634 276.057 72.1615 276.353 72.3756 276.707C72.5897 277.061 72.7131 277.462 72.7348 277.876ZM71.253 280.171C66.916 282.34 62.2176 284.094 58.0432 286.462C60.9584 290.152 64.6634 293.141 68.8857 295.211C70.5792 290.382 71.3814 285.286 71.253 280.171Z" fill="#FFE380"/>
<path fill-rule="evenodd" clip-rule="evenodd" d="M366.91 319.975C369.368 316.866 369.729 312.202 370.705 307.918C371.681 303.634 372.874 299.332 373.85 295.373C368.23 298.031 363.206 302.17 357.008 305.279C354.297 306.635 350.863 308.334 347.972 309.744C345.659 310.847 340.22 312.69 339.876 315.022C339.533 317.354 342.298 319.758 343.346 321.295C345.934 325.291 348.305 329.425 350.448 333.677C351.348 335.829 352.567 337.834 354.062 339.624C360.965 337.997 366.422 334.201 372.874 331.038C375.639 329.646 378.584 328.326 381.909 326.248C384.132 324.892 388.74 322.072 389.011 319.487C389.21 317.589 387.204 314.679 386.373 313.034C384.096 308.714 382.415 305.803 379.777 301.483C379.144 300.453 376.343 296.44 379.939 296.06C382.162 295.807 383.554 298.989 384.403 300.362C386.644 303.978 388.451 307.593 390.511 311.425C391.902 314.082 394.649 317.824 392.987 322C390.511 328.146 381.15 331.887 375.151 335.033C369.729 337.889 365.808 340.6 359.79 342.968C355.2 344.776 351.532 345.065 349.074 341.16C346.816 337.545 345.46 333.568 342.623 328.941C340.057 324.675 336.587 321.078 335.521 317.39C333.714 311.335 339.587 308.786 343.454 306.816C350.254 303.634 356.888 300.111 363.332 296.259C366.513 294.198 370.235 290.963 374.175 290.149C379.596 289.029 378.638 295.428 377.482 299.892C376.632 303.146 375.675 306.364 375.169 308.931C374.374 312.546 373.94 315.131 373.018 318.186C371.735 322.488 369.404 326.121 363.603 323.952C362.32 323.482 361.037 322.488 359.483 321.819C356.337 320.562 353.074 319.618 349.743 318.999C347.412 318.493 345.424 318.493 345.623 316.034C345.93 312.13 354.225 315.185 356.465 315.872C360.423 317.011 363.82 318.818 366.91 319.975Z" fill="#FFE380"/>
<path fill-rule="evenodd" clip-rule="evenodd" d="M315.029 346.059C323.92 344.595 333.678 343.402 337.961 350.199C339.573 353.352 340.636 356.757 341.105 360.267C342.695 368.672 343.364 377.548 336.479 380.91C332.724 382.325 328.775 383.161 324.769 383.387C320.721 383.766 316.8 383.965 312.119 384.706C303.084 386.134 291.211 390.491 285.881 383.549C281.706 378.126 279.754 361.008 284.073 354.483C286.513 350.867 292.44 348.843 297.446 348.536C298.705 348.708 299.982 348.708 301.241 348.536C302.072 348.282 303.156 346.258 304.06 345.083C304.963 343.908 305.867 342.588 306.698 341.612C308.316 339.108 310.194 336.781 312.3 334.671C312.819 334.394 313.419 334.309 313.994 334.431C314.57 334.553 315.083 334.875 315.444 335.34C316.836 337.617 314.541 342.805 315.029 346.059ZM306.445 349.53C305.361 350.976 303.68 353.94 301.982 353.995C301.15 353.995 300.265 353.272 299.506 353.163C295.801 352.693 290.362 353.976 288.284 356.308C287.143 358.157 286.461 360.252 286.296 362.418C285.754 368.329 287.001 378.506 289.91 381.416C292.476 383.965 297.916 382.718 302.289 381.904C310.981 380.277 317.396 379.464 326.07 378.596C329.522 378.253 334.997 377.458 336.623 375.126C339.009 371.745 337.31 365.057 336.461 360.43C335.792 356.814 334.889 352.765 332.847 351.193C329.811 348.843 323.396 349.295 319.312 350.036C316.926 350.47 313.601 351.97 311.884 351.518C309.029 350.759 310.529 347.144 310.403 344.089C309.228 345.824 308.198 347.27 306.499 349.53H306.445Z" fill="#FFE380"/>
<path fill-rule="evenodd" clip-rule="evenodd" d="M112.816 218.242C112.816 218.242 119.575 185.94 135.26 171.659C150.946 157.379 179.191 144.256 179.191 144.256C179.191 144.256 183.148 126.631 193.051 118.804C200.103 113.493 207.671 108.902 215.64 105.103C215.64 105.103 213.543 88.3098 217.953 87.4421C222.362 86.5745 231.162 101.632 231.162 101.632C231.162 101.632 316.258 104.976 355.978 127.897C395.697 150.817 413.009 175.04 416.569 175.455C420.129 175.871 429.635 170.213 428.948 174.299C428.261 178.384 421.954 188.958 421.358 192.14C420.762 195.321 398.95 269.398 360.098 296.982C313.204 330.351 273.358 338.557 273.358 338.557L112.816 218.242Z" fill="#F5F5F5"/>
<path fill-rule="evenodd" clip-rule="evenodd" d="M114.443 226.177C114.443 226.177 121.201 193.875 136.905 179.613C152.608 165.351 180.817 152.209 180.817 152.209C180.817 152.209 184.775 134.585 194.677 126.776C201.741 121.462 209.321 116.872 217.302 113.074C217.302 113.074 215.206 96.2814 219.615 95.3957C224.025 94.5099 232.807 109.604 232.807 109.604C232.807 109.604 317.903 112.948 357.622 135.85C397.342 158.753 414.654 182.993 418.214 183.409C421.774 183.825 431.279 178.167 430.592 182.252C429.906 186.337 423.599 196.912 423.003 200.093C422.406 203.275 400.577 277.333 361.742 304.936C314.758 338.304 274.912 346.511 274.912 346.511L114.443 226.177Z" fill="#FFE380"/>
<path fill-rule="evenodd" clip-rule="evenodd" d="M140.212 216.922C140.212 216.922 116.72 221.369 108.353 235.902C99.9862 250.436 94.8179 261.968 94.8179 261.968C94.8179 261.968 19.4625 231.89 7.80676 175.202C-4.5537 115.171 5.69247 68.5525 34.0637 44.4026C48.5204 31.9842 56.3451 31.3515 56.3451 31.3515C56.3451 31.3515 60.2845 25.9286 64.2782 23.9222C66.2945 23.0254 68.1792 21.8578 69.8801 20.4515C69.8801 20.4515 76.0784 12.1184 82.2587 10.3831C85.4205 9.36496 88.7329 8.89424 92.0531 8.9912C94.7637 7.43664 116.666 -2.8849 116.937 7.07512C117.19 16.5832 104.07 16.0048 104.07 16.0048C104.07 16.0048 105.715 21.8977 101.757 21.9338C99.2934 21.9917 96.8541 22.437 94.5288 23.2534L103.438 41.9261C103.438 41.9261 77.4699 61.087 62.9951 90.9851C50.1287 117.521 67.6755 173.792 88.9087 192.881C114.081 215.639 140.212 216.922 140.212 216.922Z" fill="white"/>
<path fill-rule="evenodd" clip-rule="evenodd" d="M222.76 166.309C215.993 164.963 208.981 165.653 202.606 168.291C196.232 170.93 190.781 175.397 186.943 181.131C179.715 192.863 183.546 206.438 196.99 211.066C211.086 215.982 229.518 208.824 236.62 195.303C243.396 182.433 236.71 169.508 222.76 166.309Z" fill="black"/>
<path fill-rule="evenodd" clip-rule="evenodd" d="M250.516 262.673C250.516 262.673 215.658 284.546 198.834 274.061C192.346 270.012 185.425 265.023 185.624 259.365C185.949 250.327 196.466 240.873 196.466 240.873L203.062 244.832L207.038 235.089C207.038 235.089 185.931 223.846 188.371 209.782C190.81 195.719 195.599 179.324 206.875 171.623C218.151 163.923 223.717 157.849 224.693 155.77C226.125 153.348 227.726 151.028 229.482 148.829C229.482 148.829 232.482 152.715 243.198 156.06C253.914 159.404 283.098 167.195 280.677 179.559C278.255 191.923 265.804 205.48 265.804 205.48L271.153 224.008C271.153 224.008 267.539 231.998 259.1 233.408C254.082 234.269 248.976 234.494 243.902 234.077C243.902 234.077 233.439 259.383 236.8 260.83C240.162 262.276 250.516 262.673 250.516 262.673Z" fill="#F5F5F5"/>
<path fill-rule="evenodd" clip-rule="evenodd" d="M261.25 214.102C261.25 214.102 286.911 185.976 279.321 174.805C271.731 163.633 256.534 159.277 248.275 157.958C240.017 156.638 230.114 149.046 230.114 149.046L221.856 158.283L213.272 166.544C213.272 166.544 211.465 163.073 210.796 153.655C210.128 144.238 211.284 125.746 211.284 125.746L219.38 132.018L221.368 129.542L228.47 116.328C234.726 123.27 242.525 128.645 251.239 132.018C266.22 137.983 291.176 146.226 303.644 155.156C314.903 163.254 328.257 179.324 326.07 193.116C324.456 204.758 318.353 215.307 309.066 222.508C300.898 229.07 283.134 236.228 281.833 236.228C280.532 236.228 261.25 214.102 261.25 214.102Z" fill="#F5F5F5"/>
<path fill-rule="evenodd" clip-rule="evenodd" d="M292.947 283.154C287.345 262.619 250.679 261.336 250.679 261.336C250.679 261.336 243.758 265.728 233.512 270.916C222.127 276.682 203.984 276.104 190.575 266.795C177.167 257.485 198.165 241.361 198.165 241.361C198.165 241.361 191.045 235.939 175.721 226.34C160.397 216.742 137.574 217.41 137.574 217.41C137.574 217.41 122.069 220.501 112.274 229.467C102.48 238.433 95.1071 261.516 95.1071 261.516L103.04 265.312C103.04 265.312 87.9872 276.954 73.9822 290.24C63.1397 300.615 45.9544 318.439 38.9609 325.759C41.3492 332.415 44.2492 338.876 47.6349 345.083C51.5206 351.491 55.8121 357.643 60.4833 363.503C64.6758 368.817 68.5429 374.565 72.898 379.771C73.8052 379.202 74.8478 378.885 75.9184 378.853C76.9889 378.821 78.0485 379.076 78.9879 379.591C84.6111 382.957 89.5221 387.39 93.4446 392.642C101.323 394.666 109.401 397.396 115.907 402.132C122.305 403.705 128.226 406.806 133.164 411.17C133.463 411.441 133.724 411.751 133.941 412.092L136.905 412.453C137.223 412.251 137.571 412.099 137.935 412.001C146.754 409.434 156.638 411.676 165.041 414.713C165.699 414.932 166.311 415.269 166.848 415.707C167.854 415.801 168.82 416.145 169.659 416.706C170.499 417.268 171.185 418.031 171.655 418.924L198.617 371.51L218.495 341.612C218.495 341.612 230.982 334.707 249.053 338.142C267.124 341.576 269.021 374.8 269.021 374.8C269.021 374.8 304.187 324.548 292.947 283.154Z" fill="#F5F5F5"/>
<path fill-rule="evenodd" clip-rule="evenodd" d="M35.8706 329.049C35.8706 329.049 60.0133 303.526 74.0182 290.24C88.0231 276.954 103.076 265.313 103.076 265.313L95.143 261.517C95.143 261.517 102.552 238.433 112.31 229.467C122.069 220.501 129.315 220.05 129.315 220.05C129.315 220.05 154.289 221.098 169.613 230.787C184.937 240.476 193.719 245.989 193.719 245.989C193.719 245.989 181.973 260.45 190.575 266.795C203.677 276.52 222.127 276.683 233.512 270.916C243.758 265.728 246.161 266.126 246.161 266.126C246.161 266.126 281.851 265.584 286.784 286.281C295.35 322.289 267.304 365.057 267.304 365.057C267.304 365.057 267.196 341.558 249.143 338.142C231.09 334.725 218.585 341.612 218.585 341.612L198.707 371.511L168.655 424.347C168.655 424.347 86.4509 418.057 68.9222 392.967C51.3935 367.877 35.8706 329.049 35.8706 329.049Z" fill="#FFCE1E"/>
<path fill-rule="evenodd" clip-rule="evenodd" d="M169.776 420.714C169.776 420.714 178.667 433.241 193.72 436.079C208.773 438.917 234.542 426.083 248.528 405.205C262.515 384.327 266.039 379.464 266.039 379.464C266.039 379.464 273.394 345.607 249.522 337.346C230.096 330.64 217.989 341.142 217.989 341.142L197.84 371.511C197.84 371.511 184.793 360.249 173.733 349.711C162.674 339.172 158.608 331.978 153.259 324.765C147.91 317.553 141.965 295.373 135.766 290.24C129.568 285.106 128.43 283.1 125.195 284.817C120.171 287.456 129.496 299.838 129.496 299.838C129.496 299.838 117.027 292.228 108.353 289.77C99.6789 287.311 94.9082 290.945 97.2935 292.915C99.6789 294.885 102.534 294.469 106.871 297.362C109.997 299.646 112.826 302.312 115.292 305.297C115.292 305.297 100.835 300.796 96.4623 300.182C92.0892 299.567 85.6198 298.211 84.7524 300.507C84.2379 302.073 84.2955 303.77 84.915 305.297C84.915 305.297 78.4999 305.93 78.4637 309.581C78.4381 310.61 78.6855 311.627 79.1807 312.529C79.6759 313.43 80.4012 314.185 81.2828 314.715C81.2828 314.715 77.2711 318.619 79.295 321.15C81.3189 323.681 89.6315 326.88 96.2997 331.219C106.13 337.599 113.033 358.785 117.443 362.274C121.022 364.964 124.896 367.238 128.99 369.052L169.776 420.714Z" fill="white"/>
<path fill-rule="evenodd" clip-rule="evenodd" d="M261.25 214.102C261.25 214.102 286.911 185.976 279.321 174.805C271.731 163.633 256.534 159.277 248.275 157.958C240.017 156.638 230.114 149.046 230.114 149.046L222.886 161.916L213.308 166.544C213.308 166.544 211.501 163.073 210.832 153.655C210.164 144.238 209.17 129.542 209.17 129.542L218.747 142.195L218.585 133.283L225.687 120.07C225.687 120.07 231.289 130.229 246.161 136.338C261.033 142.448 287.037 148.684 299.994 157.307C311.523 165.007 327.426 181.493 325.293 195.267C323.161 209.041 317.27 215.946 309.029 222.508C300.789 229.07 283.098 236.228 281.797 236.228C280.496 236.228 261.25 214.102 261.25 214.102Z" fill="#FFCE1E"/>
<path fill-rule="evenodd" clip-rule="evenodd" d="M223.03 172.527C222.282 171.975 221.35 171.733 220.428 171.851C219.506 171.969 218.664 172.437 218.079 173.16L214.085 178.185C213.806 178.533 213.602 178.935 213.484 179.366C213.366 179.796 213.338 180.246 213.401 180.688C213.463 181.13 213.616 181.555 213.848 181.935C214.081 182.316 214.389 182.645 214.754 182.903C215.502 183.455 216.434 183.697 217.356 183.579C218.278 183.461 219.12 182.992 219.705 182.27L223.699 177.245C223.98 176.897 224.187 176.496 224.306 176.065C224.425 175.634 224.455 175.183 224.392 174.74C224.329 174.298 224.176 173.873 223.942 173.492C223.707 173.111 223.397 172.783 223.03 172.527Z" fill="black"/>
<path fill-rule="evenodd" clip-rule="evenodd" d="M251.094 185.687C250.346 185.135 249.414 184.893 248.492 185.01C247.57 185.128 246.729 185.597 246.143 186.319L242.149 191.344C241.87 191.694 241.665 192.098 241.547 192.53C241.429 192.962 241.401 193.413 241.463 193.857C241.526 194.3 241.678 194.726 241.911 195.108C242.144 195.491 242.453 195.821 242.818 196.08C243.568 196.63 244.502 196.869 245.424 196.748C246.346 196.627 247.186 196.155 247.769 195.43L251.763 190.423C252.045 190.074 252.252 189.67 252.371 189.238C252.491 188.806 252.52 188.353 252.457 187.909C252.395 187.465 252.241 187.039 252.007 186.656C251.772 186.274 251.462 185.944 251.094 185.687Z" fill="black"/>
<path fill-rule="evenodd" clip-rule="evenodd" d="M283.405 204.124C276.643 202.779 269.635 203.467 263.264 206.101C256.892 208.736 251.444 213.2 247.607 218.929C240.288 230.642 244.191 244.127 257.636 248.809C271.731 253.726 290.163 246.567 297.283 233.082C304.042 220.212 297.356 207.36 283.405 204.124Z" fill="black"/>
<path fill-rule="evenodd" clip-rule="evenodd" d="M293.597 207.74C293.597 207.74 306.97 187.693 304.006 175.202C297.121 146.28 268.045 138.634 268.045 138.634C268.045 138.634 299.94 144.418 307.674 158.518C315.409 172.617 320.631 180.535 314.108 195.195C310.168 204.051 304.877 212.241 298.422 219.471L293.597 207.74Z" fill="black"/>
<path fill-rule="evenodd" clip-rule="evenodd" d="M105.823 18.3908C104.738 23.1991 100.998 25.3501 95.5946 25.8201C95.8838 35.8705 83.3064 33.0506 77.0901 36.5574C78.59 46.2824 66.1391 45.1798 59.0192 47.4032C54.7133 48.9897 50.617 51.0961 46.8214 53.6756C46.1889 54.0552 43.406 55.1037 42.8458 53.1876C42.1049 50.5665 46.5865 48.5781 48.2671 47.5658C53.2564 44.5575 58.7782 42.5384 64.5308 41.6188C66.862 41.1488 72.4097 40.6246 72.9519 38.9796C73.8193 36.3224 69.9159 33.846 68.4883 33.3579C62.272 31.2611 53.8871 34.6775 49.3332 37.1539C44.2143 39.748 39.4016 42.9069 34.985 46.5717C26.2748 54.1637 20.2753 63.8345 15.5046 74.6441C6.18005 95.721 1.59006 126.939 6.0897 156.728C7.91005 169.409 11.5624 181.757 16.9322 193.387C32.0033 225.744 60.5372 244.001 93.8598 259.112C99.8593 238.795 111.117 223.737 130.833 217.157C110.124 212.186 96.3355 202.064 83.8486 189.248C70.7609 175.738 61.7209 158.83 57.7543 140.442C55.4782 129.239 55.2029 117.721 56.9411 106.422C61.2239 80.2116 76.042 63.0391 92.5949 48.4697C94.1309 47.0959 95.6669 45.8124 97.7089 44.1675C99.2269 42.9383 101.576 40.1727 103.654 41.203C106.889 42.7937 102.534 45.6317 100.853 46.9693C90.2113 55.4297 80.9135 65.4555 73.2771 76.7048C64.7477 89.4847 58.5674 106.549 60.23 128.71C61.6937 147.998 69.5003 163.561 78.3008 175.943C87.3276 188.766 99.3418 199.196 113.304 206.33C123.767 173.973 146.482 153.908 177.69 142.267C183.636 123.54 195.87 111.122 213.344 103.946C213.236 98.0528 212.314 86.5021 217.645 85.4537C221.548 84.6945 224.205 88.6713 226.066 90.8766C228.244 93.3843 230.174 96.0962 231.831 98.9747C271.894 102.59 309.391 107.561 340.635 119.618C364.019 128.656 382.198 142.394 400.269 157.108C403.299 159.441 406.167 161.977 408.853 164.7C411.509 167.574 413.172 170.954 415.611 174.118C418.665 172.491 423.328 169.725 427.502 171.804C428.518 172.252 429.349 173.034 429.859 174.021C430.369 175.008 430.525 176.139 430.303 177.227C429.761 182.939 424.43 188.543 422.063 192.086C404.281 266.234 360.423 314.293 290.489 336.262C278.219 366.594 262.967 392.624 242.276 414.695C235.617 422.167 227.853 428.574 219.253 433.693C214.391 436.527 208.995 438.324 203.405 438.971C197.414 439.52 191.393 438.314 186.075 435.5C176.823 430.819 169.667 423.425 163.288 416.177C151.903 403.27 141.44 389.063 130.598 375.072C129.278 372.973 127.791 370.984 126.152 369.124C124.875 368.273 123.548 367.501 122.177 366.811C118.484 364.499 115.194 361.599 112.437 358.224C109.021 353.85 107.015 347.686 104.016 342.046C99.6606 333.984 91.7094 330.73 83.0534 326.193C79.4393 324.259 74.018 320.517 78.4273 316.269C74.1807 312.925 76.7287 305.062 81.8969 304.556C82.3668 291.812 101.251 298.573 108.154 301.248C104.54 298.338 95.8476 298.338 95.6127 291.993C95.5358 290.524 95.9959 289.078 96.907 287.924C97.8181 286.769 99.1181 285.986 100.564 285.721C105.064 284.817 109.057 286.896 112.78 288.54C116.24 290.092 119.602 291.855 122.845 293.819C119.358 288.034 124.219 279.918 131.104 283.407C138.784 287.329 143.284 297.687 146.771 306.038C150.366 314.729 155.028 322.938 160.65 330.477C172.396 346.077 185.642 357.592 197.966 369.775C208.961 354.019 219.043 337.645 228.162 320.734C229.301 318.583 230.801 313.703 233.584 314.787C235.879 315.673 233.945 318.872 233.258 320.21C230.548 325.524 227.494 330.893 224.657 335.9C235.499 330.062 249.865 334.364 256.859 340.347C264.449 346.854 268.46 357.357 269.4 369.902C274.943 360.976 279.696 351.583 283.604 341.829C288.225 331.199 291.333 319.972 292.838 308.479C296.091 280.045 283.55 266.307 258.666 263.722C257.04 263.372 255.372 263.263 253.715 263.396C252.35 264.146 251.028 264.973 249.757 265.873C239.843 271.993 228.767 275.988 217.23 277.604C209.098 278.562 201.255 277.604 195.545 274.622C190.936 272.254 184.702 267.662 183.979 260.92C182.949 251.683 189.87 245.88 193.557 241.036C180.763 231.998 166.74 223.647 148 220.068C145.412 219.305 142.755 218.803 140.067 218.567C137.718 218.658 134.537 220.375 132.152 221.224C124.872 223.796 118.229 227.902 112.672 233.263C105.443 240.494 101.251 249.857 97.98 260.522C99.1907 261.498 101.377 261.516 102.425 262.655C103.925 261.444 106.04 259.835 108.208 258.208C109.202 257.431 112.834 253.545 114.479 256.057C116.123 258.57 112.22 260.36 111.172 261.173C85.8626 280.993 62.1804 302.809 40.352 326.41C39.8743 325.037 39.2693 323.712 38.5449 322.451C57.089 302.009 77.2095 283.055 98.7209 265.764C50.1284 245.88 11.7459 217.862 2.15025 159.747C-3.07222 128.186 1.6262 94.9979 11.7278 72.3846C18.3417 57.562 27.2145 45.7402 40.1171 37.3708C42.783 35.917 45.3707 34.3241 47.8695 32.5987C51.3581 29.688 55.0544 27.0358 58.9289 24.6632C60.2119 23.9221 61.8563 23.3798 63.0671 22.5122C64.2778 21.6445 64.8742 20.7045 65.7054 19.873C68.5838 17.3985 71.6806 15.1902 74.9577 13.2752C79.2224 10.7264 83.9931 7.85232 90.1372 7.49079C91.1311 7.49079 92.6491 6.17123 93.7514 5.68317C98.9016 3.36941 109.871 0.0072248 116.033 4.02015C117.298 4.82542 118.233 6.05628 118.671 7.49079C120.46 14.3236 113.304 18.7161 105.823 18.3908ZM99.0461 8.32228C100.377 8.79443 101.587 9.55679 102.587 10.5541C103.587 11.5514 104.353 12.7587 104.829 14.0886C109.816 14.0886 114.388 13.5283 114.569 8.66574C111.623 5.15894 102.805 6.49658 99.0461 8.32228ZM101.359 18.3908C101.469 17.1841 101.214 15.9724 100.627 14.9122C100.041 13.852 99.1504 12.9921 98.0703 12.4437C90.9504 8.82845 80.3609 15.0467 76.3853 17.3966C83.1438 15.8059 92.6491 16.1312 94.5465 21.8614C97.221 21.048 100.853 20.9214 101.359 18.3908ZM82.5475 30.285C84.9147 29.7607 89.1614 29.9054 90.4625 28.4773C90.9244 27.6096 91.1523 26.6365 91.1238 25.6539C91.0953 24.6713 90.8113 23.7131 90.2999 22.8737C88.8542 20.9757 85.3665 20.6503 82.0415 20.8853C73.7289 21.4999 65.9404 25.6755 60.5914 28.8027C66.862 27.7543 72.2832 29.5438 75.283 32.7795C77.6223 31.7255 80.0542 30.8904 82.5475 30.285ZM414.527 178.402C411.708 177.841 409.413 172.238 407.299 169.49C404.862 166.541 402.098 163.878 399.058 161.555C380.988 146.805 362.826 132.85 339.425 123.739C309.825 112.225 274.894 107.579 237.722 103.765C235.174 103.512 231.975 103.765 230.132 103.096C229.102 102.735 228.325 101.09 227.494 99.8062C225.036 96.191 222.271 91.9431 218.91 89.9004C216.904 93.8591 217.826 101.523 217.591 106.169C215.924 107.551 214.02 108.616 211.971 109.314C202.079 113.556 193.768 120.795 188.208 130.012C185.676 133.705 183.726 137.766 182.425 142.05C182.374 143.008 182.204 143.955 181.919 144.87C181.431 145.702 178.196 146.678 176.498 147.347C163.728 152.278 151.932 159.432 141.657 168.478C129.965 179.143 123.098 192.321 117.551 208.246C125.127 211.326 133.063 213.434 141.169 214.518C149.387 215.672 157.464 217.665 165.276 220.465C178.077 225.555 190.083 232.452 200.93 240.946C201.454 241.343 202.032 242.319 202.917 242.103C203.713 239.861 204.345 237.493 205.05 235.161C194.388 230.154 186.726 222.201 186.726 207.74C186.891 198.836 189.773 190.195 194.984 182.975C198.496 178.282 202.602 174.065 207.2 170.43C208.736 169.183 213.543 164.899 213.977 169.111C214.176 171.099 211.754 172.202 210.67 173.069C201.634 180.3 192.093 190.386 191.189 205.263C190.412 218.152 195.996 225.147 203.731 229.702C209.152 232.956 217.464 234.565 226.843 233.679C229.861 233.39 233.547 232.414 233.62 235.161C233.62 237.168 231.361 237.493 228.994 237.8C222.362 238.684 215.626 238.347 209.116 236.806C207.309 243.151 205.122 249.658 203.17 256.13C202.628 257.937 202.213 261.553 199.863 261.408C196.629 261.227 198.598 256.708 199.195 254.81C200.098 251.936 200.695 249.55 201.508 247.055C200.288 245.774 198.902 244.662 197.388 243.747C195.194 245.765 193.252 248.041 191.605 250.526C189.555 253.229 188.456 256.533 188.479 259.926C188.894 265.547 194.569 269.56 199.321 271.495C214.971 277.803 234.596 269.072 244.715 263.722C240.469 264.156 236.547 264.174 235.3 261.245C234.361 259.022 235.3 255.624 235.969 253.491C237.686 248.068 239.113 245.176 240.92 239.445C241.535 237.457 242.511 233.064 243.559 232.522C244.607 231.98 247.408 232.612 249.504 232.685C253.517 232.826 257.513 232.092 261.214 230.534C263.021 229.865 267.846 226.918 267.828 230.859C267.828 232.667 265.641 233.336 264.033 234.004C258.42 236.433 252.284 237.397 246.197 236.806C244.498 244.977 240.523 250.833 239.258 259.438C244.806 259.564 250.1 258.787 255.269 259.112C271.261 260.07 283.911 265.24 290.941 274.965C301.042 288.938 298.169 314.896 292.26 331.11C326.468 319.74 353.43 302.73 374.464 279.087C393.023 258.227 405.998 232.088 415.087 202.136C416.352 197.924 417.093 193.098 419.045 189.248C421.213 185.018 425.948 181.728 425.984 175.708C421.286 173.865 419.189 179.342 414.527 178.402ZM211.14 383.332C212.26 384.471 214.32 385.863 214.121 387.472C214.014 387.893 213.785 388.273 213.464 388.565C213.143 388.857 212.743 389.049 212.314 389.117C210.146 389.37 207.363 385.501 205.881 384.001C203.821 381.94 201.743 379.699 200.098 378.054C180.365 358.315 159.385 341.522 146.121 315.131C142.326 307.593 139.543 298.555 134.23 292.011C132.965 290.457 129.224 285.522 127.128 287.058C124.11 289.3 127.49 292.825 129.441 295.319C130.905 297.127 132.333 299.603 133.399 300.941C134.465 302.278 137.013 302.748 136.706 305.062C136.272 308.967 132.098 305.297 130.923 304.411C127.042 301.435 122.96 298.729 118.707 296.313C114.27 293.657 109.5 291.602 104.522 290.203C102.715 289.824 99.6786 289.715 99.8955 291.848C100.058 293.656 104.377 294.686 105.516 295.156C109.642 296.779 113.443 299.13 116.738 302.098C118.177 303.683 119.723 305.169 121.364 306.544C122.864 307.484 127.707 307.972 127.472 310.847C127.413 311.257 127.242 311.644 126.977 311.963C126.713 312.282 126.364 312.521 125.972 312.654C123.93 313.106 120.749 310.847 118.057 309.672C115.364 308.497 112.202 307.304 110.124 306.526C104.702 304.466 98.5944 301.845 93.1189 301.411C90.5167 301.212 86.0532 300.977 86.3604 304.231C95.8752 305.594 105.118 308.436 113.756 312.654C115.328 313.359 120.984 315.022 120.695 317.77C120.297 321.222 116.34 318.475 114.912 317.77C107.223 313.785 98.9916 310.947 90.4806 309.346C87.6615 308.804 80.5778 307.539 80.5778 311.316C80.5778 312.726 81.4451 313.215 82.5655 313.793C89.9023 313.088 95.4501 315.962 101.703 318.421C103.889 319.27 106.69 320.481 108.931 321.403C111.172 322.325 115.274 323.084 115.22 325.362C115.111 329.537 108.461 325.778 106.636 325.036C104.016 323.97 101.937 323.229 99.6967 322.379C93.6972 320.065 86.3062 315.727 81.2102 319.577C85.7641 323.41 91.366 325.416 96.2271 328.326C101.244 331.094 105.326 335.291 107.955 340.383C110.72 345.806 112.563 351.392 116.195 355.911C118.892 359.192 122.132 361.986 125.773 364.172C127.181 364.724 128.516 365.446 129.749 366.323C130.309 366.919 130.616 368.13 131.23 368.962C135.459 374.692 139.959 380.422 144.259 385.971C154.451 399.095 163.595 411.965 175.793 422.955C181.467 428.071 188.858 434.163 198.255 434.85C208.013 435.555 215.802 431.09 221.747 427.077C227.876 422.956 233.478 418.099 238.427 412.616C247.272 403.081 255.277 392.8 262.352 381.886C263.569 380.38 264.572 378.713 265.334 376.933C265.93 373.969 265.117 369.703 264.665 366.539C264.277 363.403 263.618 360.307 262.696 357.284C259.082 346.439 251.112 338.033 237.921 337.401C231 337.111 226.428 340.22 220.753 342.516C216.109 350.307 211.23 358.08 206.297 365.31C204.786 367.891 202.965 370.276 200.875 372.414C204.14 376.042 207.562 379.681 211.14 383.332Z" fill="black"/>
<path fill-rule="evenodd" clip-rule="evenodd" d="M228.289 119.292C225.452 122.094 223.157 126.993 221.368 131.675C220.736 133.302 220.483 135.29 218.892 135.471C216.688 135.778 215.567 133.428 214.592 132.163C213.461 130.745 212.417 129.26 211.465 127.716C210.923 132.322 210.923 136.975 211.465 141.58C211.664 144.039 213.164 149.028 209.478 148.522C206.604 148.124 206.64 137.423 206.677 134.061C206.677 129.487 207.074 121.263 210.959 121.172C214.845 121.082 215.369 127.589 217.573 129.271C218.892 126.523 220.194 123.685 221.856 120.847C223.229 118.533 225.127 114.683 228.47 114.737C231.47 114.737 232.861 118.606 234.578 120.16C237.99 123.046 241.762 125.476 245.8 127.391C249.814 129.69 254.053 131.574 258.45 133.012C261.648 133.844 264.865 133.97 267.864 134.657C288.7 139.466 304.675 148.594 313.421 165.875C316.243 171.233 317.824 177.158 318.047 183.21C318.698 200.401 309.283 211.68 300.88 220.863C299.832 222.02 296.453 225.744 294.609 225.491C294.23 225.407 293.88 225.226 293.591 224.967C293.303 224.707 293.087 224.377 292.965 224.008C292.567 222.363 294.429 220.935 295.928 219.543C299.774 215.976 303.205 211.986 306.157 207.649C310.74 201.207 313.38 193.585 313.764 185.687C313.918 177.602 311.487 169.679 306.825 163.073C302.849 156.998 297.54 151.91 291.302 148.196C298.693 156.023 307.096 165.242 306.157 182.216C305.542 193.333 300.735 201.919 295.766 209.475C294.483 211.409 292.26 216.29 289.821 216.073C289.414 216.01 289.032 215.84 288.714 215.579C288.396 215.318 288.154 214.977 288.013 214.59C287.526 212.476 291.284 208.716 292.314 207.161C296.705 200.581 301.35 191.778 301.892 182.053C302.166 177.245 301.474 172.431 299.857 167.895C298.24 163.359 295.73 159.193 292.477 155.644C282.574 144.129 266.148 141.183 251.203 134.657C242.258 130.717 233.711 126.541 228.289 119.292Z" fill="black"/>
<path fill-rule="evenodd" clip-rule="evenodd" d="M229.807 150.998C228.416 152.806 227.259 154.83 225.994 156.783C231.94 161.5 233.801 173.413 229.97 181.222C226.699 187.874 220.013 191.959 209.821 191.453C208.466 193.26 211.628 199.009 207.508 198.882C203.388 198.756 205.701 189.013 207.02 188.036C208.339 187.06 211.05 187.368 213.453 187.205C222.037 186.645 227.747 180.661 227.91 172.346C227.91 165.803 225.488 158.717 217.844 159.132C216.037 159.241 212.423 160.759 212.224 157.65C212.116 154.035 218.947 154.758 221.964 155.174C223.916 153.366 226.464 146.027 229.193 145.756C231.343 145.557 234.108 149.01 235.626 150.058C241.969 154.433 251.763 155.752 259.407 158.319C264.466 159.897 269.211 162.344 273.43 165.55C277.514 168.767 282.466 173.738 282.845 180.246C283.243 187.151 279.827 192.357 276.737 196.749C274.477 200.046 271.938 203.143 269.147 206.004C268.135 207.016 266.762 208.264 265.678 208.155C265.225 208.082 264.807 207.867 264.483 207.543C264.159 207.219 263.944 206.8 263.871 206.348C263.654 204.667 266.816 202.082 268.154 200.563C269.754 198.851 271.245 197.04 272.617 195.14C275.472 191.055 279.665 185 278.219 178.962C277.153 174.425 273.358 170.792 269.798 168.225C265.846 165.544 261.507 163.483 256.932 162.115C247.011 158.934 236.62 157.524 229.807 150.998Z" fill="black"/>
<path fill-rule="evenodd" clip-rule="evenodd" d="M247.3 168.821C258.323 167.918 264.196 173.485 268.262 180.716C269.599 183.066 272.942 188.76 268.768 188.814C266.69 188.814 265.569 184.638 264.955 183.517C261.774 177.697 257.727 172.491 248.456 172.961C246.902 172.961 243.035 174.1 243.035 171.298C242.927 169.056 244.932 169.02 247.3 168.821Z" fill="black"/>
<path fill-rule="evenodd" clip-rule="evenodd" d="M226.988 209.547C228.578 209.222 229.934 209.547 229.97 211.355C229.97 214.283 223.302 215.91 219.561 215.657C217.085 215.476 210.959 214.265 210.815 211.698C210.616 208.228 214.664 210.162 216.435 210.704C219.847 211.679 223.502 211.324 226.663 209.71C226.759 209.634 226.87 209.579 226.988 209.547Z" fill="black"/>
<path fill-rule="evenodd" clip-rule="evenodd" d="M114.949 2.30293L164.824 19.0054C166.74 19.638 167.047 25.6032 165.421 26.9408L91.9806 88.2013C91.0809 88.8921 90.0346 89.3671 88.9223 89.5896C87.8101 89.8121 86.6617 89.7763 85.5655 89.4847L35.6899 72.7822C33.7744 72.1496 33.4853 66.1483 35.1117 64.7925L108.552 3.58633C109.452 2.90422 110.496 2.4345 111.603 2.21227C112.711 1.99003 113.855 2.02103 114.949 2.30293Z" fill="#353535"/>
<path d="M87.3363 91.6539C86.5274 91.6557 85.723 91.5338 84.951 91.2924L35.0754 74.5899C34.0996 74.2645 32.8527 73.3065 32.3286 70.577C32.0034 68.7693 31.8949 64.9914 33.8827 63.3465L107.305 2.15833C108.454 1.26001 109.799 0.6447 111.231 0.362099C112.662 0.0794994 114.14 0.137514 115.545 0.531454L165.42 17.2159C166.378 17.5412 167.643 18.4993 168.149 21.2288C168.492 23.0364 168.601 26.7782 166.613 28.4593L93.1732 89.7197C91.4975 90.9972 89.4431 91.678 87.3363 91.6539ZM36.4488 71.0289L86.1617 87.6771C86.9493 87.8599 87.7671 87.8706 88.5593 87.7084C89.3514 87.5462 90.0992 87.2149 90.7517 86.7371L164.192 25.4948C164.731 23.9464 164.679 22.2534 164.047 20.7407L114.443 4.11057C113.655 3.92653 112.837 3.91524 112.045 4.0775C111.252 4.23976 110.504 4.5717 109.853 5.05052L36.4126 66.2567C35.8451 67.8003 35.8644 69.4986 36.4669 71.0289H36.4488Z" fill="black"/>
<path fill-rule="evenodd" clip-rule="evenodd" d="M116.701 21.8615C120.659 21.8615 123.93 23.6691 123.93 25.8382C123.93 28.0074 120.713 29.7969 116.701 29.7969C112.69 29.7969 109.473 27.9893 109.473 25.8382C109.473 23.6871 112.726 21.8615 116.701 21.8615Z" fill="#959595"/>
<path fill-rule="evenodd" clip-rule="evenodd" d="M105.245 4.07446C106.184 4.07446 116.702 6.37016 116.702 6.37016C116.873 7.72045 116.873 9.08702 116.702 10.4373C116.358 11.6665 115.563 14.0526 114.461 14.5045C112.428 15.1773 110.343 15.6792 108.226 16.0048C106.726 16.2759 104.16 16.5471 104.16 16.5471L102.263 20.1623C102.263 20.1623 101.793 23.0003 100.257 23.2714C98.721 23.5426 96.6429 22.1869 95.7574 23.2714C94.872 24.356 93.4624 24.5006 93.3178 25.296C93.3044 26.5306 93.0782 27.7536 92.6492 28.9113C89.9641 30.2786 87.2005 31.4858 84.3728 32.5265C83.5596 32.9423 80.3068 33.2134 79.2226 33.7557C78.1383 34.298 75.6084 35.3825 75.6084 35.3825L74.1266 40.5343L70.1872 42.7034C70.1872 42.7034 64.6394 44.3303 62.9588 44.6014C60.479 44.7407 57.9934 44.7407 55.5136 44.6014L53.7065 39.8474L71.2533 25.8383L80.6321 16.6917C80.6321 16.6917 96.1188 6.099 97.7452 5.84593C99.3716 5.59286 105.245 4.07446 105.245 4.07446Z" fill="#F5F5F5"/>
<path fill-rule="evenodd" clip-rule="evenodd" d="M118.689 7.49079C118.252 6.05628 117.316 4.82542 116.051 4.02015C109.889 0.0072248 98.9199 3.36941 93.7697 5.68317C92.6493 6.17123 91.1314 7.49079 90.1555 7.49079C84.1018 7.88847 79.313 10.7264 74.976 13.2752C71.6989 15.1902 68.6021 17.3985 65.7238 19.873C64.8021 20.6684 64.0251 21.8433 63.0854 22.5122C62.1457 23.181 60.2302 23.9221 58.9472 24.6632C55.0727 27.0358 51.3764 29.688 47.8878 32.5987C45.389 34.3241 42.8013 35.917 40.1354 37.3708C38.7982 38.2385 37.5151 39.1785 36.2683 40.0823C36.5528 42.1727 36.272 44.3012 35.4551 46.2463C39.7683 42.7604 44.4315 39.7315 49.3696 37.2082C53.9235 34.7317 62.3084 31.3153 68.5247 33.4121C69.9523 33.9002 73.946 36.3766 72.9882 39.0339C72.4461 40.6788 66.8984 41.203 64.5672 41.673C58.8146 42.5927 53.2928 44.6118 48.3035 47.6201C46.4964 48.6323 42.1052 50.6207 42.8822 53.2418C43.4424 55.1579 46.2253 54.1095 46.8578 53.7299C50.6534 51.1503 54.7496 49.0439 59.0556 47.4574C66.1032 45.1798 78.5541 46.2824 77.1265 36.6116C83.3428 32.9964 95.9201 35.9247 95.631 25.8743C101.052 25.4044 104.775 23.2533 105.859 18.445C113.304 18.7161 120.46 14.3236 118.689 7.49079ZM90.4627 28.4593C89.1616 29.9054 84.915 29.7608 82.5477 30.2669C80.0674 30.8686 77.6477 31.6976 75.3194 32.7433C72.3196 29.5077 66.8984 27.7181 60.6278 28.7666C66.049 25.6394 73.7653 21.536 82.0779 20.8491C85.4029 20.6142 88.8906 20.8492 90.3363 22.8375C90.8454 23.6823 91.1249 24.6454 91.1471 25.6316C91.1693 26.6177 90.9334 27.5925 90.4627 28.4593ZM101.305 18.3908C100.799 20.9214 97.167 21.048 94.5468 21.8614C92.7578 16.1312 83.1983 15.8059 76.494 17.3966C80.4154 15.0467 90.9507 8.8646 98.179 12.4437C99.2389 13.0078 100.107 13.8744 100.674 14.9333C101.24 15.9923 101.479 17.1957 101.359 18.3908H101.305ZM104.775 14.0886C104.299 12.7587 103.533 11.5514 102.533 10.5541C101.533 9.55679 100.323 8.79443 98.9922 8.32228C102.751 6.51466 111.642 5.15895 114.515 8.64767C114.443 13.5283 109.817 14.0344 104.829 14.0886H104.775Z" fill="black"/>
</g>
<defs>
<clipPath id="clip0_137_2866">
<rect width="530" height="439" fill="white" transform="translate(0 0.151855)"/>
</clipPath>
</defs>
</svg>
