<svg width="212" height="148" viewBox="0 0 212 148" fill="none" xmlns="http://www.w3.org/2000/svg">
<g clip-path="url(#clip0_145_1821)">
<path fill-rule="evenodd" clip-rule="evenodd" d="M106 148H53C38.9437 148 25.4633 144.101 15.524 137.162C5.58473 130.224 0.000614922 120.813 0 111L0 37C0.000614922 27.1871 5.58473 17.7763 15.524 10.8375C25.4633 3.89877 38.9437 0.000429285 53 0L159 0C173.056 0 186.537 3.8982 196.477 10.837C206.416 17.7759 212 27.187 212 37V111C212 120.813 206.416 130.224 196.477 137.163C186.537 144.102 173.056 148 159 148H139.125C139.125 144.933 137.38 141.992 134.274 139.824C131.168 137.656 126.955 136.438 122.562 136.438C118.17 136.438 113.957 137.656 110.851 139.824C107.745 141.992 106 144.933 106 148Z" fill="#3764B9"/>
<path fill-rule="evenodd" clip-rule="evenodd" d="M99.375 41.625H159C166.643 41.6247 173.994 39.5753 179.534 35.9002C185.075 32.2251 188.382 27.2048 188.774 21.8763C189.165 16.5477 186.61 11.3177 181.636 7.26648C176.662 3.21523 169.65 0.652083 162.048 0.106375C161.034 0.0670625 160.03 0 159 0H53C38.9437 0.000429285 25.4633 3.89877 15.524 10.8375C5.58473 17.7763 0.000614922 27.1871 0 37L0 111C0.000614945 92.6007 10.4706 74.9552 29.1069 61.9449C47.7432 48.9347 73.0193 41.6254 99.375 41.625Z" fill="#507DD2"/>
<path fill-rule="evenodd" clip-rule="evenodd" d="M159 74C148.518 74 138.271 76.17 129.555 80.2356C120.839 84.3012 114.046 90.0798 110.034 96.8407C106.023 103.602 104.973 111.041 107.018 118.218C109.063 125.396 114.111 131.988 121.523 137.163C128.936 142.337 138.379 145.861 148.66 147.289C158.941 148.717 169.598 147.984 179.282 145.184C188.967 142.383 197.244 137.641 203.068 131.556C208.892 125.471 212 118.318 212 111V37C212 46.813 206.416 56.2241 196.477 63.163C186.537 70.1018 173.056 74 159 74Z" fill="#1E4BA0"/>
<path fill-rule="evenodd" clip-rule="evenodd" d="M172.25 41.625C172.25 42.8516 171.552 44.028 170.31 44.8954C169.067 45.7627 167.382 46.25 165.625 46.25H145.75C143.993 46.25 142.308 46.7373 141.065 47.6046C139.823 48.472 139.125 49.6484 139.125 50.875V69.375H164.168C165.148 69.375 166.116 69.5268 167.001 69.8195C167.887 70.1122 168.669 70.5385 169.291 71.0676C169.912 71.5967 170.358 72.2155 170.595 72.8793C170.833 73.5432 170.856 74.2355 170.664 74.9065C169.434 79.2008 167.763 85.0329 166.689 88.7815C166.389 89.83 165.577 90.7736 164.393 91.4515C163.209 92.1295 161.724 92.5 160.193 92.5H139.125V148H106V92.5H86.125C84.3679 92.5 82.6828 92.0127 81.4404 91.1454C80.198 90.278 79.5 89.1016 79.5 87.875V74C79.5 72.7734 80.198 71.597 81.4404 70.7296C82.6828 69.8623 84.3679 69.375 86.125 69.375H106V50.875C106 43.5152 110.188 36.4569 117.643 31.2528C125.097 26.0487 135.208 23.125 145.75 23.125H165.625C167.382 23.125 169.067 23.6123 170.31 24.4796C171.552 25.347 172.25 26.5234 172.25 27.75V41.625Z" fill="white"/>
</g>
<defs>
<clipPath id="clip0_145_1821">
<rect width="212" height="148" fill="white"/>
</clipPath>
</defs>
</svg>
