<svg width="212" height="151" viewBox="0 0 212 151" fill="none" xmlns="http://www.w3.org/2000/svg">
<g clip-path="url(#clip0_145_1847)">
<path fill-rule="evenodd" clip-rule="evenodd" d="M159 151H53C38.9437 151 25.4633 147.022 15.524 139.943C5.58473 132.863 0.000614922 123.262 0 113.25L0 37.75C0.000614922 27.7382 5.58473 18.1366 15.524 11.0572C25.4633 3.9778 38.9437 0.000437987 53 0L159 0C173.056 0 186.537 3.97722 196.477 11.0567C206.416 18.1362 212 27.7381 212 37.75V113.25C212 123.262 206.416 132.864 196.477 139.943C186.537 147.023 173.056 151 159 151Z" fill="#DEEBF5"/>
<path fill-rule="evenodd" clip-rule="evenodd" d="M99.375 42.4688H159C166.643 42.4684 173.994 40.3775 179.534 36.6279C185.075 32.8783 188.382 27.7563 188.774 22.3197C189.165 16.8831 186.61 11.5472 181.636 7.41378C176.662 3.2804 169.65 0.665301 162.048 0.108531C161.034 0.0684219 160.03 0 159 0H53C38.9437 0.000437987 25.4633 3.9778 15.524 11.0572C5.58473 18.1366 0.000614922 27.7382 0 37.75L0 113.25C0.000614945 94.4778 10.4706 76.4745 29.1069 63.2006C47.7432 49.9266 73.0193 42.4692 99.375 42.4688Z" fill="#F0FAFF"/>
<path fill-rule="evenodd" clip-rule="evenodd" d="M159 75.5C148.518 75.5 138.271 77.714 129.555 81.862C120.839 86.01 114.046 91.9058 110.034 98.8037C106.023 105.702 104.973 113.292 107.018 120.615C109.063 127.937 114.111 134.664 121.523 139.943C128.936 145.223 138.379 148.818 148.66 150.275C158.941 151.731 169.598 150.984 179.282 148.126C188.967 145.269 197.244 140.431 203.068 134.223C208.892 128.015 212 120.716 212 113.25V37.75C212 47.7619 206.416 57.3638 196.477 64.4433C186.537 71.5228 173.056 75.5 159 75.5Z" fill="#CDDCEB"/>
<path d="M172.25 76.6066C172.25 74.7686 172.131 72.9236 171.889 71.0903C171.731 69.9247 170.969 68.8428 169.751 68.0558C168.533 67.2688 166.948 66.8332 165.304 66.834C153.461 66.8246 126.488 66.8246 113.96 66.8246C112.203 66.8246 110.518 67.3217 109.275 68.2067C108.033 69.0916 107.335 70.2918 107.335 71.5433V80.6434C107.336 81.8948 108.034 83.0948 109.276 83.9796C110.518 84.8645 112.203 85.3618 113.96 85.3622H143.839C143.091 88.324 141.509 91.1472 139.187 93.6614C136.866 96.1755 133.853 98.3285 130.33 99.9903V99.995C130.33 101.574 130.767 103.138 131.615 104.596C132.463 106.055 133.707 107.381 135.274 108.497C136.842 109.614 138.703 110.499 140.751 111.103C142.799 111.708 144.994 112.019 147.211 112.018H152.11C164.9 103.636 172.25 91.2536 172.25 76.6066Z" fill="#1E78FF"/>
<path d="M107.335 123.641C123.801 123.971 139.823 119.814 152.133 112.018L130.357 99.9903C125.112 102.381 119.172 103.89 112.986 104.401C106.801 104.912 100.533 104.414 94.6592 102.942C88.785 101.471 83.4586 99.0656 79.0843 95.9092C74.7099 92.7527 71.4026 88.9279 69.4134 84.7252H64.342C59.7263 84.7255 55.2998 86.0316 52.0361 88.3563C48.7723 90.6809 46.9385 93.8337 46.9381 97.1213V97.126C52.5674 105.098 61.196 111.798 71.8608 116.48C82.5256 121.162 94.8071 123.641 107.335 123.641Z" fill="#00B450"/>
<path d="M69.3903 84.7252C66.5581 78.7477 66.5581 72.2735 69.3903 66.2961V66.2914C69.3898 63.0038 67.5561 59.851 64.2923 57.5263C61.0285 55.2016 56.602 53.8955 51.9864 53.8952H46.9381C42.212 60.6034 39.7508 68.0052 39.7508 75.5106C39.7508 83.0161 42.212 90.4178 46.9381 97.126L69.3903 84.7252Z" fill="#FFB400"/>
<path d="M107.335 46.4136C115.032 46.3273 122.573 47.9628 128.896 51.0899C130.151 51.7408 131.691 52.0509 133.238 51.9644C134.786 51.8779 136.239 51.4004 137.336 50.618C140.367 48.5701 144.352 45.7318 147.492 43.4951C148.158 43.0209 148.675 42.4511 149.007 41.8236C149.34 41.1961 149.481 40.5253 149.421 39.8559C149.36 39.1866 149.101 38.5341 148.658 37.9419C148.216 37.3497 147.602 36.8314 146.856 36.4217C135.408 30.4331 121.538 27.2544 107.335 27.364C94.804 27.3629 82.5194 29.8435 71.8538 34.5287C61.1882 39.2139 52.5617 45.9191 46.9381 53.8952L69.3902 66.2961C72.0038 60.573 77.0697 55.5771 83.8758 52.0108C90.6819 48.4445 98.8861 46.487 107.335 46.4136Z" fill="#E60014"/>
</g>
<defs>
<clipPath id="clip0_145_1847">
<rect width="212" height="151" fill="white"/>
</clipPath>
</defs>
</svg>
