<svg width="220" height="156" viewBox="0 0 220 156" fill="none" xmlns="http://www.w3.org/2000/svg">
<g clip-path="url(#clip0_145_1883)" filter="url(#filter0_d_145_1883)">
<path fill-rule="evenodd" clip-rule="evenodd" d="M163 148H57C42.9437 148 29.4633 144.101 19.524 137.162C9.58473 130.224 4.00061 120.813 4 111L4 37C4.00061 27.1871 9.58473 17.7763 19.524 10.8375C29.4633 3.89877 42.9437 0.000429285 57 0L163 0C177.056 0 190.537 3.8982 200.477 10.837C210.416 17.7759 216 27.187 216 37V111C216 120.813 210.416 130.224 200.477 137.163C190.537 144.102 177.056 148 163 148Z" fill="#FF3A55"/>
<path fill-rule="evenodd" clip-rule="evenodd" d="M103.375 41.625H163C170.643 41.6247 177.994 39.5753 183.534 35.9002C189.075 32.2251 192.382 27.2048 192.774 21.8763C193.165 16.5477 190.61 11.3177 185.636 7.26648C180.662 3.21523 173.65 0.652083 166.048 0.106375C165.034 0.0670625 164.03 0 163 0H57C42.9437 0.000429285 29.4633 3.89877 19.524 10.8375C9.58473 17.7763 4.00061 27.1871 4 37L4 111C4.00061 92.6007 14.4706 74.9552 33.1069 61.9449C51.7432 48.9347 77.0193 41.6254 103.375 41.625Z" fill="#FF796C"/>
<path fill-rule="evenodd" clip-rule="evenodd" d="M163 74C152.518 74 142.271 76.17 133.555 80.2356C124.839 84.3012 118.046 90.0798 114.034 96.8407C110.023 103.602 108.973 111.041 111.018 118.218C113.063 125.396 118.111 131.988 125.523 137.163C132.936 142.337 142.379 145.861 152.66 147.289C162.941 148.717 173.598 147.984 183.282 145.184C192.967 142.383 201.244 137.641 207.068 131.556C212.892 125.471 216 118.318 216 111V37C216 46.813 210.416 56.2241 200.477 63.163C190.537 70.1018 177.056 74 163 74Z" fill="#E00047"/>
<path d="M151.406 50.875C155.98 50.875 159.688 48.2866 159.688 45.0938C159.688 41.9009 155.98 39.3125 151.406 39.3125C146.833 39.3125 143.125 41.9009 143.125 45.0938C143.125 48.2866 146.833 50.875 151.406 50.875Z" fill="white"/>
<path fill-rule="evenodd" clip-rule="evenodd" d="M110 55.5C115.241 55.5 120.365 56.585 124.723 58.6178C129.081 60.6506 132.477 63.5399 134.483 66.9204C136.489 70.3008 137.013 74.0205 135.991 77.6092C134.968 81.1978 132.444 84.4942 128.738 87.0815C125.032 89.6687 120.31 91.4307 115.17 92.1445C110.029 92.8584 104.701 92.492 99.8589 91.0918C95.0166 89.6916 90.8779 87.3204 87.9661 84.278C85.0542 81.2357 83.5 77.659 83.5 74C83.5037 69.0943 86.2968 64.3902 91.2657 60.9214C96.2347 57.4525 102.973 55.5026 110 55.5ZM110 46.25C117.862 46.25 125.547 47.8775 132.084 50.9267C138.621 53.9759 143.716 58.3099 146.724 63.3805C149.733 68.4512 150.52 74.0308 148.986 79.4138C147.452 84.7967 143.667 89.7413 138.107 93.6222C132.548 97.5031 125.466 100.146 117.755 101.217C110.044 102.288 102.052 101.738 94.7883 99.6377C87.525 97.5373 81.3169 93.9805 76.9491 89.4171C72.5813 84.8536 70.25 79.4884 70.25 74C70.255 66.6413 74.4445 59.585 81.898 54.3816C89.3515 49.1783 99.4592 46.2535 110 46.25Z" fill="white"/>
<path fill-rule="evenodd" clip-rule="evenodd" d="M176.25 50.875C176.25 44.7419 172.76 38.8599 166.548 34.5232C160.336 30.1864 151.91 27.75 143.125 27.75H76.875C68.0897 27.75 59.6642 30.1864 53.4521 34.5232C47.2399 38.8599 43.75 44.7419 43.75 50.875V97.125C43.75 103.258 47.2399 109.14 53.4521 113.477C59.6642 117.814 68.0897 120.25 76.875 120.25H143.125C151.91 120.25 160.336 117.814 166.548 113.477C172.76 109.14 176.25 103.258 176.25 97.125V50.875ZM189.5 50.875C189.5 42.2886 184.614 34.0539 175.917 27.9824C167.22 21.9109 155.424 18.5 143.125 18.5H76.875C64.5756 18.5 52.7799 21.9109 44.0829 27.9824C35.3859 34.0539 30.5 42.2886 30.5 50.875V97.125C30.5 105.711 35.3859 113.946 44.0829 120.018C52.7799 126.089 64.5756 129.5 76.875 129.5H143.125C155.424 129.5 167.22 126.089 175.917 120.018C184.614 113.946 189.5 105.711 189.5 97.125V50.875Z" fill="white"/>
</g>
<defs>
<filter id="filter0_d_145_1883" x="0" y="0" width="220" height="156" filterUnits="userSpaceOnUse" color-interpolation-filters="sRGB">
<feFlood flood-opacity="0" result="BackgroundImageFix"/>
<feColorMatrix in="SourceAlpha" type="matrix" values="0 0 0 0 0 0 0 0 0 0 0 0 0 0 0 0 0 0 127 0" result="hardAlpha"/>
<feOffset dy="4"/>
<feGaussianBlur stdDeviation="2"/>
<feComposite in2="hardAlpha" operator="out"/>
<feColorMatrix type="matrix" values="0 0 0 0 0 0 0 0 0 0 0 0 0 0 0 0 0 0 0.25 0"/>
<feBlend mode="normal" in2="BackgroundImageFix" result="effect1_dropShadow_145_1883"/>
<feBlend mode="normal" in="SourceGraphic" in2="effect1_dropShadow_145_1883" result="shape"/>
</filter>
<clipPath id="clip0_145_1883">
<rect width="212" height="148" fill="white" transform="translate(4)"/>
</clipPath>
</defs>
</svg>
