<svg width="212" height="148" viewBox="0 0 212 148" fill="none" xmlns="http://www.w3.org/2000/svg">
<g clip-path="url(#clip0_145_1813)">
<path fill-rule="evenodd" clip-rule="evenodd" d="M159 148H53C38.9437 148 25.4633 144.101 15.524 137.162C5.58473 130.224 0.000614922 120.813 0 111L0 37C0.000614922 27.1871 5.58473 17.7763 15.524 10.8375C25.4633 3.89877 38.9437 0.000429285 53 0L159 0C173.056 0 186.537 3.8982 196.477 10.837C206.416 17.7759 212 27.187 212 37V111C212 120.813 206.416 130.224 196.477 137.163C186.537 144.102 173.056 148 159 148Z" fill="#2864B4"/>
<path fill-rule="evenodd" clip-rule="evenodd" d="M99.375 41.625H159C166.643 41.6247 173.994 39.5753 179.534 35.9002C185.075 32.2251 188.382 27.2048 188.774 21.8763C189.165 16.5477 186.61 11.3177 181.636 7.26648C176.662 3.21523 169.65 0.652083 162.048 0.106375C161.034 0.0670625 160.03 0 159 0H53C38.9437 0.000429285 25.4633 3.89877 15.524 10.8375C5.58473 17.7763 0.000614922 27.1871 0 37L0 111C0.000614945 92.6007 10.4706 74.9552 29.1069 61.9449C47.7432 48.9347 73.0193 41.6254 99.375 41.625Z" fill="#417DCD"/>
<path fill-rule="evenodd" clip-rule="evenodd" d="M159 74C148.518 74 138.271 76.17 129.555 80.2356C120.839 84.3012 114.046 90.0798 110.034 96.8407C106.023 103.602 104.973 111.041 107.018 118.218C109.063 125.396 114.111 131.988 121.523 137.163C128.936 142.337 138.379 145.861 148.66 147.289C158.941 148.717 169.598 147.984 179.282 145.184C188.967 142.383 197.244 137.641 203.068 131.556C208.892 125.471 212 118.318 212 111V37C212 46.813 206.416 56.2241 196.477 63.163C186.537 70.1018 173.056 74 159 74Z" fill="#0F4B9B"/>
<path d="M59.625 57.8125H46.375C42.7161 57.8125 39.75 59.8832 39.75 62.4375V115.625C39.75 118.179 42.7161 120.25 46.375 120.25H59.625C63.2839 120.25 66.25 118.179 66.25 115.625V62.4375C66.25 59.8832 63.2839 57.8125 59.625 57.8125Z" fill="white"/>
<path d="M53 48.5625C62.1472 48.5625 69.5625 43.3858 69.5625 37C69.5625 30.6142 62.1472 25.4375 53 25.4375C43.8528 25.4375 36.4375 30.6142 36.4375 37C36.4375 43.3858 43.8528 48.5625 53 48.5625Z" fill="white"/>
<path fill-rule="evenodd" clip-rule="evenodd" d="M112.625 66.23C115.296 62.9701 119.154 60.2608 123.808 58.3766C128.461 56.4923 133.745 55.5 139.125 55.5C155.976 55.5 172.25 62.4375 172.25 80.9375V115.625C172.25 116.232 172.079 116.834 171.746 117.395C171.413 117.956 170.925 118.466 170.31 118.896C169.695 119.325 168.964 119.666 168.161 119.898C167.357 120.131 166.495 120.25 165.625 120.25H152.375C151.505 120.25 150.643 120.131 149.839 119.898C149.036 119.666 148.305 119.325 147.69 118.896C147.075 118.466 146.587 117.956 146.254 117.395C145.921 116.834 145.75 116.232 145.75 115.625V83.25C145.75 80.1834 144.005 77.2425 140.899 75.0741C137.793 72.9057 133.58 71.6875 129.188 71.6875C124.795 71.6875 120.582 72.9057 117.476 75.0741C114.37 77.2425 112.625 80.1834 112.625 83.25V115.625C112.625 116.232 112.454 116.834 112.121 117.395C111.788 117.956 111.3 118.466 110.685 118.896C110.07 119.325 109.339 119.666 108.536 119.898C107.732 120.131 106.87 120.25 106 120.25H92.75C91.8799 120.25 91.0183 120.131 90.2144 119.898C89.4105 119.666 88.6801 119.325 88.0648 118.896C87.4496 118.466 86.9616 117.956 86.6288 117.395C86.2959 116.834 86.1247 116.232 86.125 115.625V62.4375C86.1247 61.8301 86.2959 61.2286 86.6288 60.6674C86.9616 60.1062 87.4496 59.5962 88.0648 59.1667C88.6801 58.7372 89.4105 58.3965 90.2144 58.1642C91.0183 57.9318 91.8799 57.8123 92.75 57.8125H106C106.87 57.8123 107.732 57.9318 108.536 58.1642C109.339 58.3965 110.07 58.7372 110.685 59.1667C111.3 59.5962 111.788 60.1062 112.121 60.6674C112.454 61.2286 112.625 61.8301 112.625 62.4375V66.23Z" fill="white"/>
</g>
<defs>
<clipPath id="clip0_145_1813">
<rect width="212" height="148" fill="white"/>
</clipPath>
</defs>
</svg>
