<svg width="33" height="33" viewBox="0 0 33 33" fill="none" xmlns="http://www.w3.org/2000/svg">
<path d="M30.53 0.872559H3.26124C1.95499 0.872559 0.898743 1.90381 0.898743 3.17881V30.5601C0.898743 31.8351 1.95499 32.8726 3.26124 32.8726H30.53C31.8362 32.8726 32.8987 31.8351 32.8987 30.5663V3.17881C32.8987 1.90381 31.8362 0.872559 30.53 0.872559ZM10.3925 28.1413H5.64249V12.8663H10.3925V28.1413ZM8.01749 10.7851C6.49249 10.7851 5.26124 9.55381 5.26124 8.03506C5.26124 6.51631 6.49249 5.28506 8.01749 5.28506C9.53624 5.28506 10.7675 6.51631 10.7675 8.03506C10.7675 9.54756 9.53624 10.7851 8.01749 10.7851ZM28.1675 28.1413H23.4237V20.7163C23.4237 18.9476 23.3925 16.6663 20.955 16.6663C18.4862 16.6663 18.1112 18.5976 18.1112 20.5913V28.1413H13.3737V12.8663H17.9237V14.9538H17.9862C18.6175 13.7538 20.1675 12.4851 22.4737 12.4851C27.28 12.4851 28.1675 15.6476 28.1675 19.7601V28.1413Z" fill="#1E1E1E"/>
</svg>
