<svg width="475" height="127" viewBox="0 0 475 127" fill="none" xmlns="http://www.w3.org/2000/svg">
<g clip-path="url(#clip0_6_104)">
<path d="M0.323774 59.7925L30.6908 59.9653L30.6155 72.4061L12.5444 72.3084L12.4841 83.0214L27.9726 83.104L27.8973 95.5448L12.4314 95.4622L12.311 116.024L-0.00753021 115.949L0.323774 59.7925Z" fill="#FFCE1E"/>
<path d="M29.3882 87.7618C29.4786 69.2884 38.2882 58.9736 51.179 59.0487C64.0697 59.1239 72.7514 69.6265 72.646 88.0247C72.5406 106.423 63.7384 117.324 50.8477 117.279C37.9569 117.234 29.2828 106.273 29.3882 87.7618ZM60.0414 87.9421C60.1016 77.7475 56.6982 71.8502 51.1112 71.8201C45.5242 71.7901 42.0756 77.6424 41.9928 87.8369C41.91 98.0315 45.336 104.447 50.923 104.477C56.51 104.507 59.9811 98.1517 60.0414 87.9571V87.9421Z" fill="#FFCE1E"/>
<path d="M74.6564 60.2131L86.9749 60.2883L86.7264 104.004L104.346 104.109L104.27 116.55L74.3326 116.377L74.6564 60.2131Z" fill="#FFCE1E"/>
<path d="M106.183 60.401L118.509 60.4686L118.253 104.184L135.872 104.289L135.805 116.73L105.867 116.557L106.183 60.401Z" fill="#FFCE1E"/>
<path d="M132.672 88.3703C132.778 69.8818 141.58 59.5596 154.471 59.6347C167.361 59.7098 176.036 70.2124 175.93 88.6182C175.825 107.024 167.03 117.917 154.132 117.872C141.234 117.827 132.567 106.859 132.672 88.3703ZM163.325 88.5431C163.386 78.3485 159.982 72.4511 154.395 72.4211C148.808 72.391 145.36 78.2433 145.277 88.4454C145.194 98.6475 148.62 105.048 154.207 105.078C159.794 105.108 163.265 98.7376 163.325 88.513V88.5431Z" fill="#FFCE1E"/>
<path d="M173.513 60.7842L186.125 60.8518L188.557 85.4029C189.024 91.2852 189.566 97.16 190.063 103.042H190.349C191.245 97.1751 192.141 91.2176 193.03 85.4329L197.615 60.9194L207.924 60.9795L212.193 85.5081C213.021 91.135 213.849 97.1826 214.67 103.148H214.956C215.491 97.1826 216.101 91.2251 216.635 85.5306L219.354 61.0021L231.1 61.0697L223.043 117.189L207.427 117.098L203.978 94.7861C203.285 90.4664 202.736 85.771 202.329 81.6466H202.043C201.523 85.786 200.996 90.4513 200.251 94.7635L196.689 117.061L181.359 116.971L173.513 60.7842Z" fill="#FFCE1E"/>
<path d="M295.275 99.4814L287.896 103.764C286.901 104.339 285.732 104.542 284.6 104.336C283.469 104.129 282.448 103.527 281.722 102.637C281.386 102.22 281.147 101.734 281.022 101.214C280.896 100.694 280.887 100.153 280.995 99.6297C281.103 99.106 281.325 98.6125 281.646 98.1843C281.967 97.7561 282.378 97.4038 282.851 97.1525L290.23 92.8703C290.704 92.6199 291.117 92.2681 291.438 91.8399C291.76 91.4118 291.983 90.918 292.091 90.3939C292.199 89.8698 292.189 89.3283 292.063 88.8083C291.936 88.2883 291.696 87.8027 291.36 87.3861L286.691 81.3009C286.356 80.8839 286.117 80.3982 285.991 79.8785C285.866 79.3587 285.856 78.8177 285.964 78.294C286.072 77.7704 286.294 77.2768 286.615 76.8486C286.936 76.4205 287.348 76.0681 287.821 75.8168C288.816 75.2408 289.984 75.0378 291.116 75.2444C292.248 75.4509 293.268 76.0535 293.995 76.9437L298.663 83.0288C302.955 88.5881 301.374 95.8753 295.275 99.4814Z" fill="#703917"/>
<path d="M299.416 125.7C297.412 126.848 295.065 127.252 292.791 126.839C290.517 126.427 288.463 125.225 286.992 123.446L261.768 90.5414L276.451 81.902L301.675 114.807C304.536 118.413 303.482 123.296 299.416 125.7Z" fill="#994E23"/>
<path d="M268.469 57.5612L284.131 77.9954L281.496 88.513L255.82 103.538C249.721 107.144 241.287 105.491 237.146 100.007L227.056 86.8602C222.915 81.4512 224.496 74.2391 230.595 70.6331L256.347 55.5328L268.469 57.5612Z" fill="#EE3B8E"/>
<path d="M276.225 67.7032L284.131 77.9955L281.496 88.5131L255.82 103.538C249.721 107.144 241.287 105.491 237.146 100.007L232.177 93.5465L276.225 67.7032Z" fill="#ED247F"/>
<path d="M333.526 17.6696C331.116 17.2188 329.535 15.1153 329.987 13.0118L331.643 5.27382C332.095 3.1703 334.429 1.81803 336.839 2.19366C339.248 2.56929 340.829 4.74792 340.377 6.85144L338.721 14.5894C338.269 16.768 335.935 18.1203 333.526 17.6696Z" fill="#50C4D0"/>
<path d="M363.719 47.1939L354.985 45.6163C352.575 45.1655 350.994 43.062 351.446 40.9585C351.898 38.855 354.232 37.5027 356.642 37.8784L365.376 39.456C367.785 39.9068 369.367 42.0103 368.915 44.1138C368.463 46.2173 366.129 47.6447 363.719 47.1939Z" fill="#50C4D0"/>
<path d="M364.472 15.9416C365.903 17.8197 365.376 20.1487 363.343 21.4258L352.35 27.8866C351.354 28.4626 350.186 28.6655 349.054 28.459C347.923 28.2524 346.902 27.6499 346.175 26.7597C344.745 24.8816 345.272 22.5527 347.305 21.2755L358.298 14.8147C359.289 14.2247 360.462 14.0137 361.597 14.2209C362.733 14.4282 363.754 15.0396 364.472 15.9416Z" fill="#50C4D0"/>
<path d="M310.033 14.4391L345.347 60.4911C346.326 61.8434 345.498 73.563 347.079 74.0889H334.429C315.68 73.9386 296.63 79.573 282.776 87.6866L281.496 88.4379L256.271 55.5328L257.551 54.7816C272.084 46.2172 284.206 33.5961 291.36 17.97L296.254 7.30212L310.033 14.4391Z" fill="#CAE7F9"/>
<path d="M257.25 53.0537C258.681 54.9319 258.154 57.2608 256.121 58.5379L248.742 62.8201C247.747 63.3961 246.578 63.599 245.446 63.3925C244.315 63.1859 243.294 62.5834 242.567 61.6932C241.137 59.8151 241.664 57.4862 243.697 56.209L251.076 51.9269C252.071 51.3509 253.24 51.1479 254.371 51.3545C255.503 51.561 256.524 52.1636 257.25 53.0537Z" fill="#E2E4F3"/>
<path d="M327.728 37.5027L345.422 60.5663C346.401 61.9185 345.573 73.6381 347.154 74.164H334.504C315.756 74.0138 296.706 79.6482 282.851 87.7618L281.571 88.513L268.921 71.9854L327.728 37.5027Z" fill="#B9E0F6"/>
<path d="M257.25 53.0537C258.681 54.9319 258.154 57.2608 256.121 58.5379L248.742 62.8201C247.747 63.396 246.578 63.599 245.446 63.3924C244.315 63.1859 243.294 62.5834 242.567 61.6932L257.25 53.0537Z" fill="#C7C8E5"/>
<path d="M312.367 3.54588L357.846 62.8201C360.632 66.4261 359.578 71.3093 355.512 73.7133C355.027 73.9334 354.523 74.1095 354.006 74.2392C351.795 75.0792 349.347 75.0524 347.154 74.164C345.584 73.6776 344.195 72.7361 343.163 71.4595L297.684 12.1853C296.649 10.7903 296.142 9.07494 296.252 7.34261C296.362 5.61028 297.083 3.97266 298.287 2.71949C298.766 2.16574 299.324 1.68487 299.943 1.29211C301.948 0.14397 304.294 -0.259576 306.568 0.152913C308.842 0.565403 310.896 1.76732 312.367 3.54588Z" fill="#EE3B8E"/>
<path d="M335.031 33.2206L357.771 62.8201C360.557 66.4261 359.503 71.3093 355.437 73.7133C354.952 73.9335 354.448 74.1095 353.931 74.2392C351.719 75.0793 349.271 75.0524 347.079 74.1641C345.509 73.6776 344.12 72.7362 343.088 71.4596L320.349 41.86L335.031 33.2206Z" fill="#ED247F"/>
<path d="M317.661 59.7625H335.882C346.258 59.7625 355.143 63.9094 355.143 77.9053C355.143 91.473 346.258 97.0849 335.882 97.0849H330.401V115.926H317.661V59.7625ZM334.979 85.3052C340.016 85.3052 342.682 82.7133 342.682 77.8752C342.682 73.0372 340.016 71.482 334.979 71.482H330.386V85.3052H334.979ZM333.571 93.1709L342.162 83.3219L357.794 115.896H343.585L333.571 93.1709Z" fill="#FFCE1E"/>
<path d="M357.364 88.791V59.7625H370.105V90.5189C370.105 100.541 372.326 104.169 377.363 104.169C382.4 104.169 384.772 100.541 384.772 90.5189V59.7625H397.076V88.791C397.076 107.978 390.849 116.963 377.363 116.963C363.877 116.963 357.364 107.978 357.364 88.791Z" fill="#FFCE1E"/>
<path d="M397.068 108.925L404.327 98.7301C407.738 101.923 412.037 104.169 415.621 104.169C419.469 104.169 421.103 102.704 421.103 100.195C421.103 97.5206 418.656 96.6567 414.582 94.756L408.558 91.8186C403.371 89.3995 398.853 84.306 398.853 76.1774C398.853 66.5914 406.262 58.7257 416.781 58.7257C419.831 58.7732 422.835 59.4676 425.595 60.7629C428.355 62.0582 430.807 63.9247 432.789 66.2383L426.411 75.5689C423.151 72.8869 420.342 71.5046 416.781 71.5046C413.671 71.5046 411.743 72.8043 411.743 75.306C411.743 77.9879 414.484 78.9345 418.859 80.9253L424.71 83.5998C430.733 86.3644 434.122 91.2025 434.122 98.978C434.122 108.481 427.3 116.956 415.297 116.956C411.876 116.897 408.501 116.156 405.37 114.777C402.24 113.397 399.417 111.408 397.068 108.925Z" fill="#FFCE1E"/>
<path d="M435.146 59.7625H447.886V80.6699H462.26V59.7625H475V115.926H462.26V93.6291H447.886V115.926H435.146V59.7625Z" fill="#FFCE1E"/>
</g>
<defs>
<clipPath id="clip0_6_104">
<rect width="475" height="127" fill="white"/>
</clipPath>
</defs>
</svg>
