<svg width="570" height="466" viewBox="0 0 570 466" fill="none" xmlns="http://www.w3.org/2000/svg">
<path d="M212.141 196.963C211.325 196.963 210.544 196.638 209.967 196.059C209.39 195.48 209.067 194.694 209.067 193.876C209.067 193.057 209.39 192.271 209.967 191.692C210.544 191.113 211.325 190.788 212.141 190.788H212.325C213.141 190.771 213.929 191.081 214.518 191.648C215.106 192.215 215.446 192.995 215.463 193.814C215.478 194.632 215.17 195.425 214.605 196.015C214.04 196.606 213.264 196.947 212.449 196.963H212.183H212.141ZM200.948 195.914C200.743 195.934 200.538 195.934 200.334 195.914H200.128C199.71 195.857 199.309 195.713 198.948 195.493C198.588 195.273 198.277 194.98 198.034 194.635C197.79 194.289 197.62 193.896 197.535 193.481C197.449 193.068 197.449 192.64 197.535 192.225C197.62 191.81 197.791 191.418 198.035 191.072C198.278 190.726 198.589 190.435 198.95 190.215C199.31 189.995 199.711 189.852 200.129 189.795C200.547 189.738 200.973 189.768 201.379 189.882H201.563C202.379 189.964 203.128 190.368 203.647 191.005C204.167 191.641 204.413 192.459 204.331 193.278C204.249 194.097 203.846 194.851 203.212 195.372C202.578 195.892 201.763 196.14 200.948 196.057V195.914ZM223.498 195.563C222.682 195.653 221.864 195.414 221.224 194.9C220.584 194.384 220.175 193.635 220.085 192.816C219.995 191.997 220.233 191.175 220.747 190.532C221.26 189.89 222.006 189.478 222.821 189.388H222.985C223.377 189.293 223.785 189.277 224.182 189.341C224.58 189.405 224.961 189.547 225.304 189.759C225.648 189.971 225.945 190.25 226.181 190.578C226.416 190.907 226.585 191.279 226.676 191.673C226.86 192.467 226.725 193.302 226.298 193.996C225.872 194.69 225.189 195.187 224.4 195.379H224.175C223.959 195.471 223.731 195.533 223.498 195.563ZM190.042 192.414C189.612 192.414 189.185 192.324 188.791 192.146H188.627C188.228 192.006 187.861 191.784 187.55 191.495C187.24 191.205 186.992 190.854 186.824 190.464C186.655 190.074 186.567 189.654 186.568 189.229C186.568 188.804 186.656 188.383 186.826 187.993C186.996 187.603 187.244 187.253 187.555 186.965C187.866 186.676 188.233 186.455 188.633 186.315C189.033 186.175 189.459 186.121 189.88 186.153C190.303 186.186 190.714 186.306 191.088 186.506H191.292C191.924 186.801 192.437 187.302 192.748 187.927C193.059 188.553 193.149 189.266 193.003 189.95C192.858 190.634 192.487 191.248 191.949 191.691C191.411 192.136 190.739 192.383 190.042 192.394V192.414ZM234.343 191.899C233.647 191.888 232.975 191.641 232.437 191.198C231.899 190.754 231.527 190.14 231.381 189.456C231.236 188.773 231.326 188.059 231.637 187.434C231.947 186.808 232.46 186.307 233.092 186.012H233.276C233.649 185.807 234.06 185.682 234.483 185.644C234.907 185.607 235.333 185.658 235.734 185.794C236.137 185.93 236.507 186.148 236.822 186.434C237.137 186.722 237.388 187.07 237.561 187.46C237.734 187.85 237.825 188.271 237.829 188.698C237.831 189.123 237.747 189.547 237.58 189.939C237.412 190.33 237.165 190.683 236.855 190.974C236.545 191.266 236.178 191.49 235.777 191.632H235.593C235.198 191.801 234.772 191.892 234.343 191.899ZM180.14 186.629C179.447 186.631 178.772 186.39 178.234 185.951L178.009 185.785C177.395 185.252 177.015 184.498 176.949 183.686C176.884 182.873 177.139 182.067 177.66 181.442C177.918 181.134 178.234 180.879 178.591 180.694C178.947 180.508 179.336 180.395 179.737 180.361C180.136 180.326 180.538 180.372 180.922 180.494C181.304 180.615 181.658 180.811 181.965 181.072C182.48 181.459 182.861 181.999 183.054 182.616C183.247 183.233 183.242 183.895 183.04 184.509C182.84 185.122 182.451 185.657 181.931 186.037C181.411 186.418 180.784 186.626 180.14 186.629ZM244.408 186.403C243.896 186.407 243.391 186.277 242.942 186.029C242.494 185.781 242.116 185.42 241.845 184.983C241.406 184.301 241.254 183.47 241.422 182.675C241.591 181.88 242.068 181.185 242.748 180.743H242.891C243.571 180.294 244.399 180.136 245.195 180.303C245.991 180.468 246.689 180.945 247.134 181.627C247.581 182.309 247.738 183.143 247.572 183.941C247.407 184.74 246.932 185.441 246.253 185.889L246.069 186.012C245.563 186.296 244.987 186.432 244.408 186.403ZM253.592 179.528C253.147 179.529 252.706 179.432 252.302 179.243C251.899 179.056 251.541 178.78 251.255 178.436C250.731 177.811 250.477 177.003 250.546 176.188C250.615 175.374 251.003 174.62 251.624 174.094H251.768C252.384 173.563 253.186 173.302 253.996 173.366C254.804 173.429 255.555 173.813 256.083 174.432C256.611 175.053 256.871 175.857 256.808 176.67C256.744 177.483 256.361 178.237 255.745 178.766L255.56 178.911C254.998 179.343 254.3 179.562 253.592 179.528ZM512.178 173.352C511.518 173.357 510.874 173.145 510.344 172.75C509.813 172.357 509.423 171.799 509.233 171.165C509.045 170.529 509.065 169.849 509.293 169.227C509.521 168.604 509.943 168.073 510.498 167.712H510.642C510.978 167.49 511.354 167.337 511.75 167.262C512.145 167.186 512.551 167.189 512.945 167.271C513.34 167.355 513.714 167.514 514.046 167.741C514.379 167.968 514.664 168.259 514.885 168.597C515.106 168.934 515.258 169.314 515.334 169.711C515.408 170.107 515.405 170.515 515.323 170.911C515.241 171.306 515.082 171.682 514.856 172.016C514.629 172.35 514.34 172.636 514.004 172.859H513.88C513.384 173.218 512.791 173.417 512.178 173.434V173.352ZM261.915 171.705C261.159 171.713 260.426 171.433 259.865 170.923C259.564 170.655 259.318 170.329 259.143 169.965C258.968 169.601 258.866 169.207 258.843 168.802C258.819 168.399 258.876 167.995 259.009 167.614C259.144 167.232 259.35 166.88 259.62 166.579L259.742 166.456C260.286 165.845 261.049 165.475 261.864 165.429C262.679 165.382 263.479 165.663 264.088 166.209C264.697 166.755 265.066 167.521 265.111 168.34C265.157 169.158 264.878 169.962 264.334 170.573L264.19 170.718C263.901 171.031 263.548 171.281 263.156 171.452C262.764 171.622 262.341 171.708 261.915 171.705ZM521.362 166.621C520.734 166.633 520.117 166.45 519.595 166.097C519.074 165.744 518.674 165.238 518.45 164.648C518.225 164.058 518.187 163.413 518.343 162.8C518.497 162.188 518.835 161.639 519.313 161.228L519.477 161.062C519.781 160.773 520.141 160.549 520.534 160.404C520.927 160.259 521.346 160.197 521.764 160.219C522.183 160.243 522.592 160.353 522.967 160.54C523.342 160.728 523.675 160.991 523.944 161.313C524.215 161.635 524.416 162.009 524.537 162.412C524.658 162.815 524.696 163.238 524.648 163.655C524.6 164.074 524.468 164.478 524.259 164.843C524.05 165.206 523.768 165.525 523.434 165.777H523.31C522.77 166.251 522.081 166.521 521.362 166.538V166.621ZM268.291 162.112C267.775 162.107 267.27 161.972 266.821 161.719C266.371 161.465 265.992 161.103 265.719 160.664C265.444 160.225 265.285 159.725 265.254 159.208C265.225 158.692 265.323 158.175 265.544 157.708V157.522C265.717 157.158 265.961 156.833 266.259 156.564C266.558 156.294 266.907 156.087 267.286 155.953C267.665 155.82 268.066 155.762 268.468 155.784C268.868 155.806 269.261 155.907 269.623 156.081C269.985 156.255 270.31 156.5 270.578 156.801C270.845 157.1 271.052 157.451 271.186 157.831C271.319 158.212 271.376 158.615 271.355 159.016C271.332 159.419 271.232 159.814 271.058 160.178V160.363C270.806 160.885 270.413 161.325 269.924 161.634C269.434 161.944 268.869 162.11 268.291 162.112ZM529.624 158.572C528.865 158.573 528.132 158.287 527.574 157.769C527.275 157.5 527.03 157.173 526.857 156.808C526.684 156.444 526.583 156.048 526.563 155.644C526.541 155.241 526.599 154.837 526.735 154.456C526.87 154.076 527.078 153.725 527.349 153.426L527.492 153.26C528.059 152.76 528.79 152.487 529.544 152.491C530.3 152.497 531.026 152.781 531.587 153.29C532.146 153.799 532.5 154.497 532.581 155.25C532.662 156.004 532.462 156.761 532.023 157.378L531.899 157.522C531.613 157.846 531.264 158.106 530.872 158.287C530.48 158.467 530.055 158.565 529.624 158.572ZM271.919 151.223H271.325C270.92 151.149 270.534 150.995 270.19 150.768C269.845 150.542 269.551 150.247 269.323 149.902C269.095 149.559 268.939 149.172 268.863 148.766C268.788 148.359 268.796 147.942 268.885 147.539V147.312C268.97 146.908 269.134 146.524 269.369 146.185C269.604 145.845 269.903 145.557 270.251 145.336C270.599 145.115 270.989 144.966 271.395 144.9C271.801 144.832 272.215 144.847 272.616 144.945C273.015 145.021 273.395 145.176 273.733 145.401C274.072 145.626 274.363 145.917 274.587 146.256C274.813 146.596 274.968 146.977 275.045 147.377C275.121 147.778 275.119 148.189 275.035 148.589V148.753C274.886 149.466 274.493 150.104 273.923 150.556C273.354 151.008 272.644 151.243 271.919 151.223ZM536.697 149.515C536.104 149.516 535.525 149.336 535.037 149C534.698 148.782 534.406 148.501 534.177 148.169C533.948 147.837 533.786 147.464 533.703 147.069C533.619 146.675 533.614 146.267 533.688 145.871C533.762 145.474 533.913 145.096 534.134 144.759L534.258 144.554C534.734 143.936 535.425 143.521 536.193 143.395C536.961 143.269 537.748 143.44 538.396 143.873C539.043 144.307 539.503 144.97 539.682 145.731C539.861 146.492 539.747 147.292 539.361 147.97L539.259 148.114C538.984 148.546 538.604 148.9 538.156 149.144C537.708 149.389 537.206 149.516 536.697 149.515ZM273.169 139.799C272.358 139.793 271.58 139.465 271.009 138.887C270.437 138.308 270.115 137.526 270.115 136.71V136.463C270.158 135.652 270.513 134.888 271.106 134.335C271.699 133.782 272.483 133.482 273.293 133.499C273.696 133.515 274.093 133.611 274.46 133.781C274.827 133.951 275.157 134.192 275.431 134.491C275.706 134.788 275.919 135.139 276.058 135.519C276.197 135.9 276.261 136.305 276.245 136.71C276.245 137.529 275.92 138.315 275.343 138.894C274.767 139.473 273.985 139.799 273.169 139.799ZM542.109 139.366C541.716 139.37 541.327 139.299 540.961 139.16C540.574 139.009 540.222 138.781 539.926 138.49C539.63 138.199 539.395 137.85 539.236 137.466C539.076 137.081 538.997 136.669 539 136.253C539.005 135.835 539.093 135.424 539.259 135.044V134.837C539.598 134.125 540.196 133.571 540.929 133.287C541.663 133.004 542.477 133.013 543.204 133.313C543.931 133.614 544.516 134.182 544.838 134.902C545.161 135.621 545.197 136.438 544.938 137.183V137.349C544.723 137.932 544.338 138.436 543.834 138.797C543.329 139.157 542.728 139.355 542.109 139.366ZM272.801 128.291C272.033 128.289 271.294 127.998 270.729 127.476C270.163 126.954 269.813 126.24 269.746 125.472V125.245C269.686 124.425 269.953 123.616 270.488 122.995C271.022 122.374 271.78 121.991 272.595 121.93C273.411 121.871 274.216 122.138 274.836 122.674C275.455 123.212 275.836 123.973 275.896 124.792V124.957C275.932 125.368 275.885 125.783 275.757 126.175C275.628 126.569 275.422 126.931 275.15 127.242C274.877 127.551 274.544 127.803 274.173 127.98C273.801 128.156 273.397 128.256 272.985 128.271L272.801 128.291ZM545.245 128.291H544.794C544.396 128.238 544.014 128.106 543.667 127.903C543.322 127.699 543.02 127.429 542.779 127.107C542.538 126.785 542.365 126.418 542.267 126.028C542.17 125.637 542.151 125.23 542.211 124.833C542.304 124.011 542.715 123.259 543.356 122.739C543.996 122.219 544.814 121.973 545.635 122.054C546.032 122.106 546.415 122.238 546.761 122.443C547.107 122.646 547.409 122.916 547.65 123.238C547.89 123.56 548.065 123.927 548.162 124.317C548.259 124.708 548.278 125.114 548.218 125.512C548.131 126.254 547.784 126.941 547.239 127.45C546.695 127.959 545.989 128.257 545.245 128.291ZM545.593 116.866C544.983 116.885 544.38 116.725 543.858 116.407C543.336 116.088 542.917 115.624 542.652 115.071C542.387 114.519 542.289 113.901 542.367 113.292C542.445 112.684 542.697 112.111 543.093 111.644C543.489 111.177 544.01 110.835 544.596 110.66C545.183 110.484 545.806 110.484 546.391 110.657C546.977 110.831 547.501 111.172 547.897 111.638C548.294 112.104 548.548 112.676 548.628 113.285V113.552C548.658 113.955 548.61 114.36 548.484 114.744C548.358 115.128 548.158 115.483 547.895 115.79C547.632 116.096 547.312 116.347 546.952 116.528C546.592 116.709 546.2 116.817 545.799 116.846L545.593 116.866ZM271.469 116.866C270.737 116.865 270.032 116.6 269.478 116.12C268.926 115.641 268.563 114.978 268.455 114.252V114.026C268.399 113.62 268.424 113.208 268.528 112.812C268.632 112.416 268.812 112.045 269.058 111.719C269.305 111.393 269.612 111.119 269.964 110.912C270.317 110.706 270.705 110.571 271.109 110.516C271.925 110.404 272.751 110.622 273.407 111.122C273.731 111.369 274.004 111.679 274.209 112.032C274.415 112.386 274.549 112.776 274.605 113.182V113.346C274.665 113.745 274.647 114.152 274.552 114.544C274.456 114.936 274.284 115.305 274.047 115.63C273.808 115.955 273.509 116.23 273.165 116.438C272.821 116.647 272.44 116.786 272.042 116.846L271.469 116.866ZM543.216 105.627C542.578 105.629 541.955 105.433 541.434 105.064C540.912 104.695 540.517 104.172 540.304 103.568V103.404C540.177 103.021 540.125 102.617 540.152 102.215C540.181 101.812 540.286 101.419 540.466 101.058C540.645 100.696 540.893 100.374 541.196 100.109C541.499 99.844 541.85 99.6415 542.232 99.5131C542.613 99.3847 543.015 99.3329 543.416 99.3606C543.817 99.3884 544.209 99.4952 544.569 99.6748C544.928 99.8545 545.249 100.104 545.513 100.408C545.776 100.712 545.978 101.066 546.106 101.448V101.654C546.359 102.429 546.296 103.274 545.932 104.003C545.567 104.732 544.93 105.286 544.159 105.545C543.85 105.62 543.532 105.648 543.216 105.627ZM269.664 105.483C268.94 105.478 268.242 105.218 267.691 104.747C267.139 104.277 266.771 103.626 266.651 102.91V102.745C266.51 101.942 266.691 101.116 267.157 100.448C267.621 99.7806 268.332 99.3257 269.132 99.1837C269.931 99.0418 270.752 99.2245 271.417 99.6916C272.084 100.159 272.536 100.872 272.677 101.675V101.922C272.808 102.724 272.616 103.546 272.143 104.206C271.669 104.866 270.956 105.31 270.156 105.442C269.995 105.475 269.829 105.489 269.664 105.483ZM538.542 95.1903C538.006 95.1911 537.48 95.0509 537.016 94.7836C536.553 94.5162 536.167 94.1312 535.897 93.667L535.794 93.4816C535.59 93.1343 535.456 92.7498 535.399 92.3503C535.343 91.9507 535.364 91.5439 535.464 91.1529C535.565 90.7621 535.741 90.3947 535.982 90.072C536.223 89.7492 536.524 89.4774 536.871 89.2719C537.217 89.0665 537.599 88.9315 537.998 88.8747C538.396 88.8177 538.801 88.8402 539.19 88.9405C539.579 89.0408 539.944 89.2173 540.266 89.4595C540.588 89.7018 540.859 90.0053 541.063 90.3527L541.187 90.538C541.455 91.006 541.598 91.5368 541.599 92.0772C541.599 92.6176 541.459 93.1489 541.191 93.6178C540.923 94.0866 540.537 94.4766 540.073 94.749C539.607 95.0213 539.08 95.1664 538.542 95.1696V95.1903ZM267.778 94.161C267.051 94.1543 266.35 93.8873 265.802 93.4081C265.253 92.9289 264.892 92.2689 264.785 91.5467V91.3408C264.655 90.5355 264.848 89.7112 265.323 89.0491C265.797 88.387 266.514 87.9415 267.317 87.8105C268.119 87.6793 268.939 87.8736 269.599 88.3504C270.259 88.8272 270.703 89.5474 270.832 90.3527V90.5586C270.957 91.3657 270.761 92.1897 270.285 92.8523C269.808 93.5148 269.092 93.9627 268.291 94.0992L267.778 94.161ZM531.531 86.1328C530.763 86.1154 530.03 85.8064 529.48 85.2682V85.1652C528.896 84.5973 528.558 83.8211 528.539 83.0044C528.52 82.1877 528.821 81.3962 529.378 80.8012C529.661 80.5161 529.996 80.2899 530.365 80.1355C530.734 79.9812 531.131 79.9017 531.531 79.9017C531.931 79.9017 532.327 79.9812 532.696 80.1355C533.065 80.2899 533.401 80.5161 533.683 80.8012C533.98 81.0881 534.217 81.431 534.381 81.8105C534.545 82.1898 534.632 82.598 534.638 83.0115C534.643 83.4249 534.567 83.8354 534.414 84.2193C534.261 84.603 534.033 84.9525 533.745 85.2476C533.45 85.5283 533.102 85.7473 532.722 85.8921C532.342 86.0371 531.937 86.1048 531.531 86.0916V86.1328ZM266.138 82.7362C265.393 82.7323 264.675 82.4566 264.117 81.9606C263.559 81.4645 263.199 80.782 263.104 80.0396V79.8337C263.054 79.4282 263.085 79.0169 263.193 78.623C263.302 78.2293 263.486 77.8609 263.737 77.5387C263.987 77.2167 264.298 76.9472 264.652 76.7458C265.006 76.5444 265.396 76.4151 265.799 76.3651C266.203 76.3151 266.613 76.3454 267.006 76.4543C267.398 76.5633 267.765 76.7488 268.085 77.0002C268.406 77.2515 268.674 77.5639 268.875 77.9194C269.076 78.2748 269.204 78.6665 269.254 79.072V79.2779C269.352 80.0883 269.128 80.9049 268.628 81.5492C268.129 82.1934 267.395 82.6128 266.589 82.7156L266.138 82.7362ZM522.387 79.3602C521.889 79.3623 521.396 79.2422 520.953 79.0103H520.809C520.088 78.6336 519.547 77.9849 519.303 77.2071C519.059 76.4291 519.132 75.5858 519.508 74.8623C519.883 74.139 520.529 73.5948 521.303 73.3497C522.077 73.1046 522.918 73.1785 523.638 73.5552H523.823C524.43 73.8741 524.912 74.3885 525.192 75.0158C525.472 75.643 525.535 76.3467 525.37 77.0139C525.204 77.6812 524.82 78.2732 524.279 78.6949C523.739 79.1167 523.072 79.3438 522.387 79.3396V79.3602ZM511.707 75.2432C511.443 75.2511 511.181 75.2162 510.928 75.1403H510.744C510.354 75.0417 509.989 74.8671 509.667 74.6265C509.345 74.3859 509.073 74.0839 508.868 73.7379C508.662 73.3919 508.527 73.0087 508.469 72.61C508.41 72.2112 508.432 71.8049 508.529 71.4144C508.733 70.6229 509.238 69.9436 509.936 69.5237C510.635 69.1038 511.469 68.9769 512.26 69.1706H512.466C513.2 69.3443 513.843 69.7843 514.274 70.4062C514.704 71.028 514.889 71.7877 514.796 72.539C514.702 73.2902 514.334 73.9799 513.764 74.4753C513.194 74.9707 512.461 75.2369 511.707 75.2226V75.2432ZM454.307 73.514C453.492 73.514 452.71 73.1888 452.132 72.6096C451.557 72.0305 451.232 71.2452 451.232 70.4263C451.232 69.6073 451.557 68.8219 452.132 68.2429C452.71 67.6638 453.492 67.3384 454.307 67.3384H454.532C455.348 67.3384 456.131 67.6638 456.707 68.2429C457.284 68.8219 457.608 69.6073 457.608 70.4263C457.608 71.2452 457.284 72.0305 456.707 72.6096C456.131 73.1888 455.348 73.514 454.532 73.514H454.328H454.307ZM500.351 73.3082H499.838C499.434 73.2676 499.042 73.1476 498.685 72.9549C498.327 72.7624 498.01 72.5008 497.754 72.1854C497.496 71.8701 497.304 71.5069 497.186 71.1167C497.07 70.7266 497.029 70.3172 497.07 69.9117C497.11 69.5062 497.23 69.1126 497.422 68.7534C497.614 68.3944 497.874 68.0768 498.188 67.8187C498.502 67.5606 498.864 67.3672 499.252 67.2495C499.641 67.1318 500.049 67.0921 500.453 67.1327H500.657C501.473 67.1736 502.239 67.5382 502.788 68.1462C503.335 68.7542 503.62 69.5559 503.578 70.3748C503.538 71.1938 503.175 71.9629 502.569 72.5129C501.965 73.0631 501.165 73.3491 500.351 73.3082ZM465.767 73.3082C464.952 73.3218 464.164 73.0096 463.578 72.4402C462.991 71.8708 462.654 71.0908 462.641 70.2719C462.628 69.4529 462.938 68.6621 463.505 68.0733C464.072 67.4847 464.849 67.1463 465.664 67.1327H465.869C466.685 67.1053 467.477 67.4044 468.073 67.9642C468.67 68.524 469.02 69.2985 469.047 70.1174C469.074 70.9364 468.776 71.7326 468.218 72.3311C467.661 72.9294 466.889 73.2809 466.075 73.3082H465.685H465.767ZM443.053 73.3082H442.663C442.26 73.2839 441.864 73.1798 441.501 73.0022C441.137 72.8246 440.812 72.5767 440.544 72.2728C440.001 71.6589 439.724 70.854 439.773 70.0352C439.822 69.2162 440.192 68.4503 440.804 67.906C441.415 67.3617 442.217 67.0835 443.033 67.1327H443.135C443.951 67.1599 444.721 67.5114 445.279 68.1098C445.836 68.7082 446.134 69.5044 446.107 70.3233C446.08 71.1423 445.731 71.9168 445.134 72.4766C444.538 73.0364 443.745 73.3355 442.929 73.3082H443.053ZM477.185 72.8964C476.369 72.8964 475.588 72.5712 475.011 71.9921C474.435 71.413 474.111 70.6277 474.111 69.8087C474.111 68.9898 474.435 68.2044 475.011 67.6253C475.588 67.0462 476.369 66.7209 477.185 66.7209H477.37C478.185 66.6937 478.978 66.9928 479.574 67.5525C480.17 68.1123 480.52 68.8868 480.547 69.7058C480.574 70.5247 480.276 71.321 479.719 71.9193C479.161 72.5177 478.39 72.8692 477.575 72.8964H477.267H477.185ZM488.85 72.7524H488.624C487.808 72.7524 487.027 72.4271 486.45 71.8479C485.873 71.2689 485.55 70.4836 485.55 69.6646C485.55 68.8457 485.873 68.0603 486.45 67.4812C487.027 66.9022 487.808 66.5768 488.624 66.5768H488.83C489.644 66.5768 490.427 66.9022 491.004 67.4812C491.58 68.0603 491.904 68.8457 491.904 69.6646C491.904 70.4836 491.58 71.2689 491.004 71.8479C490.427 72.4271 489.644 72.7524 488.83 72.7524H488.85ZM431.634 71.929C431.451 71.9492 431.265 71.9492 431.08 71.929H430.835C430.035 71.7816 429.328 71.3214 428.866 70.6497C428.405 69.978 428.228 69.1497 428.375 68.3471C428.521 67.5446 428.98 66.8335 429.649 66.3702C430.318 65.9069 431.142 65.7296 431.941 65.877H432.147C432.963 65.9507 433.715 66.3466 434.24 66.9778C434.765 67.609 435.018 68.4237 434.945 69.2426C434.872 70.0616 434.478 70.8176 433.849 71.3446C433.22 71.8716 432.409 72.1262 431.593 72.0525L431.634 71.929ZM265.113 71.2291C264.326 71.2303 263.567 70.9276 262.995 70.3837C262.422 69.8398 262.08 69.0961 262.039 68.306V68.1619C261.989 67.343 262.267 66.538 262.808 65.9243C263.351 65.3104 264.113 64.938 264.929 64.8889C265.744 64.8398 266.545 65.1179 267.157 65.6623C267.768 66.2066 268.139 66.9724 268.187 67.7914V68.0384C268.222 68.8507 267.935 69.6435 267.389 70.2446C266.844 70.8459 266.086 71.207 265.277 71.2496L265.113 71.2291ZM420.585 68.9647C420.22 68.9664 419.857 68.8965 419.519 68.7589H419.335C418.926 68.6416 418.546 68.4407 418.22 68.1688C417.893 67.897 417.625 67.5602 417.434 67.1794C417.244 66.7987 417.133 66.3824 417.109 65.9567C417.087 65.531 417.152 65.1052 417.302 64.7061C417.45 64.3069 417.681 63.9431 417.976 63.6376C418.272 63.3319 418.628 63.0912 419.021 62.9305C419.414 62.7696 419.836 62.6925 420.261 62.7035C420.685 62.7147 421.103 62.8138 421.487 62.995H421.672C422.34 63.2533 422.899 63.7381 423.249 64.3658C423.6 64.9933 423.722 65.7242 423.592 66.4321C423.464 67.14 423.092 67.7806 422.543 68.243C421.995 68.7054 421.301 68.9607 420.585 68.9647ZM410.335 63.7361C409.729 63.7401 409.137 63.5609 408.633 63.2215L408.429 63.0774C408.098 62.8489 407.814 62.5572 407.595 62.219C407.377 61.8807 407.226 61.5024 407.152 61.1058C407.08 60.7091 407.085 60.3018 407.168 59.9073C407.252 59.5126 407.411 59.1384 407.639 58.8059C407.867 58.4734 408.157 58.1892 408.494 57.9693C408.831 57.7497 409.208 57.5986 409.602 57.525C409.998 57.4514 410.404 57.4566 410.796 57.5404C411.189 57.6242 411.561 57.785 411.893 58.0135H412.036C412.709 58.4732 413.173 59.18 413.331 59.9812C413.488 60.7825 413.325 61.6137 412.877 62.2951C412.607 62.7292 412.232 63.0886 411.788 63.3402C411.344 63.5919 410.844 63.728 410.335 63.7361ZM265.051 59.7425H264.867C264.466 59.719 264.073 59.616 263.712 59.4396C263.35 59.2632 263.027 59.0169 262.759 58.7147C262.493 58.4125 262.288 58.0605 262.157 57.6787C262.027 57.297 261.972 56.893 261.997 56.4902V56.2843C262.046 55.4653 262.417 54.6995 263.028 54.1552C263.639 53.6108 264.441 53.3326 265.257 53.3817C266.073 53.4308 266.835 53.8033 267.376 54.4172C267.919 55.0309 268.196 55.8359 268.147 56.6548V56.8606C268.096 57.6363 267.754 58.3639 267.192 58.8981C266.629 59.4324 265.887 59.734 265.113 59.7425H265.051ZM401.766 56.1402C401.334 56.1446 400.906 56.057 400.511 55.8832C400.114 55.7093 399.76 55.4531 399.47 55.1315L399.306 54.9462C399.037 54.6408 398.83 54.285 398.697 53.8993C398.565 53.5137 398.51 53.1056 398.535 52.6984C398.56 52.2913 398.664 51.893 398.842 51.5264C399.02 51.1598 399.268 50.8319 399.572 50.5616C399.876 50.2913 400.23 50.0837 400.615 49.9508C400.999 49.818 401.405 49.7624 401.811 49.7872C402.216 49.8121 402.613 49.9169 402.978 50.0957C403.343 50.2745 403.669 50.5237 403.939 50.8292L404.041 50.9322C404.311 51.2329 404.517 51.5843 404.65 51.9658C404.784 52.3473 404.841 52.7516 404.818 53.1552C404.795 53.5589 404.693 53.954 404.517 54.3179C404.341 54.6818 404.097 55.0073 403.795 55.2756C403.269 55.8001 402.567 56.1083 401.828 56.1402H401.766ZM266.589 48.3589C266.364 48.3791 266.138 48.3791 265.912 48.3589C265.12 48.1772 264.43 47.6875 263.997 46.997C263.562 46.3063 263.418 45.4712 263.597 44.6742V44.5096C263.768 43.7125 264.247 43.0163 264.929 42.5742C265.612 42.1322 266.441 41.9806 267.235 42.1526C268.028 42.3245 268.722 42.806 269.162 43.4913C269.602 44.1766 269.754 45.0093 269.582 45.8064V46.0329C269.415 46.69 269.038 47.2738 268.508 47.6943C267.979 48.1146 267.325 48.3482 266.651 48.3589H266.589ZM394.509 47.2473C394.066 47.246 393.629 47.1498 393.225 46.9652C392.823 46.7806 392.463 46.5119 392.172 46.1769V46.0329C391.902 45.7288 391.696 45.3743 391.563 44.9899C391.43 44.6055 391.374 44.1986 391.398 43.7924C391.446 42.972 391.817 42.2044 392.428 41.6585C393.04 41.1125 393.843 40.8329 394.66 40.8812C395.064 40.9051 395.46 41.0087 395.825 41.1862C396.189 41.3638 396.515 41.6117 396.784 41.9158L396.928 42.0805C397.192 42.3849 397.392 42.7388 397.518 43.1215C397.645 43.5044 397.694 43.9086 397.663 44.3108C397.633 44.7128 397.523 45.1049 397.341 45.4641C397.158 45.8234 396.907 46.1426 396.6 46.4034C396.054 46.9329 395.33 47.2345 394.571 47.2473H394.509ZM386.657 38.8486C385.891 38.8253 385.161 38.5172 384.608 37.984L384.464 37.8399C383.952 37.2554 383.679 36.4984 383.7 35.7205C383.721 34.9425 384.033 34.2011 384.574 33.6444C385.116 33.0877 385.846 32.7567 386.62 32.7179C387.395 32.679 388.155 32.935 388.748 33.4347L388.892 33.5788C389.324 33.9992 389.624 34.5387 389.752 35.1293C389.88 35.7199 389.831 36.3353 389.612 36.8983C389.393 37.4613 389.013 37.9468 388.52 38.2938C388.028 38.6408 387.443 38.8339 386.842 38.8486H386.657ZM270.135 37.4283C269.626 37.4284 269.123 37.3005 268.676 37.0559C268.228 36.8114 267.848 36.4581 267.57 36.0284C267.293 35.5985 267.128 35.1059 267.089 34.5953C267.05 34.0847 267.139 33.5725 267.348 33.1054V32.9201C267.509 32.5429 267.745 32.202 268.04 31.9181C268.336 31.6339 268.685 31.4123 269.067 31.2665C269.45 31.1205 269.858 31.0532 270.267 31.0686C270.675 31.0839 271.077 31.1815 271.447 31.3556C271.82 31.5225 272.155 31.7617 272.435 32.0592C272.714 32.3567 272.933 32.7067 273.078 33.0892C273.223 33.4718 273.291 33.8792 273.278 34.2882C273.266 34.6972 273.174 35.0997 273.005 35.4726V35.6374C272.758 36.1749 272.362 36.6295 271.863 36.9472C271.365 37.2647 270.787 37.4317 270.197 37.4283H270.135ZM378.108 31.2527C377.408 31.2533 376.729 31.0136 376.182 30.5734L376.018 30.4499C375.371 29.9285 374.957 29.1703 374.867 28.3423C374.776 27.5142 375.017 26.684 375.536 26.0343C376.055 25.3847 376.81 24.9687 377.635 24.878C378.46 24.7873 379.286 25.0292 379.934 25.5506L380.098 25.6741C380.587 26.0765 380.939 26.6205 381.109 27.2319C381.28 27.8433 381.258 28.4924 381.047 29.0909C380.836 29.6893 380.448 30.2081 379.932 30.5765C379.418 30.9449 378.803 31.1451 378.17 31.1497L378.108 31.2527ZM275.957 27.6091C275.307 27.6167 274.672 27.4066 274.153 27.0121C273.828 26.7737 273.553 26.4731 273.344 26.1274C273.135 25.7818 272.995 25.398 272.934 24.9981C272.873 24.5982 272.891 24.1902 272.989 23.7974C273.085 23.4048 273.258 23.035 273.498 22.7098L273.62 22.5452C274.105 21.89 274.828 21.4547 275.631 21.3351C276.435 21.2154 277.253 21.4212 277.905 21.907C278.558 22.3929 278.991 23.1192 279.11 23.926C279.229 24.7329 279.025 25.5542 278.54 26.2093L278.438 26.3534C278.151 26.7422 277.777 27.0583 277.345 27.2764C276.916 27.4944 276.439 27.6083 275.957 27.6091ZM368.946 24.4596C368.35 24.4585 367.766 24.2872 367.264 23.9655L367.08 23.8214C366.406 23.3683 365.939 22.6647 365.781 21.8656C365.623 21.0666 365.788 20.2373 366.239 19.5603C366.691 18.8834 367.391 18.414 368.187 18.2558C368.982 18.0975 369.809 18.2632 370.483 18.7163H370.626C371.176 19.0821 371.594 19.6153 371.818 20.2375C372.043 20.8596 372.062 21.5377 371.874 22.1719C371.685 22.806 371.299 23.3626 370.772 23.7596C370.245 24.1568 369.605 24.3732 368.946 24.3773V24.4596ZM283.686 19.0251C283.067 19.0214 282.464 18.8301 281.954 18.4763C281.445 18.1225 281.054 17.6227 280.833 17.0421C280.611 16.4616 280.57 15.8274 280.713 15.2227C280.856 14.6178 281.178 14.0705 281.636 13.6524L281.759 13.5289C282.373 13.0657 283.138 12.8503 283.903 12.9249C284.666 12.9993 285.375 13.3584 285.89 13.9314C286.404 14.5044 286.686 15.2499 286.68 16.021C286.674 16.7923 286.381 17.5335 285.859 18.0988L285.715 18.2429C285.152 18.7367 284.434 19.0138 283.686 19.0251ZM359.085 18.4693C358.584 18.4685 358.09 18.341 357.65 18.0988H357.486C356.825 17.6878 356.343 17.0404 356.139 16.2871C355.933 15.5338 356.02 14.7304 356.381 14.0387C356.742 13.3472 357.351 12.8187 358.085 12.5599C358.819 12.301 359.623 12.331 360.335 12.6437H360.541C361.153 12.9646 361.64 13.4834 361.924 14.1164C362.207 14.7495 362.27 15.4599 362.101 16.1331C361.934 16.8062 361.544 17.4029 360.997 17.8268C360.449 18.2506 359.776 18.4769 359.085 18.4693ZM348.692 13.6318C348.303 13.6383 347.92 13.5611 347.564 13.4054H347.359C346.655 13.0673 346.105 12.473 345.821 11.7432C345.538 11.0134 345.541 10.2025 345.83 9.47486C346.12 8.7472 346.673 8.15721 347.38 7.82443C348.086 7.49165 348.892 7.44097 349.635 7.68266H349.819C350.478 7.95095 351.024 8.44021 351.364 9.06717C351.704 9.69413 351.817 10.4201 351.684 11.1214C351.551 11.8228 351.181 12.4561 350.634 12.9139C350.089 13.3716 349.403 13.6253 348.692 13.6318ZM292.829 12.1497C292.157 12.1274 291.511 11.8847 290.989 11.4585C290.467 11.0323 290.099 10.4461 289.941 9.78979C289.783 9.13348 289.844 8.4432 290.113 7.82468C290.383 7.20616 290.847 6.6935 291.435 6.36522H291.599C291.952 6.17058 292.339 6.0476 292.739 6.00329C293.139 5.959 293.544 5.99425 293.93 6.10703C294.317 6.2198 294.677 6.40791 294.992 6.66059C295.305 6.91328 295.567 7.2256 295.76 7.57974C295.955 7.93386 296.077 8.32287 296.121 8.72453C296.165 9.12618 296.131 9.53264 296.018 9.92066C295.905 10.3087 295.718 10.6707 295.467 10.9861C295.215 11.3014 294.904 11.5639 294.551 11.7585H294.387C293.919 12.0253 293.387 12.1605 292.85 12.1497H292.829ZM337.826 10.0911C337.556 10.0974 337.287 10.0627 337.027 9.9882H336.821C336.037 9.77159 335.369 9.25122 334.967 8.54119C334.563 7.83114 334.456 6.98939 334.67 6.20053C334.902 5.43279 335.425 4.78725 336.127 4.40241C336.829 4.01756 337.651 3.92408 338.421 4.14202H338.605C339.31 4.3475 339.918 4.79921 340.32 5.41559C340.722 6.03197 340.892 6.77237 340.797 7.5031C340.703 8.23382 340.352 8.90668 339.808 9.40017C339.263 9.89366 338.56 10.1752 337.826 10.1941V10.0911ZM303.592 8.25905C302.832 8.26559 302.098 7.98788 301.531 7.4801C300.965 6.97231 300.607 6.27085 300.528 5.51252C300.448 4.75419 300.653 3.99337 301.101 3.37843C301.552 2.76349 302.212 2.33852 302.956 2.18642H303.161C303.932 2.08033 304.715 2.27216 305.352 2.72315C305.988 3.17415 306.43 3.85073 306.589 4.6163C306.747 5.38187 306.611 6.1794 306.206 6.84787C305.803 7.51634 305.162 8.00596 304.411 8.21788H304.247L303.592 8.25905ZM326.612 7.70325H326.019C325.203 7.59952 324.462 7.17471 323.958 6.5223C323.455 5.86988 323.229 5.04329 323.333 4.22436C323.436 3.40543 323.86 2.66124 324.509 2.15552C325.159 1.64981 325.982 1.42396 326.798 1.5277H327.044C327.859 1.58502 328.618 1.96532 329.155 2.58492C329.692 3.20454 329.96 4.01269 329.903 4.83162C329.846 5.65055 329.467 6.41316 328.851 6.9517C328.233 7.49024 327.428 7.76058 326.612 7.70325ZM314.969 7.02394C314.153 7.02394 313.372 6.69862 312.795 6.11956C312.218 5.54048 311.893 4.75509 311.893 3.93617C311.893 3.11723 312.218 2.33184 312.795 1.75278C313.372 1.17371 314.153 0.848389 314.969 0.848389H315.195C316.01 0.848389 316.792 1.17371 317.369 1.75278C317.946 2.33184 318.269 3.11723 318.269 3.93617C318.269 4.75509 317.946 5.54048 317.369 6.11956C316.792 6.69862 316.01 7.02394 315.195 7.02394H314.949H314.969Z" fill="#FFCE1E"/>
<path fill-rule="evenodd" clip-rule="evenodd" d="M113.085 246.162L12.0203 245.813C9.77668 233.208 8.51553 220.448 8.24829 207.647C8.3918 190.849 9.2528 178.827 9.2528 178.827C9.2528 178.827 56.0952 164.069 94.3892 165.695C132.683 167.321 158.328 174.587 158.328 174.587C160.443 184.066 161.767 193.706 162.285 203.407C162.429 215.223 159.518 242.189 159.518 242.189L113.085 246.162Z" fill="#FFCE1E"/>
<path fill-rule="evenodd" clip-rule="evenodd" d="M178.911 146.159C188.074 148.074 192.522 136.978 205.437 101.633C218.353 66.2888 224.318 40.2485 195.742 19.2928C167.164 -1.66287 130.142 24.8714 129.629 47.5357C129.259 65.8977 139.981 87.7591 150.006 106.574C160.994 127.16 174.134 145.171 178.911 146.159Z" fill="white"/>
<path fill-rule="evenodd" clip-rule="evenodd" d="M184.836 140.992C193.978 142.886 198.447 131.811 211.362 96.4461C224.277 61.0807 230.242 35.0816 201.666 14.1054C173.089 -6.87091 136.025 19.7251 135.635 42.3894C135.266 60.7513 145.988 82.5922 156.135 101.428C166.919 121.992 180.08 139.984 184.836 140.992Z" fill="#FFD84D"/>
<path fill-rule="evenodd" clip-rule="evenodd" d="M191.19 79.3605C205.54 76.0463 212.408 63.8598 206.442 45.3538C200.476 26.8478 176.02 29.5032 168.23 36.0287C160.44 42.5542 156.606 60.5456 165.053 69.6237C173.499 78.7018 176.82 82.6747 191.19 79.3605Z" fill="white"/>
<path fill-rule="evenodd" clip-rule="evenodd" d="M472.716 163.245C479.276 165.304 490.388 153.487 498.26 138.398C506.132 123.309 504.635 106.492 486.575 101.716C468.514 96.9401 458.818 116.126 460.047 129.547C461.277 142.969 466.157 161.248 472.716 163.245Z" fill="white"/>
<path fill-rule="evenodd" clip-rule="evenodd" d="M478.661 158.079C485.222 160.136 496.312 148.321 504.204 133.232C512.096 118.143 510.518 101.325 492.519 96.446C474.52 91.5672 464.763 110.856 465.993 124.298C467.222 137.74 472.101 156.081 478.661 158.079Z" fill="#FFD84D"/>
<path fill-rule="evenodd" clip-rule="evenodd" d="M475.934 125.677C474.172 134.529 482.618 140.498 492.561 135.97C494.95 134.942 496.846 133.018 497.846 130.607C498.845 128.196 498.869 125.49 497.91 123.062C494.2 111.494 479.214 109.024 475.934 125.677Z" fill="white"/>
<path fill-rule="evenodd" clip-rule="evenodd" d="M447.768 88.706C452.442 89.056 466.915 66.6181 462.63 55.5021C458.346 44.3861 449.818 43.6244 442.623 46.9593C435.427 50.2941 430.978 57.2519 435.509 68.2238C440.039 79.1957 443.135 88.356 447.768 88.706Z" fill="white"/>
<path fill-rule="evenodd" clip-rule="evenodd" d="M453.713 83.5391C458.387 83.8889 472.839 61.4511 468.554 50.3351C464.27 39.2191 455.763 38.4575 448.568 41.7922C441.371 45.1271 436.923 52.0849 441.433 63.0568C445.943 74.0286 449.039 83.1891 453.713 83.5391Z" fill="#FFD84D"/>
<path fill-rule="evenodd" clip-rule="evenodd" d="M461.441 58.2811C462.712 63.5715 460.724 70.8175 455.496 70.8175C450.269 70.8175 444.241 64.6419 448.567 59.8662C452.892 55.0904 460.17 53.0113 461.441 58.2811Z" fill="white"/>
<path fill-rule="evenodd" clip-rule="evenodd" d="M81.3103 251.123C77.3743 250.423 75.1603 247.006 75.5702 239.39C75.9803 231.773 73.8482 222.056 70.0353 223.291C66.2222 224.526 62.2453 227.738 61.8353 236.219C61.2613 250.299 67.1652 258.081 67.1652 258.081C67.1652 258.081 55.9108 260.633 53.7173 253.964C51.5238 247.294 54.6808 232.823 51.6673 228.335C49.6173 225.206 46.0708 222.86 44.5333 224.342C43.0853 226.301 41.8934 228.439 40.9868 230.702C40.9868 230.702 35.6158 226.174 31.8643 230.105C28.1129 234.038 28.1129 242.848 28.1129 242.848C28.1129 242.848 20.1383 241.407 19.7898 246.821C19.4414 252.234 19.6054 266.397 37.9528 270.802C51.9992 273.962 66.2061 276.353 80.5107 277.965C80.5107 277.965 84.2828 299.148 86.6608 312.961C89.0387 326.773 90.2278 346.679 90.2278 346.679C90.2278 346.679 82.0277 343.53 81.6997 351.043C81.3718 358.557 80.4697 374.058 85.7997 378.875C88.0268 380.672 90.0853 382.67 91.9498 384.845C91.9498 384.845 99.8217 453.002 148.366 451.232C184.117 449.935 198.057 419.427 198.057 419.427L197.258 452.796L393.853 453.824L447.317 454.422C447.317 454.422 451.827 463.851 464.742 463.953C477.656 464.056 484.729 452.631 484.729 452.631C484.729 452.631 519.129 452.281 540.755 444.274C562.383 436.266 569.764 426.611 565.704 408.291C561.645 389.969 534.565 321.832 512.65 290.009C484.689 249.415 452.073 240.603 452.073 240.603L454.656 202.048L360.356 196.285L359.967 165.859C359.967 165.859 377.637 162.916 378.581 152.931C379.524 142.948 375.997 139.613 375.997 139.613C375.997 139.613 388.932 113.655 379.954 94.3257C370.975 74.9962 341.127 46.3416 311.074 52.1878C281.021 58.034 280.18 68.2854 280.18 68.2854C271.661 67.5673 263.081 68.3758 254.842 70.6733C243.137 74.4403 224.974 82.5303 229.095 89.5499C233.215 96.5695 250.19 110.567 250.19 110.567C250.19 110.567 239.816 119.44 244.244 125.286C248.672 131.131 251.768 132.037 251.768 132.037C251.768 132.037 249.185 136.257 255.15 139.799C257.95 141.335 260.599 143.133 263.063 145.171C263.063 145.171 270.935 184.057 289.2 195.666C296.007 199.544 303.745 201.466 311.566 201.224C311.566 201.224 316.65 226.4 309.782 229.056C302.915 231.711 255.006 232.226 233.358 242.189C189.017 262.568 163.269 326.28 163.269 326.28C163.269 326.28 151.872 284.079 144.819 274.384C137.767 264.689 131.494 253.799 123.438 250.917C115.381 248.036 92.9337 250.073 89.7768 250.341C86.6198 250.608 85.2462 251.823 81.3103 251.123Z" fill="white"/>
<path fill-rule="evenodd" clip-rule="evenodd" d="M453.918 373.79L452.524 306.188L461.052 302.606V284.532L447.173 283.73L450.351 248.55C450.351 248.55 488.624 255.425 517.857 310.305C547.091 365.186 563.49 400.283 560.907 418.851C558.325 437.418 547.582 443.43 535.57 446.497C523.556 449.564 485.283 453.042 485.283 453.042C485.283 453.042 493.668 432.561 488.255 413.293C482.843 394.026 483.561 387.644 467.857 376.713C462.794 373.317 453.918 373.79 453.918 373.79Z" fill="#FFD84D"/>
<path fill-rule="evenodd" clip-rule="evenodd" d="M92.0111 385.112C92.0111 385.112 115.709 390.608 135.553 382.744C147.427 378.056 158.164 370.868 167.041 361.666C167.041 361.666 175.241 353.06 171.387 343.777C167.532 334.493 168.025 334.617 168.025 334.617C168.025 334.617 206.852 259.872 232.375 248.735C265.626 234.325 286.022 238.793 286.022 238.793C286.022 238.793 255.273 285.192 247.422 325.086C237.868 373.276 240.492 453.104 240.492 453.104H198.119L197.729 419.715C197.729 419.715 180.304 445.673 163.084 449.131C145.864 452.591 113.577 448.72 101.298 420.106C89.0182 391.493 92.0111 385.112 92.0111 385.112Z" fill="#FFD84D"/>
<path fill-rule="evenodd" clip-rule="evenodd" d="M241.169 453.105C241.169 453.105 233.625 348.842 254.145 300.631C274.666 252.42 291.763 234.429 291.763 234.429L309.782 230.312C309.782 230.312 304.227 243.754 319.295 247.809C342.849 254.046 377.535 236.61 377.535 236.61L395.35 239.204L390.204 371.999C390.204 371.999 378.273 369.652 375.853 362.263C373.434 354.872 373.681 346.988 369.13 350.921C364.579 354.852 358.551 357.734 364.374 367.038C370.196 376.343 375.895 384.021 372.697 386.511C369.499 389.003 349.204 391.637 332.702 392.07C316.199 392.503 296.888 390.011 294.08 392.873C292.73 394.137 291.914 395.874 291.803 397.725C291.693 399.575 292.295 401.398 293.485 402.815C296.027 405.368 301.808 406.583 301.808 406.583C301.271 408.202 301.338 409.961 301.993 411.535C302.649 413.11 303.85 414.392 305.375 415.145C309.508 417.292 313.815 419.083 318.249 420.499C318.249 420.499 321.119 424.779 323.394 427.662C325.177 429.779 327.169 431.711 329.339 433.425C329.339 433.425 332.107 432.334 333.091 436.019C333.942 438.548 335.44 440.805 337.437 442.566C337.437 442.566 356.01 448.947 370.114 450.12C384.218 451.294 446.538 454.114 446.538 454.114L445.144 458.086L241.169 453.105Z" fill="#262626"/>
<path fill-rule="evenodd" clip-rule="evenodd" d="M325.875 125.41C327.159 125.436 328.398 125.889 329.399 126.697C330.4 127.506 331.107 128.623 331.41 129.876L332.394 134.837C332.524 135.392 332.521 135.969 332.388 136.523C332.255 137.076 331.995 137.591 331.628 138.025C331.261 138.459 330.798 138.801 330.277 139.024C329.754 139.246 329.188 139.342 328.622 139.304C327.338 139.277 326.099 138.824 325.097 138.017C324.096 137.208 323.389 136.091 323.087 134.837L322.185 129.876C322.058 129.329 322.058 128.76 322.188 128.213C322.316 127.666 322.569 127.156 322.926 126.723C323.284 126.291 323.735 125.947 324.247 125.719C324.759 125.491 325.316 125.385 325.875 125.41Z" fill="black"/>
<path fill-rule="evenodd" clip-rule="evenodd" d="M282.127 128.477C283.413 128.501 284.653 128.952 285.655 129.761C286.658 130.569 287.363 131.689 287.662 132.943L288.647 137.905C288.776 138.459 288.775 139.037 288.642 139.59C288.509 140.143 288.249 140.658 287.882 141.092C287.515 141.527 287.052 141.868 286.529 142.091C286.007 142.313 285.44 142.409 284.875 142.371C283.59 142.344 282.352 141.891 281.351 141.084C280.35 140.275 279.643 139.158 279.34 137.905L278.356 132.943C278.226 132.389 278.229 131.813 278.361 131.259C278.494 130.705 278.755 130.19 279.121 129.756C279.488 129.322 279.951 128.98 280.473 128.757C280.996 128.535 281.562 128.439 282.127 128.477Z" fill="black"/>
<path fill-rule="evenodd" clip-rule="evenodd" d="M335.694 106.677C329.954 100.707 325.444 94.9434 318.68 90.2089C308.641 82.7976 297.719 76.6774 286.166 71.991C280.242 70.797 262.858 67.8739 252.157 72.6497C239.857 78.1253 238.074 82.4895 241.026 90.1265C243.403 96.3021 256.524 106.018 256.524 106.018C256.524 106.018 278.151 89.5501 298.508 94.6964C318.864 99.8427 338.831 112.873 347.707 123.125L349.511 125.183C348.22 120.181 343.361 115.858 340.348 111.165C339.056 109.271 337.089 108.262 335.694 106.677Z" fill="#FFD84D"/>
<path fill-rule="evenodd" clip-rule="evenodd" d="M381.246 96.6519C373.558 77.7135 347.318 50.6646 321.057 55.4815C295.884 60.1337 288.421 72.4642 288.257 72.3819C288.094 72.2996 287.52 72.1966 286.208 71.9496C297.76 76.636 308.682 82.7563 318.72 90.1674C325.444 94.9227 329.996 100.687 335.736 106.636C337.129 108.221 339.098 109.229 340.287 111.206C343.239 115.899 348.158 120.222 349.45 125.224C353.501 129.99 357.008 135.196 359.905 140.745C359.905 140.745 366.055 137.267 369.417 137.576C370.421 137.651 371.398 137.936 372.284 138.415C373.171 138.894 373.947 139.554 374.562 140.354C374.562 140.354 388.954 115.59 381.246 96.6519Z" fill="#FFCE1E"/>
<path fill-rule="evenodd" clip-rule="evenodd" d="M286.412 96.446C286.412 96.446 297.359 115.24 307.199 115.94C317.04 116.64 318.495 111.823 318.495 111.823C318.495 111.823 321.611 116.99 330.569 120.572C335.503 122.688 340.854 123.637 346.211 123.351C346.211 123.351 335.633 105.853 321.467 101.098C307.302 96.343 286.412 96.446 286.412 96.446Z" fill="#353535"/>
<path fill-rule="evenodd" clip-rule="evenodd" d="M262.059 104.804C262.059 104.804 260.931 115.24 260.685 123.495C260.439 131.75 261.669 144.76 261.669 144.76C261.669 144.76 254.884 142.701 253.756 139.202C253.095 137.204 252.695 135.128 252.567 133.026C252.567 133.026 237.622 128.457 243.854 119.316C250.086 110.177 262.059 104.804 262.059 104.804Z" fill="#353535"/>
<path d="M341.455 285.418C341.14 285.419 340.83 285.355 340.542 285.228C340.254 285.102 339.995 284.916 339.783 284.683C339.571 284.451 339.409 284.177 339.309 283.877C339.208 283.579 339.171 283.261 339.2 282.948L345.923 196.675C345.986 196.093 346.267 195.556 346.707 195.174C347.149 194.792 347.719 194.592 348.302 194.617L454.226 199.578C454.536 199.594 454.839 199.675 455.116 199.813C455.395 199.951 455.642 200.143 455.844 200.38C456.047 200.617 456.199 200.891 456.291 201.19C456.382 201.487 456.412 201.801 456.378 202.11L447.87 282.866C447.814 283.428 447.553 283.95 447.136 284.33C446.72 284.709 446.178 284.921 445.615 284.923L341.475 285.521L341.455 285.418ZM350.29 199.248L343.915 280.807L443.544 280.23L451.601 204.065L350.29 199.248Z" fill="black"/>
<path fill-rule="evenodd" clip-rule="evenodd" d="M271.571 301.824L278.889 302.812L277.7 390.484C277.7 390.484 310.397 392.378 331.164 392.07C351.93 391.761 373.086 390.979 373.148 387.108C373.21 383.239 360.438 369.817 364.026 360.348C367.613 350.879 368.925 350.694 371.159 353.781C373.394 356.869 387.129 372.802 401.254 380.234C415.378 387.665 427.391 389.085 431.142 388.982C434.893 388.879 439.855 388.591 439.855 388.591C439.855 388.591 439.855 380.665 444.611 378.648C449.367 376.63 452.934 375.251 452.934 375.251L451.929 305.262L460.129 303.203L460.334 284.327L272.247 284.718L271.571 301.824Z" fill="white"/>
<path fill-rule="evenodd" clip-rule="evenodd" d="M348.2 196.86L341.455 283.133L445.595 282.536L454.102 201.822L348.2 196.86Z" fill="white"/>
<path fill-rule="evenodd" clip-rule="evenodd" d="M356.318 190.891L349.573 277.163L453.713 276.566L462.22 195.852L356.318 190.891Z" fill="#FFD84D"/>
<path fill-rule="evenodd" clip-rule="evenodd" d="M277.515 295.855L284.834 296.843L283.645 384.494C283.645 384.494 316.445 386.368 337.109 386.08C357.772 385.791 373.086 386.595 373.148 382.745C373.21 378.895 360.438 369.817 364.026 360.266C367.613 350.714 368.925 350.612 371.159 353.699C373.394 356.787 387.129 372.72 401.254 380.151C415.378 387.583 427.391 389.003 431.142 388.9C434.893 388.797 439.855 388.509 439.855 388.509C439.855 388.509 439.855 380.583 444.611 378.566C449.604 375.827 454.368 372.688 458.858 369.179L457.874 299.19L466.075 297.131L466.279 278.254L278.192 278.666L277.515 295.855Z" fill="#FFCE1E"/>
<path fill-rule="evenodd" clip-rule="evenodd" d="M11.8154 193.875C11.8154 193.875 10.5034 217.548 12.0204 217.528C13.5373 217.508 54.1888 217.137 54.1888 217.137L55.6853 193.669L11.8154 193.875Z" fill="#E5DFF2"/>
<path fill-rule="evenodd" clip-rule="evenodd" d="M290.984 317.716C290.984 317.716 288.565 350.652 291.763 352.32C294.961 353.987 348.2 355.305 348.2 355.305L353.735 322.492L290.984 317.716Z" fill="#CCD7F1"/>
<path fill-rule="evenodd" clip-rule="evenodd" d="M356.318 211.558L355.907 239.39L395.104 238.608L396.702 213.35L356.318 211.558Z" fill="white"/>
<path fill-rule="evenodd" clip-rule="evenodd" d="M128.83 55.5228V48.9768C129.528 39.445 133.852 30.5485 140.904 24.1304C147.838 17.8115 156.42 13.6058 165.647 12.0057C189.53 7.57995 206.319 20.5074 214.847 34.6494C220.19 43.6935 222.597 54.1829 221.735 64.6627C220.634 74.7909 218.08 84.7059 214.15 94.0994C209.435 106.183 202.895 120.242 196.93 132.264C195.864 134.323 192.666 143.874 188.731 142.207C185.45 140.767 189.284 135.29 190.103 133.643C194.49 124.915 198.57 115.837 202.404 107.418C207.713 95.705 213.248 83.1687 215.462 69.0472C216.683 62.1664 216.32 55.0962 214.402 48.3779C212.483 41.6594 209.059 35.4707 204.393 30.2854C196.499 21.8455 184.199 14.2701 167.369 17.1726C153.142 19.6017 142.133 27.4652 137.07 38.046C131.063 50.6236 135.841 68.4297 140.842 80.1838C148.427 98.0312 158.8 112.997 168.559 129.588C171.346 134.282 175.528 142.515 180.428 143.483C182.744 143.957 187.151 141.425 187.952 144.883C188.915 149 181.965 149.515 179.054 148.856C171.182 147.086 165.954 135.95 162.409 129.774C149.432 106.862 132.253 86.0094 128.83 55.5228Z" fill="#FFCE1E"/>
<path fill-rule="evenodd" clip-rule="evenodd" d="M178.522 27.8974C182.208 27.8848 185.852 28.6795 189.202 30.2259C192.551 31.7724 195.524 34.0336 197.914 36.8519C199.206 38.2517 201.768 40.5367 200.887 42.801C200.437 43.5831 199.702 44.159 198.836 44.4067C195.884 44.8184 193.569 39.9397 192.113 38.6428C188.6 35.3616 184.032 33.455 179.239 33.2702C167.328 33.0024 156.914 40.8043 156.073 51.7967C155.798 55.3216 156.273 58.8649 157.468 62.1908C158.663 65.5166 160.55 68.5487 163.002 71.0851C167.718 75.8608 178.89 80.5954 187.603 76.4372C194.655 73.0406 199.103 64.9918 199.677 54.7816C199.861 51.3233 198.652 46.3828 202.056 46.033C206.955 45.5182 205.172 54.9874 204.618 58.7545C204.1 63.1405 202.757 67.3878 200.661 71.2703C198.682 75.0032 195.729 78.1249 192.117 80.3007C188.506 82.4766 184.372 83.6244 180.162 83.6215C174.812 83.6733 169.552 82.2495 164.954 79.5053C160.355 76.761 156.596 72.8017 154.085 68.0591C148.489 57.4166 149.985 44.1391 157.242 36.646C162.955 31.0964 170.573 27.9642 178.522 27.8974Z" fill="#FFCE1E"/>
<path fill-rule="evenodd" clip-rule="evenodd" d="M446.538 44.4067C448.907 44.1315 451.308 44.3549 453.587 45.0627C455.866 45.7704 457.973 46.947 459.775 48.5175C461.575 50.088 463.031 52.018 464.049 54.1845C465.066 56.3511 465.623 58.7067 465.685 61.1013C465.828 69.4794 461.297 76.9724 457.484 82.5716C456.255 84.4242 454.43 87.5943 452.135 86.9356C449.49 86.174 451.498 82.8187 452.339 81.563C455.578 77.1166 460.006 69.9323 460.662 63.6744C460.956 61.3243 460.682 58.9375 459.863 56.7166C458.141 52.7231 451.929 47.3092 445.615 49.3677C440.244 51.1175 437.969 57.6018 437.887 62.2952C437.763 70.8998 443.073 78.928 447.399 84.342C448.28 85.4741 453.856 91.1968 449.448 92.1025C447.235 92.5554 444.57 88.6648 443.114 86.7299C438.502 80.5543 433.11 72.0732 433.213 62.0276C433.397 53.4435 438.85 45.3743 446.538 44.4067Z" fill="#FFCE1E"/>
<path fill-rule="evenodd" clip-rule="evenodd" d="M447.337 53.7319C450.228 53.2173 456.747 54.4935 456.645 57.8489C456.501 62.6658 451.416 58.0342 448.731 58.2607C442.438 58.734 443.811 69.356 449.92 68.3885C453.733 67.771 451.786 60.8338 455.66 60.8338C459.535 60.8338 457.464 67.3799 456.05 69.5824C453.425 73.6995 446.312 74.1523 442.581 70.5705C441.345 69.3005 440.464 67.7251 440.029 66.0037C439.593 64.2824 439.618 62.4762 440.101 60.7674C440.583 59.0588 441.507 57.5084 442.777 56.273C444.048 55.0376 445.621 54.161 447.337 53.7319Z" fill="#FFCE1E"/>
<path fill-rule="evenodd" clip-rule="evenodd" d="M479.214 98.6694C482.62 98.5169 486.022 99.0543 489.217 100.25C492.411 101.445 495.332 103.274 497.808 105.627C500.296 107.779 502.31 110.428 503.722 113.406C505.134 116.383 505.913 119.623 506.008 122.918C506.132 131.935 501.458 140.354 497.297 146.366C493.994 151.059 490.29 155.453 486.225 159.498C484.586 161.124 481.388 163.369 480.075 160.487C478.764 157.604 484.627 153.426 485.426 152.541C487.538 150.128 489.522 147.607 491.371 144.985C495.799 138.811 503.671 127.859 499.284 116.949C496.927 111.041 486.411 100.357 475.525 105.215C468.534 108.365 463.081 116.146 463.061 126.891C463.061 139.243 469.067 150.688 474.336 159.292C475.095 160.528 476.284 162.298 477.103 163.862C478.497 166.436 477.349 168.144 476.12 168.433C472.86 169.215 469.866 162.998 468.412 160.487C466.468 157.091 464.748 153.57 463.266 149.947C459.238 141.956 457.325 133.06 457.71 124.113C458.111 117.939 460.394 112.038 464.25 107.212C466.056 104.863 468.308 102.898 470.878 101.431C473.447 99.9645 476.281 99.0258 479.214 98.6694Z" fill="#FFCE1E"/>
<path fill-rule="evenodd" clip-rule="evenodd" d="M479.01 112.77C480.362 112.524 481.742 112.461 483.11 112.585C487.046 113.141 493.36 117.011 493.012 120.325C492.927 120.856 492.687 121.348 492.322 121.741C491.956 122.134 491.483 122.407 490.961 122.527C488.584 122.918 487.436 120.778 486.205 119.934C482.106 117.114 475.627 118.061 473.537 122.321C470.482 128.497 475.587 136.279 482.249 134.838C483.411 134.436 484.482 133.807 485.401 132.988C486.319 132.168 487.066 131.174 487.599 130.061C488.44 128.6 489.281 124.175 491.556 123.886C496.66 123.309 493.606 130.432 492.539 132.43C490.914 135.582 488.357 138.156 485.222 139.799C476.14 143.524 466.916 135.331 467.202 125.883C467.228 122.624 468.445 119.489 470.622 117.071C472.798 114.654 475.784 113.123 479.01 112.77Z" fill="#FFCE1E"/>
<path fill-rule="evenodd" clip-rule="evenodd" d="M564.227 389.023C559.615 375.416 554.408 363.621 549.181 351.661C538.685 327.638 526.795 304.315 511.974 284.079C497.151 263.845 478.825 246.162 452.974 238.155C454 228.644 455.025 219.175 456.152 209.335C456.419 206.845 457.546 201.533 456.541 199.783C455.537 198.033 449.633 198.157 446.292 198.013C418.76 196.696 390.081 195.749 363.944 194.431C363 185.827 362.426 176.872 362.16 167.671C373.803 167.176 383.746 158.428 382.147 145.604C381.779 142.66 380.303 141.198 379.175 138.851C384.033 128.559 387.374 116.743 385.119 104.063C383.114 93.5369 378.255 83.771 371.077 75.8402C364.501 68.0998 356.415 61.7946 347.318 57.3136C336.726 51.7045 324.841 49.026 312.878 49.5529C299.533 50.3352 291.455 55.6256 283.767 61.904C282.333 63.0774 278.11 68.0796 276.45 68.2648C275.118 68.1676 273.795 67.968 272.493 67.6679C256.093 65.6093 241.455 70.097 232.497 77.6105C229.217 80.3484 225.364 84.1979 226.163 89.9616C226.818 94.655 232.826 99.4514 236.064 102.313C239.919 105.689 243.445 108.324 247.34 111.453C244.695 115.364 239.324 121.128 241.805 127.365C243.177 130.802 246.561 131.914 250.004 133.54C250.106 141.342 254.822 144.492 260.705 146.468C262.49 160.204 267.286 173.372 274.748 185.025C281.616 195.152 291.557 204.189 308.613 203.325C309.27 209.109 314.046 220.039 309.803 225.577C306.236 230.229 293.588 230.291 284.65 230.538C275.186 230.601 265.735 231.199 256.338 232.328C240.948 234.465 226.436 240.794 214.376 250.628C190.986 269.155 177.845 293.158 163.966 320.659C157.57 293.735 148.017 268.95 131.166 253.264C136.024 252.955 139.674 252.687 144.635 252.276C147.607 252.029 155.561 252.091 157.303 250.484C158.595 249.291 158.534 245.153 158.677 242.539C159.678 224.557 158.992 206.52 156.626 188.667C156.498 185.876 156.03 183.111 155.233 180.434C154.204 179.277 153.078 178.209 151.87 177.243C150.128 176.193 145.722 175.987 142.769 175.451C120.385 171.319 97.6175 169.656 74.8731 170.491C53.5357 171.732 32.3798 175.153 11.7332 180.701C8.61719 181.483 4.9682 181.895 3.5332 182.904C0.642699 184.694 0.827199 190.233 0.642699 194.617C-0.0480701 209.536 0.349324 224.487 1.8317 239.348C2.2007 242.744 2.5902 253.408 4.80419 254.848C7.96119 256.907 13.7627 254.705 18.2727 255.652C28.1536 273.87 50.6012 279.51 78.2555 279.901C83.0194 300.77 86.2601 321.961 87.9521 343.303C77.2306 343.303 77.3331 355.367 78.645 365.947C79.8341 375.54 82.9501 382.045 89.1411 385.627C90.017 392.729 91.6105 399.722 93.897 406.499C100.047 425.561 110.42 441.495 127.332 448.844C133.804 451.723 140.76 453.343 147.833 453.619C172.432 454.381 184.732 438.695 195.147 425.583C195.023 434.64 194.737 443.718 194.449 452.858H199.861C200.19 438.345 200.681 424.039 201.276 411.276C202.609 383.486 205.376 356.334 208.799 329.779C209.23 326.444 210.645 320.371 206.626 320.639C203.756 320.824 203.716 326.382 203.264 330.171C200.394 354.028 198.303 376.672 196.541 401.333C196.233 405.45 196.541 410.185 195.741 413.684C195.741 413.684 195.741 413.972 195.741 414.075C192.996 419.24 189.673 424.074 185.839 428.485C182.193 432.962 178.006 436.965 173.375 440.403C167.798 444.25 161.397 446.723 154.69 447.62C147.983 448.518 141.16 447.816 134.774 445.571C110.174 437.48 100.232 414.96 95.168 387.726C104.865 390.629 119.768 389.167 130.224 386.944C133.687 386.202 139.079 385.771 138.935 382.56C138.793 379.657 135.595 380.11 133.585 380.501C120.178 383.671 95.5575 387.644 87.6651 376.713C85.3281 373.501 84.0571 367.533 83.6881 362.201C83.319 356.869 82.2531 348.84 88.4441 348.696C88.7105 351.372 88.3006 355.778 91.6216 355.654C94.9425 355.531 94.0406 351.208 93.7946 347.688C92.1141 324.859 88.9365 302.167 84.2826 279.757C87.5011 278.893 97.4435 281.383 96.7671 275.969C96.2956 272.326 88.0136 274.22 84.4671 274.384C72.9563 274.982 61.4198 273.914 50.2117 271.214C48.1802 270.826 46.1947 270.225 44.2871 269.423C43.7542 269.053 43.4671 268.044 42.8931 267.365C42.2459 266.853 41.5606 266.391 40.8431 265.985C34.4471 260.901 30.5932 253.635 30.7367 241.922C30.8391 236.816 31.9667 228.541 37.4606 232.781C35.5747 242.58 34.3652 255.425 40.2487 261.601C41.993 263.196 43.9198 264.579 45.9887 265.717C49.1251 267.447 54.5986 269.629 54.7011 265.326C54.7011 262.465 49.7197 261.642 48.1617 260.757C46.1143 259.569 44.3565 257.937 43.0161 255.981C40.5357 251.863 41.2736 244.165 42.2167 237.454C42.6266 234.635 43.4466 227.162 45.9887 226.915C50.3961 226.359 50.0886 235.293 50.0886 240.234C50.0886 247.13 50.2732 251.925 52.4666 255.343C55.4186 259.892 61.3636 262.136 68.5182 261.704C71.0396 262.692 76.7181 268.373 79.9981 265.821C80.3263 265.561 80.5872 265.224 80.7584 264.84C80.9297 264.457 81.0065 264.038 80.982 263.618C80.982 260.777 75.6111 259.831 73.0691 258.266C70.3109 256.573 68.0533 254.171 66.5296 251.308C62.2656 242.333 65.5456 230.908 69.8916 225.454C76.4311 229.818 71.5521 243.012 75.0371 249.517C78.5221 256.022 89.3871 252.914 96.4186 251.905C102.621 250.748 108.97 250.609 115.217 251.494C126.553 253.737 133.093 261.786 138.198 269.403C147.771 283.544 154.044 301.824 158.575 320.475C159.21 323.089 159.231 326.794 160.357 329.017C161.076 330.458 162.552 330.644 163.331 331.817C167.226 337.58 170.239 348.449 166.487 356.251C163.85 361.164 159.959 365.286 155.212 368.191C153.326 369.405 151.113 370.249 151.461 372.308C152.096 377.001 158.349 372.617 160.173 371.3C161.989 369.656 163.906 368.129 165.914 366.729C167.532 370.065 166.078 378.484 170.648 378.256C174.38 378.072 172.883 373.501 172.248 370.518C171.51 367.038 170.895 363.991 170.198 360.966C177.024 350.961 172.371 334.802 167.021 327.371C177.475 302.894 191.108 280.148 208.595 262.568C217.306 253.84 227.475 245.565 240.267 241.098C253.059 236.631 268.966 235.725 287.58 235.334C275.265 248.692 265.321 264.072 258.184 280.807C243.567 315.802 236.208 359.525 236.208 409.031C236.208 423.997 236.781 438.571 237.786 452.796H243.281C243.095 449.811 242.932 446.93 242.747 444.212C240.41 407.343 242.194 368.891 247.893 337.869C251.686 317.284 256.933 296.369 264.723 279.222C271.465 264.762 280.461 251.476 291.373 239.863C292.765 238.083 294.433 236.54 296.314 235.293C299.86 234.058 303.386 234.964 307.794 233.111C307.015 251.081 324.193 254.396 341.249 251.987C340.286 261.888 340.143 272.573 338.872 282.207C318.987 282.742 298.384 282.207 278.11 282.598C275.096 282.598 271.529 282.474 270.382 283.401C268.639 284.8 268.988 292.046 268.802 294.722C268.557 298.057 267.081 304.294 271.181 304.069C274.215 303.903 273.764 299.951 273.948 297.111C274.09 294.115 274.419 291.131 274.932 288.176C335.878 287.868 397.583 287.27 458.038 287.168C457.608 291.428 457.751 296.287 457.259 300.487C401.458 300.28 342.849 299.292 286.412 299.292C282.764 299.292 276.9 298.839 275.917 300.301C275.363 301.145 275.731 303.307 275.731 305.262C275.731 331.302 274.543 355.881 274.543 381.592C274.543 385.338 273.805 391.143 275.138 392.729C277.187 395.239 284.24 393.346 288.011 394.313C286.741 402.794 292.911 407.097 299.081 409.423C299.177 410.514 299.591 411.552 300.27 412.408C302.633 414.851 305.292 416.988 308.183 418.769C311.082 420.781 314.205 422.447 317.49 423.729C319.91 429.355 324.17 433.98 329.564 436.843C332.147 447.608 346.395 449.049 358.08 450.964C383.479 455.081 415.132 456.089 442.008 456.728C444.754 460.351 449.121 462.039 453.897 463.685C457.813 465.224 461.993 465.966 466.197 465.867C471.878 465.66 477.293 463.401 481.449 459.507C482.638 458.457 483.909 456.275 485.201 455.945C487.3 455.666 489.422 455.597 491.535 455.74C521.301 454.71 553.035 449.729 565.192 431.284C573.33 419.14 568.39 401.291 564.227 389.023ZM22.6187 246.697C23.4876 246.313 24.4454 246.178 25.3861 246.306C25.7253 251.444 27.1213 256.456 29.4861 261.024C26.0217 258.492 21.7372 253.017 22.6187 246.697ZM130.305 247.706C127.883 248.077 125.437 248.276 122.987 248.303C120.936 248.118 118.886 246.944 116.652 246.512C109.785 245.112 102.302 245.873 94.881 246.903C94.717 246.903 94.6966 246.903 94.6761 247.108C94.6556 247.315 94.6761 246.924 94.6761 246.697C95.4292 241.566 95.6285 236.37 95.2706 231.197C95.168 220.801 94.881 210.612 94.881 199.783C94.881 195.666 95.9881 186.795 92.1135 186.671C88.2391 186.547 89.2436 194.699 89.3255 199.392C89.5306 209.355 89.7356 219.587 89.7356 229.612C89.4864 234.646 89.5481 239.693 89.9201 244.721C90.1321 245.716 90.536 246.66 91.109 247.499C88.0136 248.014 83.2371 248.941 80.2236 247.706C78.3786 243.074 79.8135 235.561 78.4401 230.003C77.3741 225.639 74.3401 219.484 68.7437 220.266C65.0127 220.781 62.7986 226.091 61.4251 230.003C58.4936 238.36 58.3501 249.497 62.6141 256.043C60.3328 255.473 58.3102 254.145 56.8741 252.276C53.3277 245.977 57.6122 233.749 53.6966 226.627C52.8485 224.738 51.3221 223.239 49.4222 222.431C47.5223 221.621 45.3885 221.562 43.4466 222.263C41.1301 223.107 40.1666 224.753 39.1007 227.615C29.6297 222.84 25.4271 232.39 25.2427 240.934C19.0926 240.542 16.4276 243.754 16.9196 250.093C14.0497 250.093 11.4872 249.97 8.71969 249.888C5.77301 229.283 5.05817 208.418 6.5877 187.659C29.275 181.361 52.5633 177.497 76.0621 176.131C102.589 174.649 127.681 178.334 150.108 182.492C153.434 203.458 154.363 224.737 152.875 245.915C145.229 246.759 138.382 247.17 130.305 247.706ZM285.9 67.215C288.793 64.7113 291.909 62.4788 295.206 60.5454C300.328 57.477 306.09 55.6449 312.037 55.1933C323.071 54.5679 334.072 56.898 343.915 61.9453C352.294 65.9405 359.821 71.5336 366.075 78.4134C372.666 85.5308 377.245 94.2858 379.338 103.774C381.635 114.849 379.052 126.109 374.582 135.784C370.094 134.282 364.148 135.126 361.525 137.843C343.075 107.747 321.365 80.76 283.727 69.9117C283.235 68.7796 285.039 67.9355 285.9 67.215ZM340.738 120.078C333.943 120.128 327.402 117.487 322.533 112.729C320.852 111.288 319.725 109.25 317.777 109.147C315.399 109.147 314.354 111.556 312.426 112.523C311.068 113.171 309.585 113.515 308.081 113.532C299.225 113.655 294.202 104.906 290.266 98.4222C290.021 98.4222 290.103 98.0516 290.061 97.8252C314.743 97.29 329.319 107.891 340.738 120.078ZM256.216 136.978C255.273 134.92 256.216 132.223 255.417 130.02C254.187 126.767 247.995 128.455 246.704 125.059C247.687 116.434 253.653 112.708 259.188 108.756C258.732 119.164 258.994 129.591 259.967 139.963C259.175 139.743 258.436 139.365 257.791 138.853C257.146 138.339 256.61 137.702 256.216 136.978ZM251.664 107.562C245.892 103.593 240.522 99.063 235.634 94.0375C234.137 92.5554 231.534 90.6822 231.534 88.4795C231.37 83.3333 240.595 78.3516 244.203 76.746C250.482 73.8823 257.294 72.3946 264.19 72.3819C278.254 72.3819 289.979 76.9518 300.23 82.1187C309.954 87.1414 318.892 93.5708 326.756 101.201C326.756 101.489 326.572 101.201 326.346 101.201C314.116 94.1556 299.983 91.1661 285.962 92.6583C270.935 93.8934 260.685 100.872 251.664 107.562ZM341.721 246.306C331.472 248.365 317.634 247.829 314.21 239.739C312.999 236.572 312.791 233.107 313.616 229.818C314.026 228.315 315.42 227.162 315.994 225.432C318.433 218.207 315.502 209.87 314.21 202.583C330.611 199.536 342.357 189.389 351.233 177.737C352.484 176.09 354.492 173.743 354.39 172.158C354.317 171.507 354.022 170.902 353.555 170.443C353.088 169.985 352.478 169.705 351.828 169.647C349.47 169.647 347.523 173.763 345.883 175.822C337.15 186.691 325.751 197.107 307.486 197.889C300.822 198.253 294.24 196.274 288.872 192.29C280.016 185.662 273.764 174.629 270.074 162.689C266.22 150.338 264.559 136.072 264.334 119.955C270.484 114.417 280.221 116.352 284.526 120.551C291.004 126.871 291.906 140.21 290.451 152.356C290.123 155.196 288.934 158.921 292.644 158.901C295.842 158.901 295.863 153.364 296.191 148.958C297.38 133.685 294.449 119.645 284.711 113.779C281.643 112.052 278.204 111.095 274.688 110.991C271.171 110.887 267.683 111.639 264.518 113.182C264.833 110.545 264.97 107.891 264.929 105.236C269.005 102.789 273.4 100.919 277.987 99.6779C279.677 99.0428 281.441 98.621 283.235 98.4222C284.834 98.4222 285.469 101.222 286.597 103.177C290.696 110.259 297.995 120.14 310.151 118.883C312.847 118.546 315.392 117.447 317.49 115.714C324.071 121.457 332.68 127.159 345.596 125.245C350.352 129.752 353.795 135.661 357.281 141.342C356.584 143.586 352.812 145.315 353.304 148.712C353.368 149.303 353.646 149.851 354.083 150.253C354.521 150.655 355.089 150.882 355.682 150.894C358.633 151.037 359.884 146.777 361.237 145.336C362.898 143.324 365.042 141.771 367.469 140.827C368.535 140.467 369.671 140.366 370.784 140.536C371.896 140.706 372.952 141.14 373.863 141.803C374.774 142.466 375.513 143.338 376.021 144.346C376.526 145.355 376.787 146.47 376.776 147.6C376.899 150.277 376.231 152.931 374.856 155.227C373.48 157.523 371.459 159.361 369.048 160.507C367.01 161.303 364.883 161.842 362.713 162.112C360.458 162.401 357.342 161.886 356.563 163.698C356.05 164.891 356.666 166.415 356.747 167.671C357.383 176.317 357.075 185.745 358.347 194.308C354.472 194.966 348.466 192.126 345.863 194.904C344.325 196.572 344.447 204.58 344.283 207.256C343.443 220.328 342.541 234.367 341.721 246.306ZM416.956 281.095C393.135 281.342 368.596 281.774 344.693 281.301C346.908 254.232 348.2 226.236 350.639 199.392C373.538 200.258 396.107 201.451 418.924 202.377C418.534 228.088 417.653 255.034 416.956 281.095ZM422.491 281.095C423.148 255.103 423.831 229.132 424.541 203.18C424.541 202.892 424.541 202.604 424.726 202.583C433.459 203.105 442.301 203.503 451.252 203.778C448.52 229.385 445.752 255.027 442.95 280.704C436.124 280.807 429.236 280.91 422.491 281.095ZM403.487 305.509C418.822 305.817 434.484 305.777 450.002 305.9C449.264 323.871 449.223 344.723 449.223 364.733C449.223 367.387 450.002 371.34 449.428 372.966C449.059 373.914 446.66 374.737 445.328 375.746C442.355 377.949 437.927 381.921 438.584 386.038C423.741 388.365 410.437 384.536 402.361 378.092C402.872 354.296 402.872 329.964 403.365 306.147C403.283 305.859 403.262 305.509 403.487 305.509ZM279.976 388.385C280.591 360.862 280.837 332.949 281.348 305.304C281.348 305.015 281.348 304.747 281.554 304.706C320.189 305.064 358.921 305.331 397.747 305.509C397.563 328.441 397.174 351.167 396.968 374.078C396.025 374.345 395.104 373.419 394.385 372.884C388.974 368.973 380.692 364.259 377.165 358.372C375.116 355.078 374.295 348.985 370.032 348.429C363.329 347.585 359.29 359.298 360.335 365.926C361.689 374.551 368.023 378.813 370.585 385.811C364.435 388.303 356.789 388.467 349.203 388.796C341.619 389.125 333.829 389.414 326.448 389.578C318.618 389.785 310.726 389.003 302.894 388.796C295.063 388.59 287.335 389.394 279.976 388.426V388.385ZM348.65 443.656C345.124 442.874 340.45 441.989 337.969 440.074C337.847 440.074 336.925 439.642 337.58 439.272C341.147 439.848 352.279 442.297 352.423 437.501C352.525 433.836 347.441 434.846 344.099 434.702C336.125 434.373 327.699 430.935 325.649 426.158C330.013 427.068 334.456 427.537 338.912 427.559C343.013 427.559 350.577 428.505 350.803 424.759C351.049 420.415 343.854 422.227 340.102 422.185C326.572 422.041 314.805 418.069 308.635 412.037C318.489 414.098 328.519 415.181 338.585 415.269C342.05 415.269 346.784 415.784 346.784 412.696C346.908 409.259 342.685 410.041 339.076 409.897C329.982 409.618 320.918 408.688 311.955 407.118C303.755 405.635 294.284 404.174 293.157 395.981C295.494 393.716 299.635 394.355 303.242 394.395C306.851 394.437 310.828 394.848 314.333 394.993C321.774 395.323 329.872 394.993 337.294 394.786C344.715 394.581 351.644 394.478 359.474 393.799C366.199 393.222 376.756 392.378 376.1 385.05C375.751 381.221 372.635 378.154 370.544 375.107C366.67 369.488 362.693 360.924 368.966 354.523C369.13 354.523 369.171 354.728 369.355 354.728C372.655 365.226 381.02 370.229 389.547 376.384C394.527 380.118 399.753 383.508 405.189 386.533C416.157 392.358 433.417 394.333 448.342 389.908C453.466 399.022 457.139 408.885 459.228 419.14C461.585 429.761 462.158 445.406 454.881 451.52C418.534 450.614 379.851 450.49 348.65 443.697V443.656ZM561.85 426.158C556.725 436.574 544.097 441.782 531.571 445.035C517.294 448.442 502.683 450.244 488.009 450.408C491.323 441.533 492.544 432.006 491.576 422.576C491.33 419.16 491.309 415.249 488.419 415.227C483.93 415.227 486.369 424.615 486.369 428.546C486.369 445.571 480.219 461.606 462.815 460.351C460.011 459.982 457.26 459.292 454.614 458.292C465.726 453.104 468.062 435.484 464.865 419.345C462.773 409.299 459.454 399.55 454.983 390.32C453.815 387.808 452.217 382.951 449.633 382.765C447.05 382.58 446.558 385.462 444.077 384.947C443.298 384.659 444.487 384.021 444.672 383.753C445.9 382.086 447.373 380.615 449.039 379.389C456.234 374.737 466.812 378.01 472.203 383.157C474.43 385.419 476.358 387.957 477.944 390.711C479.358 393.12 480.876 398.39 483.479 398.472C488.808 398.637 484.667 391.328 483.273 388.92C481.879 386.511 480.239 384.536 479.522 382.971C483.458 382.456 487.312 382.065 491.822 381.571C495.184 381.201 501.907 381.571 501.907 377.989C501.907 373.585 492.725 376.033 489.445 376.404C487.128 376.672 484.524 376.919 482.126 377.207C479.776 377.683 477.388 377.945 474.992 377.989C473.721 377.804 472.039 375.931 470.625 375.211C465.81 372.508 460.293 371.331 454.799 371.835C454.308 349.953 454.594 327.102 455.393 305.839H459.493C463.245 304.151 462.733 298.242 463.041 292.128C463.225 288.856 464.106 283.504 462.466 282.186C459.596 279.881 452.216 282.66 448.116 281.589C449.346 268.826 450.555 256.084 452.216 243.815C470.665 249.538 484.627 260.757 496.352 273.828C519.722 299.869 535.118 332.867 550.001 368.253C553.867 376.993 557.288 385.924 560.251 395.013C563.552 404.544 566.135 417.616 561.85 426.2V426.158Z" fill="black"/>
<path fill-rule="evenodd" clip-rule="evenodd" d="M82.2122 152.087C82.2122 159.663 73.0487 161.207 67.1652 158.057C65.3406 157.069 64.4182 155.299 63.2087 154.475C61.4662 153.282 59.2522 152.705 57.4687 151.696C52.2312 148.77 47.4055 145.157 43.1187 140.951C37.6863 135.495 32.4382 128.188 32.4382 118.307C32.4382 109.003 38.5882 103.651 49.0637 104.392C62.4092 105.359 68.4566 115.816 73.0282 126.068C77.5176 114.231 83.2782 103.424 97.9562 102.416C110.625 101.469 120.301 108.735 119.153 122.095C118.354 131.276 112.183 137.575 105.685 142.166C98.5123 146.852 90.5629 150.212 82.2122 152.087ZM107.55 133.561C110.833 130.438 112.995 126.312 113.7 121.827C114.91 111.885 107.653 107.047 97.8741 107.912C87.2962 108.859 82.2122 117.216 79.0552 125.801C78.0711 128.477 76.1851 132.799 76.4722 135.579C76.6362 137.307 78.1326 138.172 78.6452 139.963C82.2737 131.215 86.7016 123.495 93.6922 117.69C95.6192 116.125 99.1862 113.305 102.589 114.129C108.35 115.487 103.614 124.421 101.81 127.427C96.5416 135.908 88.2802 141.487 81.0231 146.53C90.7197 144.409 100.949 140.21 107.55 133.602V133.561ZM67.5547 127.591C64.2542 119.192 58.8422 110.65 48.9612 109.909C42.3603 109.394 38.3832 111.823 38.0552 117.463C37.5632 125.945 42.4832 131.997 46.7677 136.546C51.4145 141.374 56.9216 145.284 63.0036 148.074C63.1676 146.571 63.9262 145.686 64.1927 144.286C57.3662 140.334 48.7357 135.373 45.5787 127.2C45.0564 125.667 44.854 124.04 44.9842 122.425C45.5115 121.242 46.4313 120.279 47.5863 119.701C48.7415 119.122 50.0606 118.964 51.3188 119.254C60.3387 120.119 66.9807 129.547 69.5432 136.546C70.5681 133.725 68.6822 130.535 67.5547 127.633V127.591ZM86.7631 135.826C91.4987 131.708 97.0132 127.118 98.8376 120.715C93.5898 124.613 89.4312 129.802 86.7631 135.784V135.826ZM63.8032 137.884C61.5483 131.461 57.9197 126.418 50.7242 124.957C53.3687 130.885 58.3707 134.529 63.8853 137.781L63.8032 137.884ZM68.1492 151.594C68.7642 153.961 73.4997 154.866 76.3491 153.652C77.0872 148.403 74.6067 144.698 72.9872 141.136C71.6957 143.565 67.1037 147.497 68.1492 151.49V151.594Z" fill="black"/>
<path fill-rule="evenodd" clip-rule="evenodd" d="M368.843 145.521C369.622 145.521 371.466 145.521 371.816 147.312C372.389 150.071 369.007 151.841 367.469 153.076C365.932 154.311 359.679 159.91 358.757 155.134C358.223 152.376 361.545 150.853 362.857 149.762C364.169 148.671 366.649 145.789 368.843 145.521Z" fill="black"/>
<path fill-rule="evenodd" clip-rule="evenodd" d="M326.285 162.216C320.478 166.933 313.494 169.958 306.092 170.964C302.751 171.438 298.2 172.22 298.774 168.186C299.205 165.159 304.555 165.612 306.974 165.201C312.548 164.206 317.78 161.813 322.185 158.243C323.394 157.275 328.15 152.067 331.308 154.867C332.681 156.06 332.64 158.696 332.497 160.24C331.594 169.03 323.886 175.822 315.666 178.766C312.796 179.775 307.753 181.072 307.753 177.367C307.753 174.629 313.575 173.743 316.445 172.406C321.16 170.203 324.522 167.506 326.162 162.463C326.059 162.257 326.162 162.236 326.285 162.216Z" fill="black"/>
<path fill-rule="evenodd" clip-rule="evenodd" d="M39.0597 189.656C41.6428 189.532 45.6607 189.45 49.7402 189.656C52.7947 189.8 57.7147 189.82 58.8422 191.241C59.9697 192.661 59.3956 195.832 59.2522 198.013C59.1087 200.196 58.8217 202.275 58.6577 204.765C58.3707 208.656 58.9037 216.087 56.6078 217.693C54.3117 219.298 48.9612 218.907 45.1277 219.278C36.5383 220.102 30.3473 220.617 21.5733 221.459C18.4777 221.769 12.2253 223.333 10.0933 222.057C7.44877 220.451 8.86327 212.176 8.69926 208.347C8.65827 205.527 8.53527 203.654 8.53527 200.978C8.53527 198.302 8.22777 195.173 8.92477 194.02C10.3598 191.652 19.1748 191.282 22.7828 190.85C28.8302 190.109 33.5042 189.924 39.0597 189.656ZM14.1113 197.602C13.9677 204.189 14.3778 210.199 14.3162 216.684C26.9852 215.367 39.8593 214.234 52.5077 212.917C53.1638 207.338 53.3278 201.287 53.9017 195.626C40.6103 194.471 27.2244 195.136 14.1113 197.602Z" fill="black"/>
<path fill-rule="evenodd" clip-rule="evenodd" d="M393.791 209.932C395.062 209.932 395.472 208.862 397.153 209.335C400.126 210.159 398.547 217.137 398.342 220.471C397.856 224.695 397.596 228.941 397.563 233.194C397.768 236.281 398.937 238.751 397.359 240.934C396.108 242.662 392.603 243.301 389.445 243.321C382.804 243.321 377.494 242.333 369.642 242.333C362.304 242.333 352.443 243.363 351.623 236.57C351.294 233.749 352.525 228.726 352.812 223.045C352.956 220.493 352.914 218.001 353.016 215.902C353.18 212.382 352.791 208.635 355.579 207.936C358.367 207.236 362.16 208.162 365.276 208.347C374.932 208.882 384.689 209.088 393.791 209.932ZM358.551 214.05C358.551 221.81 357.69 228.685 357.178 235.91C362.364 237.269 368.904 236.672 374.788 236.899C380.671 237.125 386.883 238.072 392.603 237.496C391.187 230.209 393.402 222.922 393.196 215.038C381.553 214.749 370.38 213.966 358.962 213.452C358.675 213.555 358.716 213.946 358.551 214.112V214.05Z" fill="black"/>
<path fill-rule="evenodd" clip-rule="evenodd" d="M291.046 314.876C291.046 314.876 291.251 314.69 291.455 314.69C297.005 314.583 302.554 314.782 308.082 315.287C318.331 315.822 329.217 316.851 339.549 317.859C344.366 318.354 352.607 318.169 354.8 320.844C358.142 324.961 354.8 334.493 353.796 339.742C353.242 342.542 352.627 345.485 352.033 349.273C351.602 351.907 351.602 357.342 349.982 358.619C347.933 360.245 338.277 358.619 334.936 358.412C324.583 357.754 315.359 356.951 304.453 356.354C299.86 356.127 291.968 356.251 289.22 354.172C283.891 350.055 286.27 339.372 286.843 330.5C286.967 328.585 287.294 325.745 287.438 322.944C287.724 318.292 287.335 315.802 291.046 314.876ZM293.095 320.844C292.973 325.641 292.522 330.664 292.112 335.563C291.701 340.463 290.738 345.856 292.502 349.973C309.926 351.434 328.889 352.382 345.945 353.555C346.948 343.365 349.88 335.028 350.701 324.735C332.251 322.676 313.575 320.619 293.301 320.351C292.993 320.289 293.013 320.557 293.034 320.844H293.095Z" fill="black"/>
<path fill-rule="evenodd" clip-rule="evenodd" d="M159.6 334.966C159.939 334.84 160.3 334.787 160.659 334.809C161.019 334.833 161.371 334.932 161.69 335.102C162.01 335.27 162.29 335.505 162.513 335.791C162.735 336.076 162.895 336.406 162.982 336.758C163.474 339.701 159.271 342.192 157.631 343.716C145.045 355.325 127.783 364.012 102.589 360.801C99.2887 360.389 94.0818 360.224 94.0818 357.033C94.0818 352.917 99.8833 354.976 102.015 355.243C111.835 356.498 124.216 355.736 132.089 353.061C139.933 350.304 147.137 345.975 153.265 340.339C155.002 338.36 156.932 336.56 159.025 334.966C159.149 334.884 159.456 334.986 159.6 334.966Z" fill="black"/>
</svg>
