<svg width="179" height="179" viewBox="0 0 179 179" fill="none" xmlns="http://www.w3.org/2000/svg">
<path d="M121.423 127.074C121.126 136.307 110.946 141.756 103.098 136.883L41.2846 98.4972C33.437 93.6239 33.8078 82.0829 41.952 77.7233L106.102 43.384C114.246 39.0244 124.055 45.1161 123.759 54.3489L121.423 127.074Z" fill="#FFCE1E"/>
<g clip-path="url(#clip0_93_516)">
<path d="M75.1655 90.9954C75.7124 90.9948 76.2366 90.7822 76.6233 90.4044C77.0099 90.0265 77.2274 89.5141 77.228 88.9797C77.2264 88.6804 77.1557 88.3852 77.0213 88.1162L83.9069 81.3871C84.1816 81.52 84.484 81.5891 84.7905 81.5891C85.0971 81.5891 85.3994 81.52 85.6742 81.3871L89.8097 85.4287C89.6753 85.6977 89.6047 85.9929 89.603 86.2922C89.603 86.8268 89.8203 87.3395 90.2071 87.7175C90.5939 88.0955 91.1185 88.3079 91.6655 88.3079C92.2125 88.3079 92.7371 88.0955 93.1239 87.7175C93.5107 87.3395 93.728 86.8268 93.728 86.2922C93.7264 85.9929 93.6557 85.6977 93.5213 85.4287L100.407 78.6996C100.682 78.831 100.984 78.9 101.291 78.9016C101.698 78.9016 102.097 78.7834 102.436 78.5619C102.776 78.3404 103.04 78.0256 103.196 77.6573C103.352 77.289 103.393 76.8837 103.313 76.4928C103.234 76.1018 103.037 75.7426 102.749 75.4607C102.46 75.1788 102.093 74.9869 101.693 74.9091C101.293 74.8313 100.878 74.8712 100.501 75.0238C100.124 75.1763 99.8023 75.4347 99.5756 75.7662C99.349 76.0976 99.228 76.4873 99.228 76.886C99.2297 77.1854 99.3003 77.4805 99.4347 77.7495L92.5492 84.4786C92.2744 84.3457 91.9721 84.2766 91.6655 84.2766C91.359 84.2766 91.0566 84.3457 90.7819 84.4786L86.6463 80.437C86.7807 80.168 86.8514 79.8729 86.853 79.5735C86.853 79.0389 86.6357 78.5262 86.2489 78.1482C85.8621 77.7702 85.3375 77.5579 84.7905 77.5579C84.2435 77.5579 83.7189 77.7702 83.3321 78.1482C82.9453 78.5262 82.728 79.0389 82.728 79.5735C82.7297 79.8729 82.8003 80.168 82.9347 80.437L76.0492 87.1661C75.7739 87.0348 75.4719 86.9657 75.1655 86.9641C74.6185 86.9641 74.0939 87.1765 73.7071 87.5545C73.3203 87.9325 73.103 88.4452 73.103 88.9797C73.103 89.5143 73.3203 90.027 73.7071 90.405C74.0939 90.783 74.6185 90.9954 75.1655 90.9954ZM101.291 76.2141C101.427 76.2141 101.559 76.2535 101.672 76.3273C101.786 76.4012 101.874 76.5061 101.926 76.6289C101.978 76.7516 101.991 76.8867 101.965 77.0171C101.938 77.1474 101.873 77.2671 101.777 77.3611C101.681 77.455 101.558 77.519 101.425 77.545C101.291 77.5709 101.153 77.5576 101.027 77.5067C100.902 77.4559 100.794 77.3698 100.719 77.2593C100.643 77.1488 100.603 77.0189 100.603 76.886C100.603 76.7079 100.676 76.5371 100.805 76.4112C100.934 76.2852 101.108 76.2143 101.291 76.2141ZM91.6655 85.6204C91.8015 85.6204 91.9344 85.6598 92.0475 85.7336C92.1605 85.8074 92.2487 85.9124 92.3007 86.0351C92.3527 86.1579 92.3663 86.293 92.3398 86.4233C92.3133 86.5536 92.2478 86.6734 92.1517 86.7673C92.0555 86.8613 91.933 86.9253 91.7997 86.9512C91.6663 86.9771 91.5281 86.9638 91.4024 86.913C91.2768 86.8621 91.1694 86.776 91.0939 86.6655C91.0183 86.555 90.978 86.4251 90.978 86.2922C90.9783 86.1141 91.0508 85.9434 91.1797 85.8174C91.3085 85.6915 91.4833 85.6206 91.6655 85.6204ZM84.7905 78.9016C84.9265 78.9016 85.0594 78.941 85.1725 79.0148C85.2855 79.0887 85.3737 79.1936 85.4257 79.3164C85.4777 79.4391 85.4913 79.5742 85.4648 79.7046C85.4383 79.8349 85.3728 79.9546 85.2767 80.0486C85.1805 80.1425 85.058 80.2065 84.9247 80.2325C84.7913 80.2584 84.6531 80.2451 84.5274 80.1942C84.4018 80.1434 84.2944 80.0573 84.2189 79.9468C84.1433 79.8363 84.103 79.7064 84.103 79.5735C84.1033 79.3954 84.1758 79.2246 84.3047 79.0987C84.4335 78.9727 84.6083 78.9018 84.7905 78.9016ZM75.1655 88.3079C75.3015 88.3079 75.4344 88.3473 75.5475 88.4211C75.6605 88.4949 75.7487 88.5999 75.8007 88.7226C75.8527 88.8454 75.8663 88.9805 75.8398 89.1108C75.8133 89.2411 75.7478 89.3609 75.6517 89.4548C75.5555 89.5488 75.433 89.6128 75.2997 89.6387C75.1663 89.6646 75.0281 89.6513 74.9024 89.6005C74.7768 89.5496 74.6694 89.4635 74.5939 89.353C74.5183 89.2425 74.478 89.1126 74.478 88.9797C74.4783 88.8016 74.5508 88.6309 74.6797 88.5049C74.8085 88.379 74.9833 88.3081 75.1655 88.3079ZM111.576 97.7141C111.578 95.8373 111.072 93.9935 110.111 92.3686C109.15 90.7437 107.768 89.3953 106.103 88.4595V72.1829H106.791C107.338 72.1829 107.862 71.9705 108.249 71.5925C108.636 71.2145 108.853 70.7018 108.853 70.1672C108.853 69.6327 108.636 69.12 108.249 68.742C107.862 68.364 107.338 68.1516 106.791 68.1516H69.6655C69.1185 68.1516 68.5939 68.364 68.2071 68.742C67.8203 69.12 67.603 69.6327 67.603 70.1672C67.603 70.7018 67.8203 71.2145 68.2071 71.5925C68.5939 71.9705 69.1185 72.1829 69.6655 72.1829H70.353V93.6829H69.6655C69.1185 93.6829 68.5939 93.8952 68.2071 94.2732C67.8203 94.6512 67.603 95.1639 67.603 95.6985C67.603 96.2331 67.8203 96.7457 68.2071 97.1237C68.5939 97.5018 69.1185 97.7141 69.6655 97.7141H78.57L74.5103 110.278C74.483 110.362 74.473 110.45 74.4808 110.538C74.4886 110.626 74.5141 110.712 74.5558 110.79C74.5974 110.868 74.6544 110.938 74.7236 110.994C74.7927 111.051 74.8726 111.094 74.9587 111.12C75.0256 111.141 75.0953 111.152 75.1655 111.152C75.3117 111.152 75.454 111.106 75.5719 111.022C75.6897 110.937 75.7769 110.818 75.8208 110.682L77.8401 104.433H92.0197C92.9706 105.605 94.1656 106.567 95.5256 107.254C96.8856 107.941 98.3794 108.337 99.9081 108.417L100.634 110.681C100.689 110.85 100.81 110.992 100.972 111.075C101.133 111.157 101.322 111.173 101.496 111.12C101.67 111.067 101.815 110.949 101.899 110.791C101.984 110.633 102.001 110.449 101.947 110.279L101.353 108.426C104.126 108.232 106.722 107.02 108.619 105.033C110.515 103.046 111.572 100.431 111.576 97.7141ZM69.6655 70.8391C69.4832 70.8391 69.3083 70.7683 69.1794 70.6423C69.0505 70.5163 68.978 70.3454 68.978 70.1672C68.978 69.989 69.0505 69.8181 69.1794 69.6921C69.3083 69.5661 69.4832 69.4954 69.6655 69.4954H106.791C106.973 69.4954 107.148 69.5661 107.277 69.6921C107.406 69.8181 107.478 69.989 107.478 70.1672C107.478 70.3454 107.406 70.5163 107.277 70.6423C107.148 70.7683 106.973 70.8391 106.791 70.8391H69.6655ZM104.728 72.1829V87.7815C103.394 87.2385 101.962 86.9607 100.516 86.9641C99.071 86.9675 97.6408 87.2522 96.3091 87.8015C94.9774 88.3509 93.7709 89.1538 92.7601 90.1636C91.7493 91.1733 90.9544 92.3697 90.4216 93.6829H71.728V72.1829H104.728ZM69.6655 96.3704C69.4832 96.3704 69.3083 96.2996 69.1794 96.1736C69.0505 96.0476 68.978 95.8767 68.978 95.6985C68.978 95.5203 69.0505 95.3494 69.1794 95.2234C69.3083 95.0974 69.4832 95.0266 69.6655 95.0266H89.9534C89.833 95.4675 89.7471 95.9167 89.6963 96.3704H69.6655ZM78.2743 103.089L79.9458 97.9162C79.9639 97.8504 79.9714 97.7822 79.968 97.7141H89.5762C89.5781 99.6055 90.0995 101.462 91.0859 103.089H78.2743ZM100.587 107.126C100.562 107.122 100.538 107.119 100.513 107.117L100.475 107.112C100.461 107.111 100.447 107.107 100.433 107.107C97.9079 107.068 95.5 106.062 93.7268 104.305C91.9537 102.548 90.957 100.182 90.9512 97.7141C90.952 97.4992 90.9654 97.2845 90.9915 97.0711C91.0278 96.2175 91.2051 95.3753 91.5165 94.5771C92.1773 92.7445 93.4036 91.1574 95.0262 90.0346C96.6488 88.9117 98.5879 88.3084 100.576 88.3079C102.152 88.3071 103.702 88.6902 105.088 89.4226L105.095 89.4266C106.99 90.4102 108.494 91.9851 109.368 93.9007C110.242 95.8162 110.435 97.9623 109.916 99.9974C109.398 102.033 108.198 103.84 106.508 105.132C104.817 106.423 102.733 107.126 100.587 107.126H100.587ZM108.676 96.1976L108.676 96.1932L108.674 96.1865L108.673 96.1807L108.672 96.1771C108.536 95.4846 108.305 94.8132 107.986 94.1809C107.968 94.145 107.947 94.1109 107.923 94.0792C107.423 93.0969 106.719 92.2275 105.856 91.5268C104.705 90.5853 103.312 89.9694 101.828 89.7457C100.344 89.522 98.826 89.699 97.4377 90.2577C96.0495 90.8164 94.844 91.7354 93.9517 92.9153C93.0593 94.0952 92.5141 95.4911 92.375 96.9519L92.3719 96.9609L92.3712 96.9718L92.3692 96.9825L92.3701 96.9904C92.3409 97.2306 92.3262 97.4722 92.3262 97.7141C92.3248 99.0079 92.6427 100.283 93.2531 101.431C93.8634 102.579 94.7481 103.566 95.8321 104.309C96.8976 105.044 98.1289 105.517 99.4214 105.687C99.8032 105.747 100.189 105.777 100.576 105.777C102.763 105.774 104.861 104.924 106.407 103.413C107.954 101.901 108.824 99.8517 108.826 97.7141C108.829 97.2049 108.779 96.6968 108.676 96.1976ZM100.576 104.433C100.257 104.433 99.938 104.408 99.6228 104.358C98.543 104.218 97.5142 103.824 96.6244 103.21C95.7205 102.591 94.9827 101.769 94.4738 100.812C93.9648 99.8552 93.6998 98.7925 93.7012 97.7141C93.7011 97.5168 93.7127 97.3196 93.7361 97.1236L93.7353 97.1138L93.7388 97.102C93.8505 95.882 94.302 94.7152 95.0444 93.7284C95.7868 92.7415 96.7916 91.9723 97.9498 91.5042C99.108 91.0362 100.375 90.8871 101.614 91.0733C102.853 91.2594 104.016 91.7737 104.976 92.5602C105.719 93.1608 106.318 93.9122 106.733 94.7622C106.751 94.8002 106.773 94.8364 106.799 94.8705C107.041 95.3697 107.218 95.8971 107.325 96.44L107.328 96.4464L107.328 96.4524C107.413 96.8678 107.454 97.2906 107.451 97.7142C107.449 99.4955 106.724 101.203 105.435 102.463C104.146 103.722 102.399 104.431 100.576 104.433ZM103.67 97.0422H102.499C102.466 96.941 102.425 96.8424 102.375 96.7476C102.329 96.6553 102.272 96.5678 102.208 96.4865C101.966 96.1837 101.637 95.9579 101.264 95.8378V94.0188C101.264 93.8406 101.191 93.6697 101.062 93.5437C100.933 93.4177 100.759 93.3469 100.576 93.3469C100.394 93.3469 100.219 93.4177 100.09 93.5437C99.9611 93.6697 99.8887 93.8406 99.8887 94.0188V95.8299C99.6748 95.8946 99.474 95.9951 99.2952 96.1269C99.0882 96.2793 98.9192 96.4756 98.801 96.7011C98.795 96.7111 98.7938 96.7225 98.788 96.7326C98.7825 96.7436 98.7726 96.7536 98.7675 96.7647C98.7614 96.7778 98.7631 96.7919 98.7579 96.8052C98.5737 97.1412 98.4934 97.5223 98.5268 97.9021C98.5602 98.2819 98.7058 98.644 98.946 98.9444C99.1703 99.2322 99.4702 99.4552 99.814 99.5895C100.158 99.7239 100.532 99.7646 100.898 99.7073C101.263 99.65 101.606 99.4968 101.89 99.2641C102.173 99.0314 102.387 98.7279 102.507 98.386H103.67C103.852 98.386 104.027 98.3152 104.156 98.1892C104.285 98.0632 104.357 97.8923 104.357 97.7141C104.357 97.5359 104.285 97.365 104.156 97.239C104.027 97.113 103.852 97.0422 103.67 97.0422H103.67ZM100.994 98.2443C100.923 98.2993 100.841 98.3398 100.753 98.3632C100.666 98.3867 100.574 98.3926 100.484 98.3808C100.394 98.3689 100.307 98.3394 100.229 98.2941C100.151 98.2488 100.083 98.1885 100.03 98.117C99.9431 98.0017 99.8956 97.863 99.8937 97.7201C99.8918 97.5771 99.9355 97.4372 100.019 97.3198C100.052 97.2662 100.095 97.2194 100.147 97.182C100.26 97.1033 100.395 97.0594 100.534 97.056C100.559 97.0527 100.585 97.051 100.61 97.0506C100.67 97.0567 100.729 97.0712 100.785 97.0939C100.823 97.1029 100.86 97.1151 100.896 97.1305C101 97.1919 101.089 97.2739 101.158 97.3711C101.222 97.4747 101.259 97.5928 101.264 97.7141C101.264 97.817 101.24 97.9185 101.193 98.0106C101.146 98.1027 101.078 98.1827 100.994 98.2443Z" fill="black"/>
</g>
<defs>
<clipPath id="clip0_93_516">
<rect width="44" height="43" fill="white" transform="translate(67.603 68.1516)"/>
</clipPath>
</defs>
</svg>
