<svg width="179" height="179" viewBox="0 0 179 179" fill="none" xmlns="http://www.w3.org/2000/svg">
<path d="M121.423 127.074C121.126 136.307 110.946 141.756 103.098 136.883L41.2845 98.4972C33.437 93.6239 33.8077 82.0829 41.9519 77.7233L106.102 43.384C114.246 39.0244 124.055 45.1161 123.759 54.3489L121.423 127.074Z" fill="#FFCE1E"/>
<g clip-path="url(#clip0_72_363)">
<path d="M107.478 91.9238V89.8907C107.475 89.8676 107.47 89.8447 107.464 89.8221C108.438 89.2792 109.218 88.4572 109.698 87.4671C110.179 86.4771 110.337 85.3667 110.151 84.2862C109.965 83.2056 109.443 82.2069 108.658 81.4251C107.872 80.6433 106.86 80.1161 105.758 79.9147C105.655 79.8508 105.537 79.8155 105.415 79.8125H105.058C105.021 79.8166 104.984 79.8238 104.948 79.834C104.874 79.834 104.804 79.8125 104.728 79.8125C103.517 79.8088 102.34 80.1967 101.379 80.9158C100.417 81.6348 99.7268 82.6444 99.4144 83.7873C99.102 84.9301 99.1854 86.1419 99.6516 87.2336C100.118 88.3252 100.941 89.2354 101.992 89.8221C101.986 89.8447 101.981 89.8676 101.978 89.8907V91.9063V91.9291C101.52 91.9519 101.069 92.0467 100.641 92.21C99.8944 90.8033 98.7905 89.6075 97.4354 88.737C96.0802 87.8665 94.5191 87.3504 92.9015 87.2381C92.9015 87.1642 92.9235 87.0943 92.9235 87.0191V84.4404C92.9201 84.3767 92.9071 84.3137 92.885 84.2536C93.9564 83.6829 94.8514 82.8415 95.4764 81.8173C96.1014 80.7931 96.4335 79.6237 96.438 78.4312C96.438 78.2565 96.3982 78.0912 96.3858 77.9205C96.417 77.7826 96.4021 77.6384 96.3432 77.5094C96.1239 75.9139 95.3198 74.4503 94.0799 73.3905C92.84 72.3306 91.2488 71.7465 89.6015 71.7465C87.9543 71.7465 86.363 72.3306 85.1232 73.3905C83.8833 74.4503 83.0791 75.9139 82.8599 77.5094C82.823 77.5916 82.8034 77.6803 82.8022 77.77C82.8078 77.7984 82.8156 77.8262 82.8255 77.8534C82.8077 78.0469 82.765 78.2336 82.765 78.4312C82.7696 79.6237 83.1017 80.7931 83.7267 81.8173C84.3517 82.8415 85.2466 83.6829 86.318 84.2536C86.2959 84.3137 86.283 84.3767 86.2795 84.4404V87.0164C86.2795 87.0916 86.2974 87.1615 86.3015 87.2354C84.6839 87.3477 83.1228 87.8638 81.7677 88.7343C80.4125 89.6048 79.3087 90.8006 78.5617 92.2073C78.1352 92.0452 77.6849 91.9513 77.2279 91.9291V91.9063V89.8907C77.2246 89.8676 77.22 89.8447 77.2142 89.8221C78.2219 89.2627 79.0215 88.4044 79.4971 87.3715C79.9727 86.3386 80.0997 85.1846 79.8598 84.0764C79.6199 82.9683 79.0254 81.9634 78.1625 81.2073C77.2995 80.4512 76.2128 79.9829 75.0595 79.8703C75.0686 79.7954 75.0644 79.7195 75.0472 79.6459C74.9165 79.135 74.6646 78.6613 74.3117 78.2632C73.9588 77.8652 73.515 77.554 73.0161 77.3548C72.5172 77.1556 71.9773 77.0742 71.4402 77.1169C70.9031 77.1597 70.3838 77.3255 69.9245 77.601C69.4652 77.8765 69.0787 78.2538 68.7965 78.7024C68.5142 79.151 68.344 79.6584 68.2998 80.1832C68.2555 80.7081 68.3384 81.2358 68.5418 81.7235C68.7451 82.2113 69.0632 82.6453 69.4702 82.9905C68.9039 84.2003 68.8231 85.5737 69.2437 86.8389C69.6644 88.1041 70.5559 89.1688 71.7417 89.8221C71.7358 89.8447 71.7312 89.8676 71.7279 89.8907V91.9238C70.6211 91.9661 69.5739 92.4248 68.8051 93.2041C68.0364 93.9835 67.6056 95.023 67.6029 96.1055V101.984C67.6029 102.519 67.8202 103.032 68.207 103.41C68.5938 103.788 69.1184 104 69.6654 104H79.2904C79.4236 103.999 79.5538 103.961 79.6652 103.889C79.7765 103.818 79.8641 103.716 79.9174 103.597C80.4726 103.859 81.0803 103.996 81.6967 104H97.5092C98.1255 103.996 98.7333 103.859 99.2884 103.597C99.3417 103.716 99.4293 103.818 99.5407 103.889C99.652 103.961 99.7822 103.999 99.9154 104H109.54C110.087 104 110.612 103.788 110.999 103.41C111.386 103.032 111.603 102.519 111.603 101.984V96.1055C111.6 95.023 111.169 93.9835 110.401 93.2041C109.632 92.4248 108.585 91.9661 107.478 91.9238ZM104.728 81.1563C105.559 81.1585 106.37 81.4062 107.055 81.8668C107.74 82.3275 108.267 82.9796 108.566 83.7376L105.106 82.7769C104.372 82.5743 103.589 82.6149 102.881 82.8924L100.912 83.6691C101.221 82.9272 101.749 82.292 102.428 81.8445C103.108 81.397 103.908 81.1574 104.728 81.1563ZM100.603 85.1875C100.691 85.1877 100.778 85.1712 100.86 85.1392L103.396 84.1394C103.82 83.9741 104.288 83.9495 104.728 84.0695L108.662 85.162C108.723 85.1756 108.786 85.1806 108.849 85.1768V85.1875C108.849 86.2567 108.414 87.2821 107.641 88.0381C106.867 88.7941 105.818 89.2188 104.724 89.2188C103.63 89.2188 102.581 88.7941 101.807 88.0381C101.033 87.2821 100.599 86.2567 100.599 85.1875H100.603ZM106.103 90.3717V91.9063C106.103 92.2627 105.958 92.6045 105.7 92.8565C105.442 93.1085 105.093 93.25 104.728 93.25C104.363 93.25 104.013 93.1085 103.756 92.8565C103.498 92.6045 103.353 92.2627 103.353 91.9063V90.3717C104.251 90.6262 105.205 90.6262 106.103 90.3717ZM89.6029 73.0938C90.7587 73.0976 91.8834 73.4603 92.8144 74.1296C93.7455 74.7989 94.4347 75.7402 94.7825 76.8173L89.7308 75.448C89.0282 75.2571 88.2816 75.29 87.5995 75.5421L84.4618 76.6964C84.829 75.648 85.5215 74.7376 86.443 74.0918C87.3645 73.4461 88.469 73.0972 89.6029 73.0938ZM84.1414 78.4312C84.1414 78.3667 84.1579 78.3075 84.1607 78.243L88.0904 76.7999C88.4996 76.6481 88.9477 76.6284 89.3692 76.7434L95.0562 78.2847C95.0562 78.3344 95.0713 78.3815 95.0713 78.4312C95.0713 79.8467 94.4959 81.2043 93.4716 82.2053C92.4474 83.2062 91.0583 83.7685 89.6098 83.7685C88.1613 83.7685 86.7721 83.2062 85.7479 82.2053C84.7237 81.2043 84.1483 79.8467 84.1483 78.4312H84.1414ZM91.5513 84.8032V87.0177C91.5378 87.5138 91.3267 87.9851 90.9629 88.3313C90.5991 88.6775 90.1114 88.8712 89.6036 88.8712C89.0958 88.8712 88.6081 88.6775 88.2443 88.3313C87.8805 87.9851 87.6694 87.5138 87.6559 87.0177V84.8032C88.92 85.2163 90.2872 85.2163 91.5513 84.8032ZM74.4779 81.1563C75.3964 81.1598 76.2874 81.4629 77.0098 82.0174C77.7321 82.5719 78.2444 83.3461 78.4654 84.2174C77.4408 84.1201 76.4431 83.8405 75.5215 83.3923C75.4135 83.3277 75.2893 83.2935 75.1627 83.2935C75.036 83.2935 74.9118 83.3277 74.8038 83.3923C73.4345 84.0122 71.9471 84.3437 70.4382 84.3652C70.6316 83.458 71.1389 82.6437 71.8746 82.0593C72.6104 81.4748 73.5297 81.156 74.4779 81.1563ZM69.6654 80.4844C69.6654 79.9498 69.8827 79.4372 70.2695 79.0592C70.6563 78.6812 71.1809 78.4688 71.7279 78.4688C72.1658 78.4708 72.5914 78.6102 72.9422 78.8664C73.2929 79.1226 73.5503 79.482 73.6763 79.8918C72.3133 80.09 71.0771 80.784 70.2154 81.8349C69.8659 81.4677 69.6697 80.9859 69.6654 80.4844ZM70.4065 85.7022C72.0401 85.6633 73.6528 85.3336 75.1654 84.7293C76.2445 85.188 77.3905 85.4787 78.5617 85.5907C78.4649 86.573 78.0008 87.486 77.2582 88.1549C76.5157 88.8237 75.5468 89.2015 74.537 89.2158C73.5273 89.2301 72.5476 88.88 71.7855 88.2324C71.0234 87.5849 70.5324 86.6854 70.4065 85.7062V85.7022ZM75.8529 90.3717V91.9063C75.8529 92.2627 75.708 92.6045 75.4502 92.8565C75.1923 93.1085 74.8426 93.25 74.4779 93.25C74.1132 93.25 73.7635 93.1085 73.5056 92.8565C73.2478 92.6045 73.1029 92.2627 73.1029 91.9063V90.3717C73.551 90.4925 74.0131 90.5566 74.4779 90.5625C74.9427 90.5566 75.4048 90.4925 75.8529 90.3717ZM69.6654 102.656C69.4831 102.656 69.3082 102.586 69.1793 102.46C69.0503 102.334 68.9779 102.163 68.9779 101.984V96.1055C68.9786 95.3484 69.2867 94.6225 69.8345 94.0872C70.3823 93.5518 71.1251 93.2508 71.8998 93.25H72.1102C72.3502 93.6614 72.6982 94.0027 73.1181 94.2389C73.5381 94.4751 74.015 94.5976 74.4995 94.5938C74.984 94.59 75.4588 94.4599 75.8748 94.2171C76.2908 93.9743 76.6331 93.6275 76.8663 93.2124C76.9273 93.2339 76.9912 93.2466 77.056 93.25C77.3875 93.2565 77.7153 93.3183 78.0254 93.4328C77.6761 94.4057 77.4967 95.4292 77.4947 96.4603V99.8935C77.4958 100.918 77.8915 101.904 78.6029 102.656H69.6654ZM100.336 99.8935C100.335 100.626 100.037 101.328 99.5073 101.846C98.9773 102.364 98.2587 102.656 97.5092 102.656H81.6967C80.9471 102.656 80.2285 102.364 79.6985 101.846C79.1685 101.328 78.8704 100.626 78.8697 99.8935V96.4603C78.8731 94.409 79.691 92.4391 81.1512 90.9655C82.6114 89.4919 84.5997 88.6296 86.6975 88.5604C86.9781 89.0752 87.3967 89.5059 87.9085 89.8062C88.4203 90.1064 89.006 90.2651 89.6029 90.2651C90.1998 90.2651 90.7855 90.1064 91.2973 89.8062C91.8091 89.5059 92.2277 89.0752 92.5083 88.5604C94.6061 88.6296 96.5945 89.4919 98.0546 90.9655C99.5148 92.4391 100.333 94.409 100.336 96.4603V99.8935ZM110.228 101.984C110.228 102.163 110.155 102.334 110.027 102.46C109.898 102.586 109.723 102.656 109.54 102.656H100.603C101.316 101.905 101.714 100.919 101.717 99.8935V96.4603C101.715 95.4292 101.535 94.4057 101.186 93.4328C101.494 93.3189 101.82 93.2571 102.15 93.25H102.36C102.6 93.6614 102.948 94.0027 103.368 94.2389C103.788 94.4751 104.265 94.5976 104.75 94.5938C105.234 94.59 105.709 94.4599 106.125 94.2171C106.541 93.9743 106.883 93.6275 107.116 93.2124C107.177 93.2339 107.241 93.2466 107.306 93.25C108.081 93.2508 108.824 93.5518 109.371 94.0872C109.919 94.6225 110.227 95.3484 110.228 96.1055V101.984Z" fill="black"/>
</g>
<defs>
<clipPath id="clip0_72_363">
<rect width="44" height="43" fill="white" transform="translate(67.6029 61)"/>
</clipPath>
</defs>
</svg>
