<svg width="179" height="179" viewBox="0 0 179 179" fill="none" xmlns="http://www.w3.org/2000/svg">
<path d="M121.423 127.074C121.126 136.307 110.946 141.756 103.098 136.883L41.2846 98.4972C33.437 93.6239 33.8078 82.0829 41.952 77.7233L106.102 43.384C114.246 39.0244 124.055 45.1161 123.759 54.3489L121.423 127.074Z" fill="#FFCE1E"/>
<g clip-path="url(#clip0_93_522)">
<path d="M106.961 72.2246L96.0298 68.2618C95.9259 68.2242 95.8143 68.2116 95.7043 68.2252C95.5944 68.2387 95.4894 68.2781 95.3984 68.3398C95.3074 68.4016 95.233 68.484 95.1816 68.5799C95.1302 68.6758 95.1032 68.7824 95.103 68.8907V82.9329H84.1374V81.5892C84.1341 81.5661 84.1295 81.5432 84.1237 81.5206C85.1747 80.9339 85.9975 80.0237 86.4638 78.9321C86.93 77.8404 87.0134 76.6286 86.701 75.4858C86.3885 74.3429 85.6979 73.3332 84.7367 72.6142C83.7755 71.8952 82.5979 71.5073 81.3874 71.511C81.2939 71.511 81.2073 71.5339 81.1124 71.5379C81.0889 71.5321 81.065 71.5276 81.0409 71.5245C80.9689 71.5271 80.8979 71.5412 80.8305 71.5661C79.6746 71.6739 78.584 72.139 77.7169 72.8937C76.8498 73.6485 76.2514 74.6536 76.0086 75.7633C75.7658 76.873 75.8913 78.0294 76.3667 79.0647C76.8421 80.1 77.6428 80.9603 78.6525 81.5206C78.6467 81.5432 78.6421 81.5661 78.6388 81.5892V82.9329C76.9978 82.9329 75.424 83.57 74.2636 84.704C73.1032 85.838 72.4513 87.3761 72.4513 88.9798V97.0423C72.4513 97.4834 72.5402 97.9203 72.713 98.3279C72.8857 98.7354 73.1389 99.1058 73.4581 99.4177C73.7773 99.7297 74.1563 99.9771 74.5733 100.146C74.9904 100.315 75.4374 100.402 75.8888 100.402H76.5763V109.136C76.5763 109.671 76.7936 110.183 77.1804 110.561C77.5672 110.939 78.0918 111.152 78.6388 111.152H84.268C84.7932 111.153 85.2989 110.958 85.6821 110.607C86.0654 110.256 86.2973 109.776 86.3305 109.264L86.2082 97.088L87.4072 88.8911C87.4308 88.7299 87.5136 88.5826 87.64 88.4766C87.7665 88.3705 87.928 88.313 88.0947 88.3146H95.103V110.48C95.103 110.658 95.1755 110.829 95.3044 110.955C95.4333 111.081 95.6082 111.152 95.7905 111.152C95.9729 111.152 96.1477 111.081 96.2767 110.955C96.4056 110.829 96.478 110.658 96.478 110.48V87.9343C96.8956 87.7015 97.2427 87.3649 97.4841 86.9586C97.7256 86.5523 97.8527 86.0909 97.8527 85.6211C97.8527 85.1513 97.7256 84.6898 97.4841 84.2835C97.2427 83.8773 96.8956 83.5406 96.478 83.3078V77.2892L106.961 73.4877C107.092 73.4398 107.206 73.3539 107.286 73.2414C107.366 73.1288 107.408 72.9951 107.408 72.8581C107.408 72.7212 107.366 72.5874 107.286 72.4749C107.206 72.3624 107.092 72.2764 106.961 72.2286V72.2246ZM81.386 72.8548C82.3451 72.856 83.2737 73.1837 84.0122 73.7816C84.7507 74.3795 85.253 75.2102 85.4327 76.1308L83.2327 75.2641C82.525 74.9865 81.7433 74.9454 81.0093 75.1472L77.3367 76.1671C77.5088 75.2391 78.0083 74.3995 78.7485 73.7943C79.4886 73.1891 80.4224 72.8566 81.3874 72.8548H81.386ZM77.3312 77.5418C77.3713 77.5422 77.4113 77.539 77.4508 77.5324L81.3847 76.4399C81.8254 76.3182 82.2949 76.3428 82.7198 76.5098L85.2553 77.5095C85.3165 77.5303 85.3804 77.5425 85.445 77.5458C85.288 78.4865 84.7938 79.342 84.0507 79.9593C83.3076 80.5766 82.3641 80.9156 81.3888 80.9156C80.4135 80.9156 79.47 80.5766 78.7269 79.9593C77.9838 79.342 77.4896 78.4865 77.3325 77.5458L77.3312 77.5418ZM82.7638 82.0702V84.2767C82.7638 84.633 82.6189 84.9748 82.3611 85.2268C82.1032 85.4788 81.7535 85.6204 81.3888 85.6204C81.0241 85.6204 80.6744 85.4788 80.4165 85.2268C80.1587 84.9748 80.0138 84.633 80.0138 84.2767V82.0702C80.4619 82.191 80.924 82.2551 81.3888 82.261C81.8531 82.255 82.3148 82.1909 82.7624 82.0702H82.7638ZM76.5749 97.0423V99.0579H75.8874C75.3404 99.0579 74.8158 98.8455 74.429 98.4675C74.0422 98.0895 73.8249 97.5769 73.8249 97.0423V96.3704H76.5749V97.0423ZM84.268 109.808H82.0749V101.074C82.0749 100.895 82.0025 100.724 81.8736 100.598C81.7446 100.472 81.5698 100.402 81.3874 100.402C81.2051 100.402 81.0302 100.472 80.9013 100.598C80.7724 100.724 80.6999 100.895 80.6999 101.074V109.808H78.6374C78.4551 109.808 78.2802 109.737 78.1513 109.611C78.0224 109.485 77.9499 109.314 77.9499 109.136V97.7142H84.8249L84.9459 109.203C84.929 109.368 84.8504 109.521 84.7253 109.632C84.6003 109.744 84.4374 109.806 84.268 109.808ZM93.0749 86.9642H88.0809C87.585 86.9661 87.1061 87.1418 86.7315 87.4594C86.3568 87.777 86.1111 88.2154 86.039 88.6949L84.917 96.3704H77.9499V93.011C77.9499 92.8328 77.8775 92.6619 77.7486 92.5359C77.6196 92.4099 77.4448 92.3392 77.2624 92.3392C77.0801 92.3392 76.9052 92.4099 76.7763 92.5359C76.6474 92.6619 76.5749 92.8328 76.5749 93.011V95.0267H73.8249V88.9798C73.8249 87.7324 74.3319 86.5362 75.2345 85.6542C76.137 84.7722 77.3611 84.2767 78.6374 84.2767C78.6374 84.9894 78.9271 85.673 79.4429 86.177C79.9586 86.681 80.6581 86.9642 81.3874 86.9642C82.1168 86.9642 82.8162 86.681 83.332 86.177C83.8477 85.673 84.1374 84.9894 84.1374 84.2767H93.0749V86.9642ZM95.103 86.9642H94.4499V84.2767H95.103C95.4677 84.2767 95.8175 84.4182 96.0753 84.6702C96.3332 84.9222 96.478 85.264 96.478 85.6204C96.478 85.9768 96.3332 86.3186 96.0753 86.5706C95.8175 86.8226 95.4677 86.9642 95.103 86.9642ZM96.478 75.8527V69.8569L104.746 72.8548L96.478 75.8527Z" fill="black"/>
</g>
<defs>
<clipPath id="clip0_93_522">
<rect width="44" height="43" fill="white" transform="translate(67.603 68.1516)"/>
</clipPath>
</defs>
</svg>
