<svg width="212" height="151" viewBox="0 0 212 151" fill="none" xmlns="http://www.w3.org/2000/svg">
<g clip-path="url(#clip0_145_1856)">
<path fill-rule="evenodd" clip-rule="evenodd" d="M159 151H53C38.9437 151 25.4633 147.022 15.524 139.943C5.58473 132.863 0.000614922 123.262 0 113.25L0 37.75C0.000614922 27.7382 5.58473 18.1366 15.524 11.0572C25.4633 3.9778 38.9437 0.000437987 53 0L159 0C173.056 0 186.537 3.97722 196.477 11.0567C206.416 18.1362 212 27.7381 212 37.75V113.25C212 123.262 206.416 132.864 196.477 139.943C186.537 147.023 173.056 151 159 151Z" fill="#FF5500"/>
<path fill-rule="evenodd" clip-rule="evenodd" d="M99.375 42.4688H159C166.643 42.4684 173.994 40.3775 179.534 36.6279C185.075 32.8783 188.382 27.7563 188.774 22.3197C189.165 16.8831 186.61 11.5472 181.636 7.41378C176.662 3.2804 169.65 0.665301 162.048 0.108531C161.034 0.0684219 160.03 0 159 0H53C38.9437 0.000437987 25.4633 3.9778 15.524 11.0572C5.58473 18.1366 0.000614922 27.7382 0 37.75L0 113.25C0.000614945 94.4778 10.4706 76.4745 29.1069 63.2006C47.7432 49.9266 73.0193 42.4692 99.375 42.4688Z" fill="#FF7D00"/>
<path fill-rule="evenodd" clip-rule="evenodd" d="M159 75.5C148.518 75.5 138.271 77.714 129.555 81.862C120.839 86.01 114.046 91.9058 110.034 98.8037C106.023 105.702 104.973 113.292 107.018 120.615C109.063 127.937 114.111 134.664 121.523 139.943C128.936 145.223 138.379 148.818 148.66 150.275C158.941 151.731 169.598 150.984 179.282 148.126C188.967 145.269 197.244 140.431 203.068 134.223C208.892 128.015 212 120.716 212 113.25V37.75C212 47.7619 206.416 57.3638 196.477 64.4433C186.537 71.5228 173.056 75.5 159 75.5Z" fill="#FF0000"/>
<path fill-rule="evenodd" clip-rule="evenodd" d="M26.5 84.9375C26.5 84.3118 26.151 83.7116 25.5298 83.2692C24.9086 82.8267 24.066 82.5781 23.1875 82.5781C22.309 82.5781 21.4664 82.8267 20.8452 83.2692C20.224 83.7116 19.875 84.3118 19.875 84.9375V94.375C19.875 95.0007 20.224 95.6009 20.8452 96.0433C21.4664 96.4858 22.309 96.7344 23.1875 96.7344C24.066 96.7344 24.9086 96.4858 25.5298 96.0433C26.151 95.6009 26.5 95.0007 26.5 94.375V84.9375Z" fill="white"/>
<path fill-rule="evenodd" clip-rule="evenodd" d="M39.75 77.8594C39.75 77.2336 39.401 76.6335 38.7798 76.191C38.1586 75.7486 37.316 75.5 36.4375 75.5C35.559 75.5 34.7164 75.7486 34.0952 76.191C33.474 76.6335 33.125 77.2336 33.125 77.8594V101.453C33.125 102.079 33.474 102.679 34.0952 103.121C34.7164 103.564 35.559 103.812 36.4375 103.812C37.316 103.812 38.1586 103.564 38.7798 103.121C39.401 102.679 39.75 102.079 39.75 101.453V77.8594Z" fill="white"/>
<path fill-rule="evenodd" clip-rule="evenodd" d="M53 80.2188C53 79.593 52.651 78.9929 52.0298 78.5504C51.4086 78.1079 50.566 77.8594 49.6875 77.8594C48.809 77.8594 47.9664 78.1079 47.3452 78.5504C46.724 78.9929 46.375 79.593 46.375 80.2188V101.453C46.375 102.079 46.724 102.679 47.3452 103.121C47.9664 103.564 48.809 103.812 49.6875 103.812C50.566 103.812 51.4086 103.564 52.0298 103.121C52.651 102.679 53 102.079 53 101.453V80.2188Z" fill="white"/>
<path fill-rule="evenodd" clip-rule="evenodd" d="M66.25 70.7812C66.25 70.1555 65.901 69.5554 65.2798 69.1129C64.6586 68.6704 63.816 68.4219 62.9375 68.4219C62.059 68.4219 61.2164 68.6704 60.5952 69.1129C59.974 69.5554 59.625 70.1555 59.625 70.7812V101.453C59.625 102.079 59.974 102.679 60.5952 103.121C61.2164 103.564 62.059 103.812 62.9375 103.812C63.816 103.812 64.6586 103.564 65.2798 103.121C65.901 102.679 66.25 102.079 66.25 101.453V70.7812Z" fill="white"/>
<path fill-rule="evenodd" clip-rule="evenodd" d="M79.5 61.3438C79.5 60.718 79.151 60.1179 78.5298 59.6754C77.9086 59.2329 77.066 58.9844 76.1875 58.9844C75.309 58.9844 74.4664 59.2329 73.8452 59.6754C73.224 60.1179 72.875 60.718 72.875 61.3438V101.453C72.875 102.079 73.224 102.679 73.8452 103.121C74.4664 103.564 75.309 103.812 76.1875 103.812C77.066 103.812 77.9086 103.564 78.5298 103.121C79.151 102.679 79.5 102.079 79.5 101.453V61.3438Z" fill="white"/>
<path fill-rule="evenodd" clip-rule="evenodd" d="M92.75 63.7031C92.75 63.0774 92.401 62.4773 91.7798 62.0348C91.1586 61.5923 90.316 61.3438 89.4375 61.3438C88.559 61.3438 87.7164 61.5923 87.0952 62.0348C86.474 62.4773 86.125 63.0774 86.125 63.7031V101.453C86.125 102.079 86.474 102.679 87.0952 103.121C87.7164 103.564 88.559 103.812 89.4375 103.812C90.316 103.812 91.1586 103.564 91.7798 103.121C92.401 102.679 92.75 102.079 92.75 101.453V63.7031Z" fill="white"/>
<path fill-rule="evenodd" clip-rule="evenodd" d="M106 54.2656C106 53.6399 105.651 53.0398 105.03 52.5973C104.409 52.1548 103.566 51.9062 102.688 51.9062C101.809 51.9062 100.966 52.1548 100.345 52.5973C99.724 53.0398 99.375 53.6399 99.375 54.2656V101.453C99.375 102.079 99.724 102.679 100.345 103.121C100.966 103.564 101.809 103.812 102.688 103.812C103.566 103.812 104.409 103.564 105.03 103.121C105.651 102.679 106 102.079 106 101.453V54.2656Z" fill="white"/>
<path fill-rule="evenodd" clip-rule="evenodd" d="M112.625 51.9015C112.625 50.6511 113.322 49.4518 114.563 48.5674C115.804 47.683 117.488 47.1858 119.243 47.1852L119.25 47.1875C129.336 47.1918 139.145 49.5354 147.194 53.8638C155.243 58.1922 161.095 64.2699 163.863 71.1776C167.044 70.6695 170.341 70.645 173.537 71.1057C176.732 71.5665 179.756 72.502 182.41 73.8514C185.064 75.2007 187.288 76.9335 188.938 78.9367C190.588 80.9399 191.627 83.1683 191.985 85.4767C192.344 87.785 192.016 90.1213 191.021 92.3331C190.027 94.5449 188.389 96.5824 186.214 98.3127C184.039 100.043 181.376 101.427 178.399 102.375C175.422 103.323 172.198 103.812 168.938 103.813H119.25C118.38 103.813 117.518 103.691 116.714 103.454C115.911 103.217 115.18 102.869 114.565 102.431C113.95 101.993 113.462 101.472 113.129 100.9C112.796 100.327 112.625 99.7135 112.625 99.0938V51.9015Z" fill="white"/>
</g>
<defs>
<clipPath id="clip0_145_1856">
<rect width="212" height="151" fill="white"/>
</clipPath>
</defs>
</svg>
