<svg width="212" height="151" viewBox="0 0 212 151" fill="none" xmlns="http://www.w3.org/2000/svg">
<g clip-path="url(#clip0_145_1841)">
<path fill-rule="evenodd" clip-rule="evenodd" d="M159 151H53C38.9437 151 25.4633 147.022 15.524 139.943C5.58473 132.863 0.000614922 123.262 0 113.25L0 37.75C0.000614922 27.7382 5.58473 18.1366 15.524 11.0572C25.4633 3.9778 38.9437 0.000437987 53 0L159 0C173.056 0 186.537 3.97722 196.477 11.0567C206.416 18.1362 212 27.7381 212 37.75V113.25C212 123.262 206.416 132.864 196.477 139.943C186.537 147.023 173.056 151 159 151Z" fill="#1ED764"/>
<path fill-rule="evenodd" clip-rule="evenodd" d="M99.375 42.4688H159C166.643 42.4684 173.994 40.3775 179.534 36.6279C185.075 32.8783 188.382 27.7563 188.774 22.3197C189.165 16.8831 186.61 11.5472 181.636 7.41378C176.662 3.2804 169.65 0.665301 162.048 0.108531C161.034 0.0684219 160.03 0 159 0H53C38.9437 0.000437987 25.4633 3.9778 15.524 11.0572C5.58473 18.1366 0.000614922 27.7382 0 37.75L0 113.25C0.000614945 94.4778 10.4706 76.4745 29.1069 63.2006C47.7432 49.9266 73.0193 42.4692 99.375 42.4688Z" fill="#37F07D"/>
<path fill-rule="evenodd" clip-rule="evenodd" d="M159 75.5C148.518 75.5 138.271 77.714 129.555 81.862C120.839 86.01 114.046 91.9058 110.034 98.8037C106.023 105.702 104.973 113.292 107.018 120.615C109.063 127.937 114.111 134.664 121.523 139.943C128.936 145.223 138.379 148.818 148.66 150.275C158.941 151.731 169.598 150.984 179.282 148.126C188.967 145.269 197.244 140.431 203.068 134.223C208.892 128.015 212 120.716 212 113.25V37.75C212 47.7619 206.416 57.3638 196.477 64.4433C186.537 71.5228 173.056 75.5 159 75.5Z" fill="#05BE4B"/>
<path d="M154.333 111.006C153.884 111.531 153.294 111.988 152.597 112.35C151.9 112.713 151.11 112.974 150.271 113.118C149.432 113.263 148.562 113.289 147.709 113.193C146.857 113.098 146.039 112.884 145.303 112.563C120.562 101.793 89.4209 99.3604 52.7482 105.327C51.0529 105.599 49.2753 105.382 47.8051 104.722C46.3348 104.062 45.2921 103.013 44.9053 101.807C44.5186 100.6 44.8195 99.333 45.742 98.284C46.6645 97.235 48.1334 96.4894 49.8266 96.2106C89.9576 89.6751 124.384 92.4875 152.153 104.575C153.639 105.222 154.704 106.263 155.112 107.469C155.521 108.675 155.241 109.947 154.333 111.006ZM167.222 90.5717C166.657 91.2267 165.918 91.7962 165.045 92.2476C164.171 92.699 163.182 93.0234 162.133 93.2024C161.083 93.3814 159.995 93.4114 158.93 93.2908C157.864 93.1702 156.842 92.9012 155.923 92.4993C127.611 80.1031 84.4389 76.5145 50.9429 83.7555C49.91 83.981 48.8246 84.0592 47.7492 83.9856C46.6737 83.9119 45.6292 83.6879 44.6755 83.3262C43.7218 82.9646 42.8777 82.4724 42.1914 81.8781C41.5052 81.2837 40.9903 80.5987 40.6764 79.8623C40.3624 79.126 40.2555 78.3527 40.3618 77.5869C40.4681 76.8211 40.7855 76.0777 41.2957 75.3994C41.806 74.7211 42.4992 74.1211 43.3355 73.634C44.1719 73.1468 45.135 72.7819 46.1696 72.5602C84.4323 64.2906 132.003 68.2968 164.519 82.5286C166.374 83.3402 167.701 84.6434 168.208 86.1516C168.715 87.6598 168.36 89.2497 167.222 90.5717ZM168.335 69.2972C134.375 54.931 78.3572 53.6097 45.9377 60.6194C44.6985 60.8895 43.3966 60.9828 42.1067 60.894C40.8168 60.8052 39.5641 60.536 38.4205 60.1018C37.2768 59.6677 36.2646 59.0771 35.4419 58.3639C34.6191 57.6507 34.002 56.829 33.6258 55.9457C33.2496 55.0624 33.1217 54.1349 33.2495 53.2163C33.3773 52.2978 33.7582 51.4062 34.3705 50.5926C34.9827 49.7791 35.8143 49.0596 36.8176 48.4753C37.8208 47.891 38.976 47.4533 40.2171 47.1875C77.433 39.142 139.297 40.6969 178.391 57.2266C180.639 58.1765 182.264 59.7234 182.91 61.5269C183.556 63.3304 183.17 65.2428 181.836 66.8435C180.503 68.4441 178.331 69.6019 175.799 70.062C173.267 70.5222 170.582 70.2471 168.335 69.2972Z" fill="white"/>
</g>
<defs>
<clipPath id="clip0_145_1841">
<rect width="212" height="151" fill="white"/>
</clipPath>
</defs>
</svg>
