<svg width="212" height="148" viewBox="0 0 212 148" fill="none" xmlns="http://www.w3.org/2000/svg">
<path fill-rule="evenodd" clip-rule="evenodd" d="M159 148H53C38.9437 148 25.4633 144.101 15.524 137.162C5.58473 130.224 0.000614922 120.813 0 111L0 37C0.000614922 27.1871 5.58473 17.7763 15.524 10.8375C25.4633 3.89877 38.9437 0.000429285 53 0L159 0C173.056 0 186.537 3.8982 196.477 10.837C206.416 17.7759 212 27.187 212 37V111C212 120.813 206.416 130.224 196.477 137.163C186.537 144.102 173.056 148 159 148Z" fill="#199BDF"/>
<path fill-rule="evenodd" clip-rule="evenodd" d="M99.375 41.625H159C166.643 41.6247 173.994 39.5753 179.534 35.9002C185.075 32.2251 188.382 27.2048 188.774 21.8763C189.165 16.5477 186.61 11.3177 181.636 7.26648C176.662 3.21523 169.65 0.652083 162.048 0.106375C161.034 0.0670625 160.03 0 159 0H53C38.9437 0.000429285 25.4633 3.89877 15.524 10.8375C5.58473 17.7763 0.000614922 27.1871 0 37L0 111C0.000614945 92.6007 10.4706 74.9552 29.1069 61.9449C47.7432 48.9347 73.0193 41.6254 99.375 41.625Z" fill="#32B4FF"/>
<path fill-rule="evenodd" clip-rule="evenodd" d="M159 74C148.518 74 138.271 76.17 129.555 80.2356C120.839 84.3012 114.046 90.0798 110.034 96.8407C106.023 103.602 104.973 111.041 107.018 118.218C109.063 125.396 114.111 131.988 121.523 137.163C128.936 142.337 138.379 145.861 148.66 147.289C158.941 148.717 169.598 147.984 179.282 145.184C188.967 142.383 197.244 137.641 203.068 131.556C208.892 125.471 212 118.318 212 111V37C212 46.813 206.416 56.2241 196.477 63.163C186.537 70.1018 173.056 74 159 74Z" fill="#0082BE"/>
<path fill-rule="evenodd" clip-rule="evenodd" d="M149.328 39.3865C150.956 38.9171 152.734 38.7584 154.479 38.9266C156.224 39.0948 157.874 39.5839 159.259 40.3437C160.644 41.1035 161.716 42.1067 162.363 43.2506C163.01 44.3945 163.21 45.638 162.942 46.8536C159.081 64.38 152.004 96.496 148.247 113.544C147.987 114.723 147.295 115.836 146.239 116.775C145.183 117.713 143.798 118.446 142.218 118.901C140.637 119.357 138.915 119.52 137.218 119.375C135.521 119.23 133.907 118.782 132.53 118.074C119.24 111.238 99.3137 100.989 89.197 95.7837C88.4163 95.3821 87.7714 94.8657 87.3079 94.271C86.8444 93.6763 86.5736 93.0178 86.5146 92.342C86.4556 91.6662 86.6098 90.9896 86.9664 90.36C87.323 89.7304 87.8732 89.1631 88.5782 88.6982C97.8483 82.5863 116.311 70.4133 129.015 62.0374C129.314 61.8389 129.496 61.5695 129.526 61.2821C129.555 60.9947 129.43 60.7099 129.174 60.4836C128.919 60.2572 128.551 60.1057 128.144 60.0586C127.737 60.0115 127.319 60.0723 126.973 60.2291C110.685 67.6452 85.7398 79.0019 73.514 84.5681C71.2228 85.6113 68.6477 86.3131 65.9501 86.6294C63.2524 86.9458 60.4903 86.8699 57.8366 86.4066C51.1046 85.2318 41.3943 83.5367 32.753 82.029C31.4001 81.793 30.1884 81.265 29.2904 80.5202C28.3924 79.7754 27.854 78.8517 27.7518 77.8808C27.6496 76.9099 27.9888 75.9413 28.7213 75.1128C29.4537 74.2844 30.5418 73.6384 31.8308 73.2669C61.9123 64.5927 120.781 47.619 149.328 39.3865Z" fill="white"/>
</svg>
