<svg width="212" height="151" viewBox="0 0 212 151" fill="none" xmlns="http://www.w3.org/2000/svg">
<g clip-path="url(#clip0_145_1827)">
<path fill-rule="evenodd" clip-rule="evenodd" d="M159 151H53C38.9437 151 25.4633 147.022 15.524 139.943C5.58473 132.863 0.000614922 123.262 0 113.25L0 37.75C0.000614922 27.7382 5.58473 18.1366 15.524 11.0572C25.4633 3.9778 38.9437 0.000437987 53 0L159 0C173.056 0 186.537 3.97722 196.477 11.0567C206.416 18.1362 212 27.7381 212 37.75V113.25C212 123.262 206.416 132.864 196.477 139.943C186.537 147.023 173.056 151 159 151Z" fill="#2D0F1E"/>
<path fill-rule="evenodd" clip-rule="evenodd" d="M99.375 42.4688H159C166.643 42.4684 173.994 40.3775 179.534 36.6279C185.075 32.8783 188.382 27.7563 188.774 22.3197C189.165 16.8831 186.61 11.5472 181.636 7.41378C176.662 3.2804 169.65 0.665301 162.048 0.108531C161.034 0.0684219 160.03 0 159 0H53C38.9437 0.000437987 25.4633 3.9778 15.524 11.0572C5.58473 18.1366 0.000614922 27.7382 0 37.75L0 113.25C0.000614945 94.4778 10.4706 76.4745 29.1069 63.2006C47.7432 49.9266 73.0193 42.4692 99.375 42.4688Z" fill="#501432"/>
<path fill-rule="evenodd" clip-rule="evenodd" d="M159 75.5C148.518 75.5 138.271 77.714 129.555 81.862C120.839 86.0101 114.046 91.9058 110.034 98.8037C106.023 105.702 104.973 113.292 107.018 120.615C109.063 127.937 114.111 134.664 121.523 139.943C128.936 145.223 138.379 148.818 148.66 150.275C158.941 151.731 169.598 150.984 179.282 148.126C188.967 145.269 197.244 140.431 203.068 134.223C208.892 128.015 212 120.716 212 113.25V37.75C212 47.7619 206.416 57.3638 196.477 64.4433C186.537 71.5228 173.056 75.5 159 75.5Z" fill="black"/>
<path fill-rule="evenodd" clip-rule="evenodd" d="M112.625 33.0313C112.625 32.4115 112.796 31.7978 113.129 31.2252C113.462 30.6527 113.95 30.1324 114.565 29.6942C115.18 29.256 115.911 28.9084 116.714 28.6713C117.518 28.4342 118.38 28.3123 119.25 28.3125H133.259C134.791 28.3127 136.275 28.6911 137.46 29.3833C138.644 30.0754 139.455 31.0386 139.754 32.1087C140.953 36.3653 144.187 40.1942 148.904 42.9436C153.621 45.6929 159.53 47.1927 165.625 47.1875C166.495 47.1873 167.357 47.3092 168.161 47.5463C168.964 47.7834 169.695 48.131 170.31 48.5692C170.925 49.0074 171.413 49.5277 171.746 50.1002C172.079 50.6728 172.25 51.2865 172.25 51.9063V61.3438C172.25 61.9635 172.079 62.5772 171.746 63.1498C171.413 63.7224 170.925 64.2426 170.31 64.6808C169.695 65.119 168.964 65.4666 168.161 65.7037C167.357 65.9408 166.495 66.0627 165.625 66.0625C156.32 66.0722 147.177 64.3278 139.125 61.0064V99.0938C139.125 105.626 136.404 112.012 131.309 117.443C126.213 122.875 118.971 127.108 110.497 129.608C102.024 132.108 92.7001 132.761 83.7049 131.487C74.7097 130.212 66.4471 127.067 59.9619 122.448C53.4767 117.828 49.0602 111.943 47.2708 105.536C45.4814 99.1293 46.3996 92.4883 49.9091 86.453C53.4187 80.4177 59.362 75.2592 66.9876 71.6297C74.6132 68.0002 83.5785 66.0628 92.75 66.0625C93.6201 66.0623 94.4817 66.1843 95.2856 66.4213C96.0895 66.6584 96.8199 67.006 97.4352 67.4442C98.0504 67.8824 98.5384 68.4027 98.8712 68.9753C99.2041 69.5478 99.3753 70.1615 99.375 70.7813V80.2188C99.3753 80.8385 99.2041 81.4522 98.8712 82.0248C98.5384 82.5974 98.0504 83.1176 97.4352 83.5558C96.8199 83.9941 96.0895 84.3416 95.2856 84.5787C94.4817 84.8158 93.6201 84.9377 92.75 84.9375C88.8186 84.9373 84.9755 85.7674 81.7065 87.323C78.4375 88.8785 75.8896 91.0896 74.385 93.6766C72.8804 96.2636 72.4866 99.1103 73.2535 101.857C74.0204 104.603 75.9135 107.126 78.6934 109.106C81.4733 111.086 85.0152 112.434 88.871 112.98C92.7269 113.527 96.7235 113.246 100.356 112.174C103.988 111.103 107.092 109.288 109.276 106.96C111.46 104.631 112.625 101.894 112.625 99.0938V33.0313Z" fill="#FE2C55"/>
<path fill-rule="evenodd" clip-rule="evenodd" d="M106 28.3125C106 27.6928 106.171 27.0791 106.504 26.5065C106.837 25.9339 107.325 25.4136 107.94 24.9754C108.555 24.5372 109.286 24.1896 110.089 23.9526C110.893 23.7155 111.755 23.5936 112.625 23.5938H126.634C128.166 23.594 129.65 23.9724 130.835 24.6645C132.019 25.3567 132.83 26.3198 133.129 27.39C134.328 31.6465 137.562 35.4755 142.279 38.2248C146.996 40.9742 152.905 42.474 159 42.4688C159.87 42.4686 160.732 42.5905 161.536 42.8276C162.339 43.0646 163.07 43.4122 163.685 43.8504C164.3 44.2886 164.788 44.8089 165.121 45.3815C165.454 45.9541 165.625 46.5678 165.625 47.1875V56.625C165.625 57.2447 165.454 57.8584 165.121 58.431C164.788 59.0036 164.3 59.5239 163.685 59.9621C163.07 60.4003 162.339 60.7479 161.536 60.9849C160.732 61.222 159.87 61.3439 159 61.3438C149.695 61.3535 140.552 59.609 132.5 56.2876V94.375C132.5 100.908 129.779 107.293 124.684 112.725C119.588 118.156 112.346 122.389 103.872 124.889C95.3989 127.389 86.0751 128.043 77.0799 126.768C68.0847 125.494 59.8221 122.348 53.3369 117.729C46.8517 113.11 42.4352 107.224 40.6458 100.818C38.8564 94.4106 39.7746 87.7696 43.2841 81.7342C46.7937 75.6989 52.737 70.5404 60.3626 66.9109C67.9882 63.2815 76.9535 61.3441 86.125 61.3438C86.9951 61.3436 87.8567 61.4655 88.6606 61.7026C89.4645 61.9397 90.1949 62.2872 90.8102 62.7254C91.4254 63.1637 91.9134 63.6839 92.2462 64.2565C92.5791 64.8291 92.7503 65.4428 92.75 66.0625V75.5C92.7503 76.1197 92.5791 76.7334 92.2462 77.306C91.9134 77.8786 91.4254 78.3989 90.8102 78.8371C90.1949 79.2753 89.4645 79.6229 88.6606 79.86C87.8567 80.097 86.9951 80.219 86.125 80.2188C82.1936 80.2185 78.3505 81.0487 75.0815 82.6042C71.8125 84.1598 69.2646 86.3709 67.76 88.9578C66.2554 91.5448 65.8616 94.3915 66.6285 97.1379C67.3954 99.8843 69.2885 102.407 72.0684 104.387C74.8483 106.367 78.3902 107.715 82.246 108.262C86.1019 108.808 90.0985 108.527 93.7306 107.456C97.3626 106.384 100.467 104.569 102.651 102.241C104.835 99.9126 106 97.1752 106 94.375V28.3125Z" fill="#25F4EE"/>
<path fill-rule="evenodd" clip-rule="evenodd" d="M75.7768 106.464C78.0333 109.101 81.4381 111.14 85.4723 112.27C89.5065 113.4 93.9489 113.56 98.1225 112.725C102.296 111.89 105.972 110.107 108.59 107.646C111.209 105.185 112.625 102.181 112.625 99.0937V33.0312C112.625 32.4115 112.796 31.7978 113.129 31.2252C113.462 30.6527 113.95 30.1324 114.565 29.6942C115.18 29.256 115.911 28.9084 116.714 28.6713C117.518 28.4342 118.38 28.3123 119.25 28.3125H133.259C133.315 28.3125 133.368 28.3125 133.421 28.3149C134.978 32.7005 138.712 36.5363 143.931 39.1137C146.361 41.6085 149.605 43.6463 153.383 45.0525C157.161 46.4587 161.362 47.1913 165.625 47.1875V56.625C165.625 57.2447 165.454 57.8584 165.121 58.431C164.788 59.0036 164.3 59.5238 163.685 59.9621C163.07 60.4003 162.34 60.7478 161.536 60.9849C160.732 61.222 159.87 61.3439 159 61.3437C149.695 61.3534 140.552 59.609 132.5 56.2876V94.375C132.5 100.624 130.012 106.744 125.324 112.026C120.636 117.308 113.941 121.534 106.016 124.214C98.0911 126.894 89.2614 127.918 80.552 127.167C71.8426 126.417 63.6109 123.921 56.8127 119.972C51.2685 115.129 47.7663 109.266 46.7125 103.063C45.6588 96.8602 47.0967 90.5714 50.8594 84.9269C54.6221 79.2825 60.5553 74.514 67.9701 71.1749C75.385 67.8357 83.9774 66.063 92.75 66.0625V75.5C92.7503 76.1197 92.5791 76.7334 92.2462 77.306C91.9134 77.8786 91.4254 78.3988 90.8102 78.8371C90.1949 79.2753 89.4645 79.6228 88.6606 79.8599C87.8567 80.097 86.9951 80.2189 86.125 80.2187C81.7904 80.2192 77.5749 81.2287 74.1204 83.0937C70.666 84.9586 68.1621 87.5767 66.9902 90.549C65.8182 93.5214 66.0424 96.6852 67.6287 99.5584C69.2149 102.432 72.0762 104.857 75.7768 106.464Z" fill="white"/>
</g>
<defs>
<clipPath id="clip0_145_1827">
<rect width="212" height="151" fill="white"/>
</clipPath>
</defs>
</svg>
