<svg width="212" height="151" viewBox="0 0 212 151" fill="none" xmlns="http://www.w3.org/2000/svg">
<path fill-rule="evenodd" clip-rule="evenodd" d="M159 151H53C38.9437 151 25.4633 147.022 15.524 139.943C5.58473 132.863 0.000614922 123.262 0 113.25L0 37.75C0.000614922 27.7382 5.58473 18.1366 15.524 11.0572C25.4633 3.9778 38.9437 0.000437987 53 0L159 0C173.056 0 186.537 3.97722 196.477 11.0567C206.416 18.1362 212 27.7381 212 37.75V113.25C212 123.262 206.416 132.864 196.477 139.943C186.537 147.023 173.056 151 159 151Z" fill="#FF0000"/>
<path fill-rule="evenodd" clip-rule="evenodd" d="M99.375 42.4687H159C166.643 42.4684 173.994 40.3775 179.534 36.6279C185.075 32.8783 188.382 27.7563 188.774 22.3197C189.165 16.8831 186.61 11.5472 181.636 7.41378C176.662 3.2804 169.65 0.665301 162.048 0.108531C161.034 0.0684219 160.03 0 159 0H53C38.9437 0.000437987 25.4633 3.9778 15.524 11.0572C5.58473 18.1366 0.000614922 27.7382 0 37.75L0 113.25C0.000614945 94.4778 10.4706 76.4745 29.1069 63.2006C47.7432 49.9266 73.0193 42.4692 99.375 42.4687Z" fill="#FF5A51"/>
<path fill-rule="evenodd" clip-rule="evenodd" d="M159 75.5C148.518 75.5 138.271 77.714 129.555 81.862C120.839 86.01 114.046 91.9058 110.034 98.8037C106.023 105.702 104.973 113.292 107.018 120.615C109.063 127.937 114.111 134.664 121.523 139.943C128.936 145.223 138.379 148.818 148.66 150.275C158.941 151.731 169.598 150.984 179.282 148.126C188.967 145.269 197.244 140.431 203.068 134.223C208.892 128.015 212 120.716 212 113.25V37.75C212 47.7619 206.416 57.3638 196.477 64.4433C186.537 71.5228 173.056 75.5 159 75.5Z" fill="#D5002C"/>
<path fill-rule="evenodd" clip-rule="evenodd" d="M82.9715 42.1762C81.9679 41.7359 80.8174 41.4943 79.6389 41.4764C78.4604 41.4586 77.2966 41.6651 76.2676 42.0746C75.2386 42.4841 74.3816 43.0818 73.7852 43.806C73.1888 44.5302 72.8746 45.3546 72.875 46.1942V104.806C72.8746 105.645 73.1888 106.47 73.7852 107.194C74.3816 107.918 75.2386 108.516 76.2676 108.925C77.2966 109.335 78.4604 109.541 79.6389 109.524C80.8174 109.506 81.9679 109.264 82.9715 108.824C99.8619 101.422 133.583 86.641 149.831 79.518C150.795 79.0959 151.591 78.505 152.143 77.8016C152.695 77.0982 152.985 76.3058 152.985 75.5C152.985 74.6942 152.695 73.9018 152.143 73.1984C151.591 72.495 150.795 71.9041 149.831 71.482C133.583 64.359 99.8619 49.5775 82.9715 42.1762Z" fill="white"/>
</svg>
